<svg width="83" height="48" viewBox="0 0 83 48" fill="none" xmlns="http://www.w3.org/2000/svg">
<g clip-path="url(#clip0_301_417)">
<path fill-rule="evenodd" clip-rule="evenodd" d="M21.0283 35.0819H61.3283C62.5009 35.0819 63.4596 36.0422 63.4596 37.2132V45.8542C63.4596 47.0252 62.4993 47.9855 61.3283 47.9855H21.0283C19.8573 47.9855 18.8986 47.0268 18.8986 45.8542V37.2132C18.8986 36.0406 19.8557 35.0819 21.0283 35.0819ZM9.9343 39.1933C9.7075 38.1848 10.3413 37.1811 11.3498 36.9543C12.3583 36.7275 13.3621 37.3628 13.5889 38.3714L14.7406 43.4575C14.9352 44.3181 14.5009 45.1738 13.7433 45.5486L9.20081 47.807C8.27269 48.2638 7.14833 47.8826 6.69151 46.9561C6.23308 46.028 6.61591 44.9052 7.54242 44.4468L8.58314 43.9288L8.43998 43.8886C3.88303 42.3541 1.25148 39.0293 0.349099 35.3377C-0.102897 33.4847 -0.110939 31.5384 0.299234 29.6837C0.711017 27.8259 1.54745 26.0517 2.77797 24.5541C5.20202 21.6025 9.11074 19.7173 14.2821 20.3028C15.3116 20.4154 16.0531 21.3419 15.9405 22.3714C15.8263 23.3992 14.8998 24.1424 13.872 24.0282C10.1161 23.6035 7.33975 24.8951 5.66849 26.9299C4.81919 27.9642 4.24012 29.1947 3.9538 30.4912C3.66588 31.7909 3.6707 33.1581 3.98758 34.4578C4.60526 36.98 6.43737 39.2625 9.62868 40.337C9.87639 40.4206 10.0952 40.5509 10.2785 40.7134L9.9343 39.1933ZM68.7677 21.017C68.9945 20.0084 69.9982 19.3731 71.0068 19.5999C72.0153 19.8267 72.6491 20.8304 72.4223 21.8389L72.0781 23.359C72.2614 23.1965 72.4802 23.0663 72.7279 22.9826C75.9192 21.9081 77.7513 19.6256 78.369 17.1034C78.6859 15.8038 78.6907 14.4381 78.4028 13.1368C78.1165 11.842 77.5374 10.6098 76.6881 9.57555C75.0168 7.54077 72.2405 6.24912 68.4846 6.67377C67.4568 6.78798 66.5303 6.04484 66.4161 5.01699C66.3035 3.98753 67.045 3.06102 68.0744 2.94843C73.2458 2.36292 77.1546 4.24811 79.5786 7.19976C80.8091 8.6973 81.6456 10.4715 82.0574 12.3293C82.4675 14.184 82.4595 16.1303 82.0075 17.9833C81.1051 21.6749 78.4736 24.9997 73.9166 26.5342L73.7735 26.5744L74.8142 27.0924C75.7407 27.5508 76.1235 28.6736 75.6651 29.6017C75.2083 30.5282 74.0839 30.9094 73.1558 30.4526L68.6133 28.1942C67.8557 27.8194 67.4214 26.9637 67.616 26.1031L68.7677 21.017ZM33.5555 4.43631H48.8011C49.3576 4.43631 49.8112 4.89152 49.8112 5.44807V7.45551C49.8108 7.72329 49.7043 7.97998 49.5149 8.16933C49.3256 8.35868 49.0689 8.46524 48.8011 8.46567H33.5555C33.2877 8.46524 33.031 8.35868 32.8417 8.16933C32.6523 7.97998 32.5458 7.72329 32.5453 7.45551V5.44807C32.5453 4.89152 32.9989 4.43631 33.5555 4.43631ZM33.5555 39.5199H48.8011C49.3576 39.5199 49.8112 39.9751 49.8112 40.53V42.5375C49.8112 43.094 49.3576 43.5492 48.8011 43.5492H33.5555C32.9989 43.5492 32.5453 43.094 32.5453 42.5375V40.53C32.5453 39.9751 32.9989 39.5199 33.5555 39.5199ZM33.5555 21.9789H48.8011C49.0689 21.9793 49.3256 22.0859 49.5149 22.2752C49.7043 22.4646 49.8108 22.7213 49.8112 22.989V24.9965C49.8108 25.2643 49.7043 25.521 49.5149 25.7103C49.3256 25.8996 49.0689 26.0062 48.8011 26.0066H33.5555C33.2877 26.0062 33.031 25.8996 32.8417 25.7103C32.6523 25.521 32.5458 25.2643 32.5453 24.9965V22.989C32.5458 22.7213 32.6523 22.4646 32.8417 22.2752C33.031 22.0859 33.2877 21.9793 33.5555 21.9789ZM21.0283 0H61.3283C62.5009 0 63.4596 0.96029 63.4596 2.1313V10.7723C63.4596 11.9433 62.4993 12.9036 61.3283 12.9036H21.0283C19.8573 12.9036 18.8986 11.9449 18.8986 10.7723V2.1313C18.8986 0.958681 19.8557 0 21.0283 0ZM21.0283 17.541H61.3283C62.5009 17.541 63.4596 18.5013 63.4596 19.6723V28.3133C63.4596 29.4843 62.4993 30.4446 61.3283 30.4446H21.0283C19.8573 30.4446 18.8986 29.4859 18.8986 28.3133V19.6723C18.8986 18.4996 19.8557 17.541 21.0283 17.541Z" fill="#C084FC"/>
</g>
<defs>
<clipPath id="clip0_301_417">
<rect width="82.3565" height="48" fill="white"/>
</clipPath>
</defs>
</svg>
