<svg width="2309" height="364" viewBox="0 0 2309 364" fill="none" xmlns="http://www.w3.org/2000/svg">
<path d="M682.582 317.184C666.279 317.184 653.033 315.571 642.844 312.344C632.739 309.118 624.97 304.617 619.535 298.843C614.101 292.984 610.365 286.107 608.327 278.21C606.289 270.313 605.27 261.652 605.27 252.227V191.091C605.27 181.496 606.247 172.665 608.2 164.599C610.238 156.447 613.931 149.357 619.281 143.328C624.715 137.3 632.484 132.629 642.589 129.318C652.778 125.921 666.067 124.223 682.455 124.223C697.824 124.223 710.263 125.752 719.773 128.808C729.283 131.78 736.586 136.068 741.68 141.673C746.775 147.277 750.214 153.985 751.997 161.797C753.865 169.523 754.799 178.142 754.799 187.652V189.69L722.066 193.384V185.869C722.066 176.274 720.835 168.972 718.372 163.962C715.995 158.952 711.919 155.513 706.145 153.645C700.371 151.777 692.474 150.843 682.455 150.843C672.605 150.843 664.496 151.862 658.128 153.9C651.759 155.938 647.004 159.546 643.862 164.726C640.721 169.906 639.15 177.208 639.15 186.633V256.175C639.15 265.516 640.721 272.648 643.862 277.573C647.004 282.498 651.802 285.894 658.255 287.762C664.708 289.546 672.902 290.437 682.837 290.437C692.771 290.437 700.583 289.673 706.272 288.145C711.961 286.531 715.995 283.347 718.372 278.592C720.835 273.752 722.066 266.535 722.066 256.94V251.972H754.799V254.647C754.799 263.902 753.95 272.351 752.252 279.993C750.553 287.635 747.242 294.216 742.317 299.735C737.392 305.254 730.132 309.542 720.537 312.599C710.942 315.656 698.291 317.184 682.582 317.184ZM885.213 317.184C868.825 317.184 855.366 315.486 844.837 312.089C834.308 308.693 826.114 304.023 820.255 298.079C814.397 292.05 810.278 285.003 807.901 276.936C805.608 268.87 804.462 260.166 804.462 250.826V192.237C804.462 182.642 805.608 173.727 807.901 165.49C810.193 157.254 814.269 150.036 820.128 143.838C825.987 137.639 834.181 132.842 844.71 129.445C855.239 125.964 868.74 124.223 885.213 124.223C901.006 124.223 913.998 126.049 924.187 129.7C934.376 133.351 942.315 138.403 948.004 144.857C953.778 151.225 957.769 158.655 959.977 167.146C962.27 175.552 963.416 184.553 963.416 194.148V248.915C963.416 258.171 962.27 266.917 959.977 275.153C957.684 283.389 953.651 290.649 947.877 296.933C942.188 303.216 934.249 308.184 924.06 311.835C913.955 315.401 901.006 317.184 885.213 317.184ZM885.213 290.437C895.232 290.437 903.511 289.461 910.049 287.508C916.587 285.47 921.47 281.861 924.696 276.681C928.008 271.502 929.664 264.242 929.664 254.902V187.27C929.664 178.015 928.008 170.755 924.696 165.49C921.47 160.226 916.545 156.49 909.922 154.282C903.384 151.989 895.147 150.843 885.213 150.843C875.448 150.843 867.042 151.947 859.994 154.155C852.946 156.277 847.554 160.013 843.818 165.363C840.167 170.627 838.342 177.93 838.342 187.27V254.902C838.342 264.242 840.167 271.502 843.818 276.681C847.47 281.861 852.819 285.47 859.867 287.508C866.914 289.461 875.363 290.437 885.213 290.437ZM1020.72 314V127.28H1099.43C1117.26 127.28 1131.19 130.125 1141.21 135.814C1151.31 141.503 1158.45 149.23 1162.61 158.994C1166.85 168.674 1168.98 179.585 1168.98 191.728V250.444C1168.98 263.181 1166.73 274.346 1162.23 283.941C1157.73 293.451 1150.42 300.839 1140.32 306.103C1130.21 311.368 1116.67 314 1099.69 314H1020.72ZM1054.6 288.017H1096.63C1105.46 288.017 1112.72 286.998 1118.41 284.96C1124.1 282.838 1128.3 279.356 1131.02 274.516C1133.82 269.591 1135.22 262.926 1135.22 254.52V187.907C1135.22 179.585 1133.82 172.92 1131.02 167.91C1128.22 162.815 1123.97 159.122 1118.28 156.829C1112.59 154.452 1105.38 153.263 1096.63 153.263H1054.6V288.017ZM1226.03 127.28H1346.52V152.626H1259.78V206.12H1336.58V230.702H1259.78V288.654H1347.92V314H1226.03V127.28ZM1382.55 127.28H1414.77L1449.54 260.633L1484.83 127.28H1515.27L1554.37 259.742L1587.1 127.28H1619.07L1569.91 314H1542.4L1501 172.241L1461.52 314H1432.48L1382.55 127.28ZM1739.04 317.184C1722.65 317.184 1709.19 315.486 1698.66 312.089C1688.14 308.693 1679.94 304.023 1674.08 298.079C1668.22 292.05 1664.11 285.003 1661.73 276.936C1659.44 268.87 1658.29 260.166 1658.29 250.826V192.237C1658.29 182.642 1659.44 173.727 1661.73 165.49C1664.02 157.254 1668.1 150.036 1673.96 143.838C1679.81 137.639 1688.01 132.842 1698.54 129.445C1709.07 125.964 1722.57 124.223 1739.04 124.223C1754.83 124.223 1767.82 126.049 1778.01 129.7C1788.2 133.351 1796.14 138.403 1801.83 144.857C1807.61 151.225 1811.6 158.655 1813.8 167.146C1816.1 175.552 1817.24 184.553 1817.24 194.148V248.915C1817.24 258.171 1816.1 266.917 1813.8 275.153C1811.51 283.389 1807.48 290.649 1801.7 296.933C1796.02 303.216 1788.08 308.184 1777.89 311.835C1767.78 315.401 1754.83 317.184 1739.04 317.184ZM1739.04 290.437C1749.06 290.437 1757.34 289.461 1763.88 287.508C1770.41 285.47 1775.3 281.861 1778.52 276.681C1781.84 271.502 1783.49 264.242 1783.49 254.902V187.27C1783.49 178.015 1781.84 170.755 1778.52 165.49C1775.3 160.226 1770.37 156.49 1763.75 154.282C1757.21 151.989 1748.97 150.843 1739.04 150.843C1729.28 150.843 1720.87 151.947 1713.82 154.155C1706.77 156.277 1701.38 160.013 1697.65 165.363C1693.99 170.627 1692.17 177.93 1692.17 187.27V254.902C1692.17 264.242 1693.99 271.502 1697.65 276.681C1701.3 281.861 1706.65 285.47 1713.69 287.508C1720.74 289.461 1729.19 290.437 1739.04 290.437ZM1874.55 314V127.28H1956.06C1970.58 127.28 1982.13 129.403 1990.71 133.648C1999.37 137.894 2005.57 144.135 2009.3 152.371C2013.12 160.608 2015.03 170.797 2015.03 182.939C2015.03 191.346 2014.18 198.86 2012.49 205.483C2010.87 212.106 2008.07 217.796 2004.08 222.551C2000.17 227.221 1994.82 230.999 1988.03 233.886L2025.22 314H1990.32L1956.06 238.981H1908.43V314H1874.55ZM1908.43 214.526H1957.46C1964.26 214.526 1969.44 213.21 1973 210.578C1976.57 207.946 1979.03 204.38 1980.39 199.879C1981.75 195.294 1982.43 190.242 1982.43 184.723C1982.43 179.373 1981.88 174.194 1980.77 169.184C1979.75 164.089 1977.63 159.928 1974.4 156.702C1971.18 153.39 1966.21 151.735 1959.5 151.735H1908.43V214.526ZM2142.65 223.569L2135.39 223.697L2106.98 257.959V314H2073.23V127.28H2106.98V221.532L2184.8 127.28H2221.87L2142.65 223.569ZM2125.58 223.315L2149.4 204.082L2226.33 314H2188.37L2125.58 223.315Z" fill="#FEFEFE"/>
<path d="M254.361 122.084L265.504 134.307L221.253 175.609C196.638 142.829 172.788 131.356 130.645 134.728C93.5584 142.314 81.9446 155.823 68.0871 186.146C60.8327 207.38 60.829 219.287 65.5585 240.513C93.5965 309.091 166.744 319.584 204.21 278.444C282.707 204.618 324.533 156.637 408.185 73.1954L390.484 55.4943L492.471 34L468.871 135.571L450.749 117.87C421.811 146.95 360.984 207.808 349.184 218.598L495 364H407.763L311.44 262.851L288.261 286.874C249.068 328.598 226.92 342.576 191.146 355.992C151.542 364.878 129.77 365.95 92.5303 353.464C56.4681 336.698 39.6326 324.259 20.465 292.353C-0.0985146 254.59 -2.62796 233.581 1.92191 196.261C13.5858 151.925 24.5263 128.504 69.7728 95.1111C92.0933 79.5795 108.15 75.1363 141.838 73.1954C199.069 75.665 220.967 89.7957 254.361 122.084Z" fill="url(#paint0_linear_81_42)"/>
<defs>
<linearGradient id="paint0_linear_81_42" x1="302" y1="-138.5" x2="248" y2="557" gradientUnits="userSpaceOnUse">
<stop stop-color="#FF035B"/>
<stop offset="0.419" stop-color="#FF035B"/>
<stop offset="0.679" stop-color="#07BFE9"/>
</linearGradient>
</defs>
</svg>
