<svg width="2610" height="559" viewBox="0 0 2610 559" fill="none" xmlns="http://www.w3.org/2000/svg">
<path d="M983.582 402.184C967.279 402.184 954.033 400.571 943.844 397.344C933.739 394.118 925.97 389.617 920.535 383.843C915.101 377.984 911.365 371.107 909.327 363.21C907.289 355.313 906.27 346.652 906.27 337.227V276.091C906.27 266.496 907.247 257.665 909.2 249.599C911.238 241.447 914.931 234.357 920.281 228.328C925.715 222.3 933.484 217.629 943.589 214.318C953.778 210.921 967.067 209.223 983.455 209.223C998.824 209.223 1011.26 210.752 1020.77 213.808C1030.28 216.78 1037.59 221.068 1042.68 226.673C1047.77 232.277 1051.21 238.985 1053 246.797C1054.87 254.523 1055.8 263.142 1055.8 272.652V274.69L1023.07 278.384V270.869C1023.07 261.274 1021.83 253.972 1019.37 248.962C1016.99 243.952 1012.92 240.513 1007.14 238.645C1001.37 236.777 993.474 235.843 983.455 235.843C973.605 235.843 965.496 236.862 959.128 238.9C952.759 240.938 948.004 244.546 944.862 249.726C941.721 254.906 940.15 262.208 940.15 271.633V341.175C940.15 350.516 941.721 357.648 944.862 362.573C948.004 367.498 952.802 370.894 959.255 372.762C965.708 374.546 973.902 375.437 983.837 375.437C993.771 375.437 1001.58 374.673 1007.27 373.145C1012.96 371.531 1016.99 368.347 1019.37 363.592C1021.83 358.752 1023.07 351.535 1023.07 341.94V336.972H1055.8V339.647C1055.8 348.902 1054.95 357.351 1053.25 364.993C1051.55 372.635 1048.24 379.216 1043.32 384.735C1038.39 390.254 1031.13 394.542 1021.54 397.599C1011.94 400.656 999.291 402.184 983.582 402.184ZM1186.21 402.184C1169.82 402.184 1156.37 400.486 1145.84 397.089C1135.31 393.693 1127.11 389.023 1121.26 383.079C1115.4 377.05 1111.28 370.003 1108.9 361.936C1106.61 353.87 1105.46 345.166 1105.46 335.826V277.237C1105.46 267.642 1106.61 258.727 1108.9 250.49C1111.19 242.254 1115.27 235.036 1121.13 228.838C1126.99 222.639 1135.18 217.842 1145.71 214.445C1156.24 210.964 1169.74 209.223 1186.21 209.223C1202.01 209.223 1215 211.049 1225.19 214.7C1235.38 218.351 1243.32 223.403 1249 229.857C1254.78 236.225 1258.77 243.655 1260.98 252.146C1263.27 260.552 1264.42 269.553 1264.42 279.148V333.915C1264.42 343.171 1263.27 351.917 1260.98 360.153C1258.68 368.389 1254.65 375.649 1248.88 381.933C1243.19 388.216 1235.25 393.184 1225.06 396.835C1214.96 400.401 1202.01 402.184 1186.21 402.184ZM1186.21 375.437C1196.23 375.437 1204.51 374.461 1211.05 372.508C1217.59 370.47 1222.47 366.861 1225.7 361.681C1229.01 356.502 1230.66 349.242 1230.66 339.902V272.27C1230.66 263.015 1229.01 255.755 1225.7 250.49C1222.47 245.226 1217.54 241.49 1210.92 239.282C1204.38 236.989 1196.15 235.843 1186.21 235.843C1176.45 235.843 1168.04 236.947 1160.99 239.155C1153.95 241.277 1148.55 245.013 1144.82 250.363C1141.17 255.627 1139.34 262.93 1139.34 272.27V339.902C1139.34 349.242 1141.17 356.502 1144.82 361.681C1148.47 366.861 1153.82 370.47 1160.87 372.508C1167.91 374.461 1176.36 375.437 1186.21 375.437ZM1321.72 399V212.28H1400.43C1418.26 212.28 1432.19 215.125 1442.21 220.814C1452.31 226.503 1459.45 234.23 1463.61 243.994C1467.85 253.674 1469.98 264.585 1469.98 276.728V335.444C1469.98 348.181 1467.73 359.346 1463.23 368.941C1458.73 378.451 1451.42 385.839 1441.32 391.103C1431.21 396.368 1417.67 399 1400.69 399H1321.72ZM1355.6 373.017H1397.63C1406.46 373.017 1413.72 371.998 1419.41 369.96C1425.1 367.838 1429.3 364.356 1432.02 359.516C1434.82 354.591 1436.22 347.926 1436.22 339.52V272.907C1436.22 264.585 1434.82 257.92 1432.02 252.91C1429.22 247.815 1424.97 244.122 1419.28 241.829C1413.59 239.452 1406.38 238.263 1397.63 238.263H1355.6V373.017ZM1527.03 212.28H1647.52V237.626H1560.78V291.12H1637.58V315.702H1560.78V373.654H1648.92V399H1527.03V212.28ZM1683.55 212.28H1715.77L1750.54 345.633L1785.83 212.28H1816.27L1855.37 344.742L1888.1 212.28H1920.07L1870.91 399H1843.4L1802 257.241L1762.52 399H1733.48L1683.55 212.28ZM2040.04 402.184C2023.65 402.184 2010.19 400.486 1999.66 397.089C1989.14 393.693 1980.94 389.023 1975.08 383.079C1969.22 377.05 1965.11 370.003 1962.73 361.936C1960.44 353.87 1959.29 345.166 1959.29 335.826V277.237C1959.29 267.642 1960.44 258.727 1962.73 250.49C1965.02 242.254 1969.1 235.036 1974.96 228.838C1980.81 222.639 1989.01 217.842 1999.54 214.445C2010.07 210.964 2023.57 209.223 2040.04 209.223C2055.83 209.223 2068.82 211.049 2079.01 214.7C2089.2 218.351 2097.14 223.403 2102.83 229.857C2108.61 236.225 2112.6 243.655 2114.8 252.146C2117.1 260.552 2118.24 269.553 2118.24 279.148V333.915C2118.24 343.171 2117.1 351.917 2114.8 360.153C2112.51 368.389 2108.48 375.649 2102.7 381.933C2097.02 388.216 2089.08 393.184 2078.89 396.835C2068.78 400.401 2055.83 402.184 2040.04 402.184ZM2040.04 375.437C2050.06 375.437 2058.34 374.461 2064.88 372.508C2071.41 370.47 2076.3 366.861 2079.52 361.681C2082.84 356.502 2084.49 349.242 2084.49 339.902V272.27C2084.49 263.015 2082.84 255.755 2079.52 250.49C2076.3 245.226 2071.37 241.49 2064.75 239.282C2058.21 236.989 2049.97 235.843 2040.04 235.843C2030.28 235.843 2021.87 236.947 2014.82 239.155C2007.77 241.277 2002.38 245.013 1998.65 250.363C1994.99 255.627 1993.17 262.93 1993.17 272.27V339.902C1993.17 349.242 1994.99 356.502 1998.65 361.681C2002.3 366.861 2007.65 370.47 2014.69 372.508C2021.74 374.461 2030.19 375.437 2040.04 375.437ZM2175.55 399V212.28H2257.06C2271.58 212.28 2283.13 214.403 2291.71 218.648C2300.37 222.894 2306.57 229.135 2310.3 237.371C2314.12 245.608 2316.03 255.797 2316.03 267.939C2316.03 276.346 2315.18 283.86 2313.49 290.483C2311.87 297.106 2309.07 302.796 2305.08 307.551C2301.17 312.221 2295.82 315.999 2289.03 318.886L2326.22 399H2291.32L2257.06 323.981H2209.43V399H2175.55ZM2209.43 299.526H2258.46C2265.26 299.526 2270.44 298.21 2274 295.578C2277.57 292.946 2280.03 289.38 2281.39 284.879C2282.75 280.294 2283.43 275.242 2283.43 269.723C2283.43 264.373 2282.88 259.194 2281.77 254.184C2280.75 249.089 2278.63 244.928 2275.4 241.702C2272.18 238.39 2267.21 236.735 2260.5 236.735H2209.43V299.526ZM2443.65 308.569L2436.39 308.697L2407.98 342.959V399H2374.23V212.28H2407.98V306.532L2485.8 212.28H2522.87L2443.65 308.569ZM2426.58 308.315L2450.4 289.082L2527.33 399H2489.37L2426.58 308.315Z" fill="#FEFEFE"/>
<path d="M427.532 149.209L446.261 169.913L371.884 239.877C330.511 184.35 290.424 164.916 219.589 170.627C157.254 183.478 137.733 206.361 114.441 257.725C102.248 293.695 102.242 313.865 110.191 349.821C157.318 465.987 280.265 483.762 343.237 414.074C475.177 289.016 545.479 207.74 686.08 66.3946L656.329 36.41L827.75 0L788.082 172.055L757.623 142.07C708.983 191.331 606.745 294.421 586.911 312.697L832 559H685.372L523.471 387.659L484.512 428.353C418.635 499.031 381.409 522.71 321.28 545.436C254.712 560.488 218.118 562.303 155.526 541.152C94.9121 512.752 66.6149 491.68 34.3978 437.634C-0.165584 373.666 -4.4171 338.078 3.23036 274.86C22.8351 199.758 41.224 160.084 117.275 103.519C154.791 77.2089 181.78 69.6824 238.403 66.3946C334.597 70.578 371.403 94.5145 427.532 149.209Z" fill="url(#paint0_linear_102_7)"/>
<defs>
<linearGradient id="paint0_linear_102_7" x1="507.604" y1="-292.205" x2="415.425" y2="885.82" gradientUnits="userSpaceOnUse">
<stop stop-color="#FF035B"/>
<stop offset="0.419" stop-color="#FF035B"/>
<stop offset="0.679" stop-color="#07BFE9"/>
</linearGradient>
</defs>
</svg>
