<svg width="57" height="62" viewBox="0 0 57 62" fill="none" xmlns="http://www.w3.org/2000/svg">
<g clip-path="url(#clip0_360_641)">
<path fill-rule="evenodd" clip-rule="evenodd" d="M28.1107 0C38.6296 6.66802 48.1329 9.82165 56.2875 9.07713C57.7124 37.8859 47.0736 54.8986 28.2184 62C10.0121 55.3538 -0.75744 39.0723 0.0415599 8.63889C9.61504 9.14008 19.0081 7.07115 28.1107 0ZM33.7097 26.66V24.6213C33.7097 23.0161 33.0851 21.5609 32.0778 20.5113C31.0827 19.4738 29.7123 18.8286 28.2063 18.8286C26.7015 18.8286 25.3311 19.4738 24.336 20.5113C23.3288 21.5609 22.7041 23.0161 22.7041 24.6213V26.66H33.7097ZM20.2442 26.66V24.6213C20.2442 22.3635 21.134 20.3067 22.5673 18.8116C24.014 17.3044 26.0091 16.3686 28.2075 16.3686C30.406 16.3686 32.4023 17.3032 33.8465 18.8116C35.2811 20.3067 36.1709 22.3635 36.1709 24.6213V26.66H37.051C37.7653 26.66 38.35 27.2447 38.35 27.959V41.6897C38.35 42.4051 37.7653 42.9898 37.051 42.9898H19.364C18.6486 42.9898 18.0651 42.4051 18.0651 41.6897V27.959C18.0639 27.2447 18.6486 26.66 19.364 26.66H20.2442ZM27.141 35.4296L25.7379 39.1014H30.676L29.377 35.3788C30.2014 34.9551 30.7643 34.0955 30.7643 33.1052C30.7643 31.6913 29.6203 30.5472 28.2063 30.5472C26.7948 30.5472 25.6495 31.6913 25.6495 33.1052C25.6495 34.1355 26.2609 35.0241 27.141 35.4296ZM28.1288 4.79884C36.8525 10.3277 45.225 13.4365 51.9887 12.8179C53.1702 36.7092 43.8546 51.3116 28.2208 57.1999C13.1197 51.6893 3.69638 37.6947 4.35858 12.4559C13.121 12.9148 21.1509 10.2199 28.1288 4.79884Z" fill="#60A5FA"/>
</g>
<defs>
<clipPath id="clip0_360_641">
<rect width="56.4143" height="62" fill="white"/>
</clipPath>
</defs>
</svg>
