<svg width="63" height="63" viewBox="0 0 63 63" fill="none" xmlns="http://www.w3.org/2000/svg">
<g clip-path="url(#clip0_360_637)">
<path fill-rule="evenodd" clip-rule="evenodd" d="M17.7239 29.9619C17.511 29.7305 17.3409 29.4632 17.2214 29.1724C17.0215 28.6904 16.9651 28.1726 17.0522 27.6804C17.1394 27.1882 17.3599 26.7217 17.7136 26.3372L17.8418 26.2039C18.3304 25.7355 18.9786 25.4703 19.6553 25.4617C20.3321 25.4531 20.9868 25.7019 21.4871 26.1577L21.5024 26.168C22.2356 26.8704 23.4712 28.0188 24.2864 28.7417L24.9836 29.3672L33.52 20.4053C33.6379 20.2822 33.7712 20.1694 33.9148 20.072C34.0583 19.9746 34.207 19.8875 34.366 19.8208C34.5249 19.7542 34.689 19.6978 34.8582 19.6619C35.0273 19.626 35.2017 19.6055 35.3708 19.6003H35.3811C35.7276 19.5974 36.0717 19.6582 36.3962 19.7798C36.5552 19.8413 36.709 19.9182 36.8525 20.0105C36.991 20.0977 37.1243 20.2002 37.2524 20.3232L37.314 20.3796C37.4319 20.4976 37.5396 20.6257 37.637 20.7642C37.7344 20.9026 37.8164 21.0564 37.8831 21.2102C37.9548 21.3691 38.0061 21.5332 38.042 21.7024C38.0779 21.8665 38.0984 22.0408 38.1035 22.2202V22.3074C38.1035 22.4612 38.0881 22.6099 38.0625 22.7637C38.0317 22.9277 37.9856 23.0918 37.9292 23.2456C37.8677 23.4045 37.7908 23.5583 37.6985 23.7019C37.6062 23.8455 37.5037 23.9839 37.3806 24.1069L27.0601 34.9351C26.8225 35.1854 26.5387 35.3874 26.2244 35.5298C26.0654 35.6016 25.9014 35.658 25.7373 35.699C25.5732 35.74 25.3989 35.7605 25.2246 35.7708H25.1785C25.0195 35.7759 24.8606 35.7656 24.7068 35.74L24.6658 35.7349C24.5068 35.7092 24.353 35.6682 24.2095 35.6169C24.0505 35.5605 23.8916 35.4888 23.7429 35.3965L23.7173 35.3811C23.5789 35.2939 23.4456 35.2017 23.3276 35.094L23.302 35.0735C22.7021 34.5198 22.051 33.9507 21.3948 33.3816C20.2566 32.3921 18.6724 30.9668 17.7239 29.9619ZM27.4907 0C35.0837 0 41.9539 3.07617 46.927 8.04932C51.9001 13.0225 54.9763 19.8977 54.9763 27.4856C54.9763 33.0381 53.3306 38.2061 50.4954 42.5332L62.3899 55.4993L54.1868 63L42.7178 50.3774C38.2102 53.3865 32.9104 54.989 27.4907 54.9814C19.8977 54.9814 13.0276 51.9053 8.05444 46.9321C3.07617 41.9487 0 35.0786 0 27.4907C0 19.8977 3.07617 13.0276 8.04932 8.04932C13.0276 3.07617 19.8977 0 27.4907 0ZM44.7583 10.218C40.3389 5.79858 34.2327 3.06592 27.4907 3.06592C20.7437 3.06592 14.6426 5.79858 10.2231 10.218C5.79858 14.6375 3.06592 20.7437 3.06592 27.4907C3.06592 34.2327 5.79858 40.3389 10.218 44.7583C14.6375 49.1777 20.7437 51.9104 27.4856 51.9104C34.2275 51.9104 40.3337 49.1777 44.7532 44.7583C49.1726 40.3389 51.9053 34.2327 51.9053 27.4907C51.9104 20.7437 49.1777 14.6375 44.7583 10.218Z" fill="#EAB308"/>
</g>
<defs>
<clipPath id="clip0_360_637">
<rect width="62.395" height="63" fill="white"/>
</clipPath>
</defs>
</svg>
