<svg width="64" height="64" viewBox="0 0 64 64" fill="none" xmlns="http://www.w3.org/2000/svg">
<path d="M32.0003 21.3333V32M53.3337 27.1067C53.3337 44.6221 40.0854 52.4749 34.4691 55.0171L34.4619 55.02C33.8713 55.2875 33.5753 55.4216 32.9041 55.5368C32.479 55.6099 31.5243 55.6099 31.0993 55.5368C30.4254 55.4211 30.1262 55.2867 29.531 55.0171C23.9145 52.4749 10.667 44.6221 10.667 27.1067V16.5339C10.667 13.5469 10.667 12.0523 11.2483 10.9115C11.7596 9.90792 12.5749 9.09261 13.5785 8.58131C14.7193 8 16.2139 8 19.2009 8H44.8009C47.7878 8 49.2793 8 50.4201 8.58131C51.4235 9.09261 52.2417 9.90792 52.7529 10.9115C53.3337 12.0512 53.3337 13.544 53.3337 16.5251V27.1067ZM32.1331 40V40.2667L31.8675 40.2672V40H32.1331Z" stroke="#C084FC" stroke-width="5" stroke-linecap="round" stroke-linejoin="round"/>
</svg>
