<svg width="56" height="60" viewBox="0 0 56 60" fill="none" xmlns="http://www.w3.org/2000/svg">
<g clip-path="url(#clip0_360_629)">
<path d="M5.78517 49.7613L5.58637 49.5277L5.05953 53.817C5.02042 54.1486 4.91594 54.4691 4.75214 54.76C4.58834 55.0509 4.36847 55.3064 4.10525 55.5118C3.70857 55.8303 3.2254 56.0222 2.71833 56.0629C2.21127 56.1036 1.70368 55.991 1.26133 55.7398C0.81897 55.4887 0.462229 55.1105 0.237318 54.6542C0.012407 54.1979 -0.0703096 53.6846 -0.000116115 53.1808L1.38656 42.0725V42.0377C1.39547 41.969 1.40876 41.9009 1.42633 41.8339C1.50287 41.5104 1.64243 41.2052 1.83701 40.9356C2.03158 40.6661 2.27738 40.4376 2.56033 40.2631C2.84328 40.0886 3.15784 39.9716 3.48604 39.9188C3.81424 39.8659 4.14963 39.8783 4.47304 39.9552C8.19074 40.7935 11.9051 41.6467 15.6162 42.5148C15.9402 42.5866 16.2465 42.7225 16.5171 42.9146C16.7877 43.1066 17.0171 43.3509 17.1917 43.6331C17.5439 44.203 17.6581 44.8884 17.5098 45.5416C17.4374 45.8647 17.3012 46.1701 17.1092 46.4398C16.9172 46.7095 16.6732 46.9381 16.3915 47.1122C15.8249 47.4678 15.1402 47.584 14.488 47.4353C12.8428 47.0625 11.1977 46.6798 9.55754 46.3021C10.0025 46.8227 10.4736 47.3203 10.9691 47.7931C14.5432 51.2859 19.0858 53.6221 24.0058 54.4979C26.4202 54.9244 28.8855 54.9814 31.317 54.6669C33.7231 54.368 36.0685 53.6991 38.2703 52.6838C39.1053 52.2895 39.9055 51.8687 40.6709 51.4214C41.4462 50.9591 42.1967 50.4671 42.9124 49.9303C44.4759 48.7921 45.9034 47.4779 47.1669 46.0138C48.4051 44.5774 49.471 43.0011 50.3428 41.317L50.6212 40.7703L55.5913 42.1072L55.1937 42.9323C54.1429 45.1155 52.8239 47.1591 51.2673 49.0158C49.6857 50.8999 47.8816 52.5855 45.8945 54.0357C45.0595 54.647 44.1748 55.2285 43.2504 55.7752C42.3259 56.322 41.3965 56.8041 40.3975 57.2663C37.725 58.5225 34.8753 59.3607 31.9482 59.7514C29.0082 60.1376 26.0265 60.0722 23.1062 59.5575C17.1807 58.5034 11.7106 55.687 7.41042 51.476C6.814 50.8995 6.28716 50.3279 5.80008 49.7613H5.78517ZM50.1987 10.2385L50.3975 10.4721L50.8945 6.18279C50.9295 5.84684 51.0312 5.52124 51.1935 5.22505C51.3559 4.92886 51.5757 4.66803 51.8401 4.45782C52.1045 4.24762 52.4081 4.09227 52.7333 4.00086C53.0585 3.90946 53.3986 3.88383 53.7338 3.92548C54.069 3.96713 54.3925 4.07522 54.6854 4.24343C54.9783 4.41164 55.2347 4.63659 55.4397 4.90511C55.6446 5.17363 55.7938 5.48032 55.8788 5.80724C55.9637 6.13416 55.9826 6.47473 55.9343 6.80903L54.5725 17.9273V17.9621C54.5725 18.0267 54.5725 18.0963 54.5377 18.1659C54.3828 18.8138 53.9786 19.3746 53.4128 19.7263C52.8471 20.0781 52.1654 20.1924 51.5158 20.0446C47.8031 19.2047 44.0605 18.3548 40.3727 17.485C40.0496 17.4126 39.7442 17.2764 39.4745 17.0844C39.2048 16.8923 38.9762 16.6483 38.8021 16.3667C38.4462 15.7983 38.33 15.112 38.479 14.4581C38.5514 14.1351 38.6876 13.8297 38.8796 13.56C39.0717 13.2903 39.3157 13.0617 39.5973 12.8876C40.1657 12.5316 40.852 12.4155 41.5059 12.5645C43.151 12.9373 44.7911 13.32 46.4363 13.6977C46.0188 13.2007 45.5565 12.7037 45.0247 12.1818C43.2434 10.4421 41.2112 8.97954 38.9959 7.84283C36.7946 6.70254 34.4336 5.90157 31.9929 5.46709C29.5802 5.04054 27.1166 4.98356 24.6868 5.2981C22.2759 5.61313 19.9285 6.30058 17.7285 7.33587C16.8902 7.72686 16.09 8.14767 15.3279 8.5983C14.5476 9.06053 13.8021 9.55257 13.0814 10.0894C11.5184 11.2263 10.0924 12.5406 8.83189 14.0059C7.59031 15.4396 6.52413 17.0164 5.65595 18.7027L5.37265 19.2494L0.377618 17.8925L0.775232 17.0675C1.82726 14.885 3.14616 12.8415 4.70167 10.984C6.28453 9.10103 8.08845 7.4156 10.0744 5.9641C10.9161 5.35112 11.7974 4.77126 12.7186 4.22454C13.6182 3.6977 14.5724 3.19571 15.5715 2.73349C18.244 1.47724 21.0937 0.639097 24.0208 0.248399C26.9673 -0.139813 29.9559 -0.0744426 32.8826 0.442236C35.8265 0.962626 38.6751 1.92442 41.3319 3.29512C43.9965 4.66629 46.4407 6.42871 48.5834 8.52375C49.1748 9.10029 49.7066 9.67186 50.1937 10.2385H50.1987Z" fill="#4ADE80"/>
</g>
<defs>
<clipPath id="clip0_360_629">
<rect width="55.9742" height="60" fill="white"/>
</clipPath>
</defs>
</svg>
