<svg width="62" height="62" viewBox="0 0 62 62" fill="none" xmlns="http://www.w3.org/2000/svg">
<path d="M23.1289 46.4608C22.5459 49.4284 19.9303 51.6671 16.7918 51.6671H11.6251C10.9118 51.6671 10.3335 51.0888 10.3335 50.3754V45.2087C10.3335 42.0703 12.5721 39.4547 15.5397 38.8717L15.5703 37.9861C15.6219 36.4888 15.7761 35.0191 16.0259 33.5837H6.45847C5.54466 33.5837 4.91981 32.6608 5.25919 31.8123L10.4259 18.8957C10.622 18.4053 11.097 18.0837 11.6251 18.0837H23.2501C23.3157 18.0837 23.3801 18.0886 23.4431 18.098C29.5253 11.1642 38.5556 6.91588 48.4927 7.25854C50.0702 7.31294 51.6416 7.48456 53.1937 7.77199C53.7196 7.86939 54.1311 8.2809 54.2285 8.80686C56.3483 20.2535 52.0601 31.4029 43.9032 38.5621C43.9122 38.6236 43.9168 38.6864 43.9168 38.7504V50.3754C43.9168 50.9036 43.5952 51.3785 43.1049 51.5747L30.1882 56.7413C29.3397 57.0807 28.4168 56.4559 28.4168 55.5421V45.9706C26.9619 46.2258 25.4909 46.3794 24.0144 46.4303L23.1289 46.4608ZM20.6345 45.7114L16.2891 41.366C14.3865 41.6125 12.9168 43.239 12.9168 45.2087V49.0837H16.7918C18.7615 49.0837 20.388 47.614 20.6345 45.7114ZM31.0001 45.4077V53.6342L41.3335 49.5009V40.5929C38.2797 42.7599 34.8011 44.4145 31.0001 45.4077ZM16.5872 31.0004C17.572 27.2326 19.2268 23.745 21.4127 20.6671H12.4996L8.3663 31.0004H16.5872ZM22.4749 43.8985L23.9254 43.8485C25.375 43.7985 26.8189 43.6408 28.2451 43.3767C43.8398 40.4888 54.2391 25.7303 51.8386 10.1623C50.7012 9.98755 49.5542 9.88001 48.4036 9.84034C32.2531 9.28342 18.709 21.9246 18.1521 38.0751L18.102 39.5256L22.4749 43.8985ZM36.1668 33.5837C31.8866 33.5837 28.4168 30.1139 28.4168 25.8337C28.4168 21.5535 31.8866 18.0837 36.1668 18.0837C40.447 18.0837 43.9168 21.5535 43.9168 25.8337C43.9168 30.1139 40.447 33.5837 36.1668 33.5837ZM36.1668 31.0004C39.0203 31.0004 41.3335 28.6872 41.3335 25.8337C41.3335 22.9803 39.0203 20.6671 36.1668 20.6671C33.3133 20.6671 31.0001 22.9803 31.0001 25.8337C31.0001 28.6872 33.3133 31.0004 36.1668 31.0004Z" fill="#F87171"/>
</svg>
