<svg width="60" height="33" viewBox="0 0 60 33" fill="none" xmlns="http://www.w3.org/2000/svg">
<g clip-path="url(#clip0_365_455)">
<path d="M0.991404 27.4128C-0.307425 28.6641 -0.336721 30.7254 0.927927 32.0156C2.18769 33.3057 4.26289 33.3348 5.56172 32.0786L19.0627 18.9931L30.3518 29.8136C31.6555 31.0601 33.7307 31.0213 34.9855 29.7263L53.4279 11.1893V20.5354C53.4279 22.3396 54.8977 23.7995 56.7141 23.7995C58.5305 23.7995 60.0002 22.3396 60.0002 20.5354V3.25453H59.9904C59.9904 2.41062 59.6633 1.57155 59.0139 0.936191C58.3254 0.262029 57.4074 -0.0483768 56.509 0.00982431H40.2346C38.4182 0.00982431 36.9484 1.4697 36.9484 3.27393C36.9484 5.07817 38.4182 6.53804 40.2346 6.53804H48.843L32.5686 22.8925L21.3234 12.1108C20.0539 10.8983 18.0373 10.8934 16.7678 12.1253L0.991404 27.4128Z" fill="#4ADE80"/>
</g>
<defs>
<clipPath id="clip0_365_455">
<rect width="60" height="33" fill="white"/>
</clipPath>
</defs>
</svg>
