<svg width="64" height="64" viewBox="0 0 64 64" fill="none" xmlns="http://www.w3.org/2000/svg">
<path d="M23.8748 47.9594C23.273 51.0227 20.573 53.3336 17.3333 53.3336H12C11.2636 53.3336 10.6667 52.7367 10.6667 52.0003V46.6669C10.6667 43.4272 12.9776 40.7273 16.0409 40.1255L16.0724 39.2113C16.1257 37.6657 16.2849 36.1486 16.5427 34.6669H6.66668C5.72339 34.6669 5.07838 33.7142 5.42871 32.8384L10.762 19.5051C10.9645 18.9989 11.4548 18.6669 12 18.6669H24C24.0677 18.6669 24.1342 18.672 24.1992 18.6817C30.4776 11.5242 39.7993 7.13885 50.0568 7.49256C51.6853 7.54871 53.3073 7.72587 54.9095 8.02257C55.4524 8.12312 55.8772 8.5479 55.9777 9.09083C58.1658 20.9067 53.7394 32.4158 45.3193 39.8059C45.3285 39.8694 45.3333 39.9343 45.3333 40.0003V52.0003C45.3333 52.5455 45.0014 53.0358 44.4952 53.2383L31.1619 58.5716C30.286 58.9219 29.3333 58.2769 29.3333 57.3336V47.4534C27.8315 47.7168 26.3131 47.8753 24.789 47.9279L23.8748 47.9594ZM21.3 47.1859L16.8144 42.7003C14.8504 42.9547 13.3333 44.6337 13.3333 46.6669V50.667H17.3333C19.3666 50.667 21.0456 49.1499 21.3 47.1859ZM32 46.8723V55.3642L42.6667 51.0976V41.9022C39.5144 44.1392 35.9236 45.8471 32 46.8723ZM17.1221 32.0003C18.1387 28.1109 19.8469 24.5108 22.1033 21.3336H12.9027L8.63606 32.0003H17.1221ZM23.1998 45.3144L24.6971 45.2628C26.1934 45.2112 27.6838 45.0484 29.1561 44.7758C45.2539 41.7947 55.9886 26.5602 53.5106 10.49C52.3366 10.3096 51.1526 10.1986 49.9649 10.1576C33.2934 9.58276 19.3124 22.6317 18.7375 39.3032L18.6859 40.8005L23.1998 45.3144ZM37.3333 34.6669C32.9151 34.6669 29.3333 31.0852 29.3333 26.6669C29.3333 22.2487 32.9151 18.6669 37.3333 18.6669C41.7516 18.6669 45.3333 22.2487 45.3333 26.6669C45.3333 31.0852 41.7516 34.6669 37.3333 34.6669ZM37.3333 32.0003C40.2789 32.0003 42.6667 29.6125 42.6667 26.6669C42.6667 23.7214 40.2789 21.3336 37.3333 21.3336C34.3878 21.3336 32 23.7214 32 26.6669C32 29.6125 34.3878 32.0003 37.3333 32.0003Z" fill="#C084FC"/>
</svg>
