<svg width="64" height="64" viewBox="0 0 64 64" fill="none" xmlns="http://www.w3.org/2000/svg">
<path d="M41.8308 35.2179C40.8442 35.2209 39.8603 35.1135 38.8975 34.8979C39.4587 36.1106 39.8878 37.3801 40.1775 38.6846C40.7108 38.6846 41.2619 38.6846 41.8308 38.6846C43.6438 38.6818 45.4445 38.3876 47.1641 37.8135L45.5108 34.5957C44.3184 34.9708 43.0802 35.1802 41.8308 35.2179Z" fill="#60A5FA"/>
<path d="M32.6393 31.7687L31.9993 31.0932C30.6113 29.7361 29.5408 28.0887 28.8646 26.2691C28.1884 24.4496 27.9232 22.5029 28.0882 20.5687C28.2697 17.978 29.2233 15.5012 30.8259 13.4576L30.6837 15.9998C30.6819 16.4449 30.8471 16.8744 31.1466 17.2036C31.4462 17.5327 31.8583 17.7376 32.3015 17.7776H32.4615C32.9065 17.7794 33.3361 17.6142 33.6652 17.3147C33.9944 17.0152 34.1992 16.6031 34.2393 16.1598L34.8437 8.88873C34.865 8.63123 34.8299 8.37218 34.7409 8.12963C34.6518 7.88708 34.511 7.66685 34.3282 7.48428C34.1336 7.32664 33.9079 7.21189 33.6658 7.14756C33.4238 7.08322 33.1709 7.07074 32.9237 7.11095L25.6526 7.73317C25.1811 7.77325 24.7449 7.99898 24.4398 8.36072C24.1347 8.72246 23.9859 9.19056 24.0259 9.66206C24.066 10.1336 24.2918 10.5698 24.6535 10.8749C25.0152 11.1799 25.4833 11.3288 25.9548 11.2887L28.2482 11.0932C26.0886 13.7954 24.8159 17.0983 24.6037 20.5509C24.42 22.9171 24.749 25.295 25.5682 27.5224C26.3873 29.7498 27.6774 31.7743 29.3504 33.4576L29.9015 34.1154C32.1732 36.4631 33.4803 39.5785 33.5637 42.8443C33.6585 44.3236 33.5022 45.8082 33.1015 47.2354L36.3015 48.8532C36.9899 46.8492 37.2621 44.7259 37.1015 42.6132C36.9923 38.5739 35.4046 34.7151 32.6393 31.7687Z" fill="#60A5FA"/>
<path d="M57.5993 31.84L55.4482 32C57.4111 29.4595 58.6217 26.4191 58.9424 23.2247C59.2631 20.0303 58.681 16.81 57.2623 13.93C55.8436 11.05 53.6452 8.6259 50.9172 6.93331C48.1891 5.24073 45.0409 4.34762 41.8304 4.35552C40.017 4.35239 38.2153 4.64666 36.4971 5.22663L38.1148 8.42663C40.1444 7.85184 42.2797 7.75576 44.3527 8.14595C46.4257 8.53613 48.3799 9.40195 50.0616 10.6753C51.7433 11.9486 53.1066 13.5948 54.0444 15.4843C54.9822 17.3737 55.4688 19.455 55.466 21.5644C55.4654 24.6127 54.4313 27.5708 52.5326 29.9555L52.7104 27.2177C52.7256 26.9843 52.6946 26.7501 52.6193 26.5286C52.544 26.3071 52.4258 26.1026 52.2714 25.9268C52.1171 25.751 51.9296 25.6073 51.7197 25.504C51.5098 25.4006 51.2816 25.3396 51.0482 25.3244C50.8147 25.3092 50.5806 25.3402 50.3591 25.4155C50.1376 25.4908 49.9331 25.609 49.7573 25.7634C49.5814 25.9177 49.4378 26.1052 49.3344 26.3151C49.231 26.525 49.17 26.7532 49.1548 26.9866L48.6571 34.24C48.643 34.4972 48.6849 34.7545 48.7801 34.9939C48.8753 35.2334 49.0213 35.4492 49.2082 35.6266C49.368 35.7888 49.5592 35.9166 49.7701 36.0022C49.9811 36.0878 50.2073 36.1294 50.4348 36.1244H50.6126L57.866 35.3777C58.0999 35.3555 58.327 35.2872 58.5344 35.1766C58.7417 35.0661 58.9251 34.9155 59.0738 34.7337C59.2226 34.5518 59.3339 34.3423 59.4012 34.1172C59.4685 33.8921 59.4905 33.6559 59.466 33.4222C59.4166 32.9696 59.1955 32.5532 58.8482 32.2588C58.5009 31.9644 58.0539 31.8145 57.5993 31.84Z" fill="#60A5FA"/>
<path d="M7.23563 36.3382H7.37785L14.649 35.716C14.8824 35.6961 15.1097 35.6305 15.3178 35.5228C15.5259 35.4151 15.7107 35.2675 15.8618 35.0884C16.0128 34.9093 16.1271 34.7022 16.1981 34.4789C16.2691 34.2556 16.2955 34.0205 16.2756 33.7871C16.2558 33.5536 16.1901 33.3263 16.0825 33.1182C15.9748 32.9101 15.8272 32.7253 15.6481 32.5742C15.469 32.4232 15.2618 32.3089 15.0386 32.2379C14.8153 32.1669 14.5802 32.1406 14.3467 32.1604L11.8756 32.3737C14.2032 30.6566 17.0188 29.7285 19.9112 29.7248C20.8856 29.7307 21.8567 29.8379 22.809 30.0448C22.2506 28.8328 21.8273 27.5629 21.5467 26.2582C21.0134 26.2582 20.4623 26.2582 19.9112 26.2582C16.1182 26.2525 12.43 27.5027 9.42229 29.8137L9.63563 27.4848C9.65507 27.2512 9.62811 27.0161 9.55632 26.7929C9.48452 26.5698 9.36931 26.363 9.21729 26.1846C9.06528 26.0061 8.87948 25.8595 8.67058 25.7531C8.46167 25.6468 8.2338 25.5828 8.00007 25.5648C7.53107 25.5254 7.06559 25.6736 6.70567 25.9769C6.34575 26.2801 6.12077 26.7137 6.08007 27.1826L5.45785 34.436C5.43817 34.6811 5.46957 34.9277 5.55006 35.16C5.63055 35.3924 5.75838 35.6056 5.92546 35.786C6.09255 35.9665 6.29526 36.1103 6.52077 36.2084C6.74628 36.3065 6.9897 36.3567 7.23563 36.356V36.3382Z" fill="#60A5FA"/>
<path d="M32.7464 50.1869L25.4753 50.6669C25.0038 50.6976 24.5638 50.9143 24.252 51.2693C23.9403 51.6244 23.7824 52.0888 23.8131 52.5603C23.8437 53.0318 24.0604 53.4718 24.4155 53.7835C24.7705 54.0952 25.2349 54.2531 25.7064 54.2225L28.4442 54.0269C26.4308 55.6451 24.0011 56.6614 21.4352 56.9588C18.8694 57.2561 16.2717 56.8223 13.9416 55.7075C11.6115 54.5926 9.64388 52.842 8.26549 50.6574C6.88709 48.4729 6.15405 45.9433 6.15084 43.3603C6.16364 42.1574 6.33703 40.9617 6.66639 39.8047L3.55528 38.1514C3.00454 39.8451 2.7226 41.6148 2.71973 43.3958C2.74058 46.6154 3.66238 49.7649 5.38074 52.4876C7.0991 55.2104 9.54541 57.3977 12.4427 58.802C15.34 60.2062 18.5726 60.7713 21.7744 60.4332C24.9763 60.0952 28.0196 58.8675 30.5597 56.8891L30.3464 58.9869C30.3218 59.2192 30.3431 59.4541 30.4093 59.6782C30.4755 59.9022 30.5853 60.111 30.7322 60.2926C30.8791 60.4743 31.0604 60.6251 31.2657 60.7366C31.471 60.8481 31.6963 60.9181 31.9286 60.9425H32.1242C32.5664 60.9447 32.9936 60.782 33.3223 60.4861C33.6511 60.1903 33.8577 59.7825 33.9019 59.3425L34.6486 52.1247C34.675 51.8675 34.645 51.6076 34.5607 51.3632C34.4763 51.1188 34.3397 50.8957 34.1603 50.7095C33.9809 50.5234 33.763 50.3786 33.5219 50.2852C33.2808 50.1919 33.0222 50.1523 32.7642 50.1691L32.7464 50.1869Z" fill="#60A5FA"/>
</svg>
