<svg width="49" height="54" viewBox="0 0 49 54" fill="none" xmlns="http://www.w3.org/2000/svg">
<g clip-path="url(#clip0_301_414)">
<path d="M36.22 32.3062C38.8308 32.3062 41.1991 33.3688 42.9138 35.077C44.629 36.7926 45.685 39.1538 45.685 41.7717C45.685 43.6816 45.1155 45.4657 44.143 46.9516L48.2405 51.4173L45.4139 54L41.4623 49.6533C39.9624 50.6531 38.1572 51.2363 36.2196 51.2363C33.6088 51.2363 31.2405 50.1745 29.5253 48.4655C27.8101 46.7507 26.7541 44.3895 26.7541 41.7717C26.7541 39.1609 27.8167 36.7926 29.5253 35.077C31.241 33.3618 33.6017 32.3062 36.22 32.3062ZM12.6779 34.9394C11.98 34.9394 11.414 34.3602 11.414 33.6624C11.414 32.9518 11.9805 32.3862 12.6779 32.3862H20.919C21.6169 32.3862 22.1829 32.9645 22.1829 33.6624C22.1829 34.3739 21.6169 34.9394 20.919 34.9394H12.6779ZM12.6779 16.9828C11.98 16.9828 11.414 16.4168 11.414 15.7189C11.414 15.0215 11.9805 14.4555 12.6779 14.4555H29.397C30.0949 14.4555 30.6609 15.0215 30.6609 15.7189C30.6609 16.4168 30.0949 16.9828 29.397 16.9828H12.6779ZM22.6122 46.8408C23.3101 46.8408 23.8761 47.4064 23.8761 48.1042C23.8761 48.8021 23.3101 49.3686 22.6122 49.3686H2.94919C2.13312 49.3686 1.39571 49.039 0.869245 48.4989C0.329153 47.9729 0 47.2354 0 46.4194V2.94875C0 2.13268 0.329153 1.39527 0.869245 0.868806C1.4089 0.329153 2.13312 0 2.94919 0H39.113C39.929 0 40.6664 0.329153 41.1929 0.869245C41.7326 1.4089 42.0617 2.13268 42.0617 2.94919V28.6012C42.0617 29.299 41.4957 29.8655 40.7978 29.8655C40.1004 29.8655 39.534 29.299 39.534 28.6012V2.94875C39.534 2.8301 39.4817 2.73825 39.4153 2.65915C39.3362 2.58005 39.2312 2.5405 39.1261 2.5405H2.96238C2.84372 2.5405 2.75188 2.59323 2.67278 2.65915C2.59367 2.73825 2.55412 2.84328 2.55412 2.94875V46.4189C2.55412 46.5376 2.60686 46.6294 2.67278 46.7081C2.75188 46.7872 2.85691 46.8267 2.96238 46.8267H22.6254L22.6122 46.8408ZM12.6779 25.9609C11.98 25.9609 11.414 25.3949 11.414 24.6975C11.414 23.9996 11.9805 23.4336 12.6779 23.4336H29.397C30.0949 23.4336 30.6609 23.9996 30.6609 24.6975C30.6609 25.3949 30.0949 25.9609 29.397 25.9609H12.6779ZM41.6653 36.3255C40.2723 34.9324 38.3448 34.0671 36.22 34.0671C34.0948 34.0671 32.1674 34.9324 30.7743 36.3255C29.3808 37.7194 28.5155 39.6465 28.5155 41.7717C28.5155 43.896 29.3808 45.8239 30.7743 47.217C32.1674 48.6101 34.0948 49.4754 36.22 49.4754C38.3448 49.4754 40.2723 48.6101 41.6653 47.217C43.0588 45.8239 43.9241 43.896 43.9241 41.7717C43.9237 39.6465 43.0584 37.7194 41.6653 36.3255Z" fill="#EAB308"/>
</g>
<defs>
<clipPath id="clip0_301_414">
<rect width="48.2405" height="54" fill="white"/>
</clipPath>
</defs>
</svg>
