<svg width="616" height="616" viewBox="0 0 616 616" fill="none" xmlns="http://www.w3.org/2000/svg">

<path d="M297.08 310.96C297.08 317.52 295.6 323.32 292.64 328.36C289.76 333.32 285.84 337.2 280.88 340C276 342.8 270.52 344.2 264.44 344.2C258.36 344.2 252.84 342.8 247.88 340C243 337.2 239.08 333.32 236.12 328.36C233.24 323.32 231.8 317.52 231.8 310.96C231.8 304.4 233.24 298.64 236.12 293.68C239.08 288.64 243 284.72 247.88 281.92C252.84 279.04 258.36 277.6 264.44 277.6C270.52 277.6 276 279.04 280.88 281.92C285.84 284.72 289.76 288.64 292.64 293.68C295.6 298.64 297.08 304.4 297.08 310.96ZM282.68 310.96C282.68 306.88 281.84 303.36 280.16 300.4C278.56 297.36 276.36 295 273.56 293.32C270.84 291.64 267.8 290.8 264.44 290.8C261.08 290.8 258 291.64 255.2 293.32C252.48 295 250.28 297.36 248.6 300.4C247 303.36 246.2 306.88 246.2 310.96C246.2 314.96 247 318.48 248.6 321.52C250.28 324.48 252.48 326.8 255.2 328.48C258 330.16 261.08 331 264.44 331C267.8 331 270.84 330.16 273.56 328.48C276.36 326.8 278.56 324.48 280.16 321.52C281.84 318.48 282.68 314.96 282.68 310.96ZM311.977 278.8C313.497 278.8 314.897 279.2 316.177 280C317.457 280.72 318.417 281.84 319.057 283.36L336.697 323.68L334.057 324.88L352.057 283.48C353.417 280.28 355.537 278.76 358.417 278.92C360.417 278.92 362.017 279.56 363.217 280.84C364.497 282.04 365.137 283.56 365.137 285.4C365.137 285.96 365.017 286.56 364.777 287.2C364.617 287.84 364.417 288.44 364.177 289L341.737 338.44C340.457 341.32 338.417 342.84 335.617 343C334.097 343.24 332.617 342.96 331.177 342.16C329.817 341.36 328.777 340.12 328.057 338.44L305.737 289C305.577 288.6 305.377 288.08 305.137 287.44C304.977 286.8 304.897 286.04 304.897 285.16C304.897 283.72 305.537 282.32 306.817 280.96C308.097 279.52 309.817 278.8 311.977 278.8ZM390.04 335.68C390.04 337.76 389.36 339.52 388 340.96C386.64 342.32 384.92 343 382.84 343C380.76 343 379.04 342.32 377.68 340.96C376.32 339.52 375.64 337.76 375.64 335.68V286.12C375.64 284.04 376.32 282.32 377.68 280.96C379.04 279.52 380.76 278.8 382.84 278.8C384.92 278.8 386.64 279.52 388 280.96C389.36 282.32 390.04 284.04 390.04 286.12V335.68ZM382.72 271C380 271 378.08 270.56 376.96 269.68C375.84 268.8 375.28 267.24 375.28 265V262.72C375.28 260.4 375.88 258.84 377.08 258.04C378.36 257.16 380.28 256.72 382.84 256.72C385.64 256.72 387.6 257.16 388.72 258.04C389.84 258.92 390.4 260.48 390.4 262.72V265C390.4 267.32 389.8 268.92 388.6 269.8C387.4 270.6 385.44 271 382.72 271ZM467.119 310.96C467.119 317.52 465.639 323.32 462.679 328.36C459.799 333.32 455.879 337.2 450.919 340C446.039 342.8 440.559 344.2 434.479 344.2C428.399 344.2 422.879 342.8 417.919 340C413.039 337.2 409.119 333.32 406.159 328.36C403.279 323.32 401.839 317.52 401.839 310.96C401.839 304.4 403.279 298.64 406.159 293.68C409.119 288.64 413.039 284.72 417.919 281.92C422.879 279.04 428.399 277.6 434.479 277.6C440.559 277.6 446.039 279.04 450.919 281.92C455.879 284.72 459.799 288.64 462.679 293.68C465.639 298.64 467.119 304.4 467.119 310.96ZM452.719 310.96C452.719 306.88 451.879 303.36 450.199 300.4C448.599 297.36 446.399 295 443.599 293.32C440.879 291.64 437.839 290.8 434.479 290.8C431.119 290.8 428.039 291.64 425.239 293.32C422.519 295 420.319 297.36 418.639 300.4C417.039 303.36 416.239 306.88 416.239 310.96C416.239 314.96 417.039 318.48 418.639 321.52C420.319 324.48 422.519 326.8 425.239 328.48C428.039 330.16 431.119 331 434.479 331C437.839 331 440.879 330.16 443.599 328.48C446.399 326.8 448.599 324.48 450.199 321.52C451.879 318.48 452.719 314.96 452.719 310.96Z" fill="#3F3A57" data-index="1" style="opacity: 1; fill: rgb(63, 58, 87); stroke: rgb(63, 58, 87);"></path>
<path d="M142 266.5C142 262.91 144.91 260 148.5 260H167.561C172.652 260 176.93 263.824 177.499 268.883L183.901 325.813C184.242 328.848 186.809 331.143 189.863 331.143H217.098C219.85 331.143 222.249 333.015 222.918 335.685L225 344H183.299C177.16 344 172.01 339.366 171.366 333.261L165.756 280.16C165.326 276.089 161.894 273 157.801 273H148.5C144.91 273 142 270.09 142 266.5V266.5Z" fill="#FF448C" data-index="2" style="fill: rgb(255, 68, 140); stroke: rgb(255, 68, 140);"></path>
<path d="M180.5 296L183.894 325.821C184.239 328.853 186.805 331.143 189.856 331.143H217.098C219.85 331.143 222.249 333.015 222.918 335.685L225 344H183.303C177.162 344 172.012 339.364 171.369 333.256L169.227 312.904C168.773 308.59 170.5 304.333 173.833 301.556L180.5 296Z" fill="url(#paint0_linear_2876_590)" data-index="3"></path>
<rect x="219.996" y="363.847" width="12" height="12" rx="6" transform="rotate(180 219.996 363.847)" fill="url(#paint1_linear_2876_590)"></rect>
<rect x="190" y="364.154" width="12" height="12" rx="6" transform="rotate(180 190 364.154)" fill="url(#paint2_linear_2876_590)"></rect>
<defs>
<linearGradient id="paint0_linear_2876_590" x1="171.5" y1="304.5" x2="211" y2="344" gradientUnits="userSpaceOnUse">
<stop stop-color="#F9659E"></stop>
<stop offset="1" stop-color="#0578FF"></stop>
</linearGradient>
<linearGradient id="paint1_linear_2876_590" x1="225.996" y1="363.847" x2="225.996" y2="375.847" gradientUnits="userSpaceOnUse">
<stop stop-color="#1877F8"></stop>
<stop offset="1" stop-color="#FF448C"></stop>
</linearGradient>
<linearGradient id="paint2_linear_2876_590" x1="196" y1="364.154" x2="196" y2="376.154" gradientUnits="userSpaceOnUse">
<stop stop-color="#1877F8"></stop>
<stop offset="1" stop-color="#FF448C"></stop>
</linearGradient>
</defs>
</svg>