<svg width="198" height="50" viewBox="0 0 198 50" fill="none" xmlns="http://www.w3.org/2000/svg">
<path d="M43.1698 34.1421C40.413 36.899 36.9105 38.79 33.0931 39.5825C29.2757 40.375 25.3099 40.0344 21.6835 38.6027C18.0571 37.1711 14.9282 34.7107 12.6817 31.5242C10.4352 28.3377 9.16897 24.5641 9.03885 20.6675C8.90874 16.7709 9.92036 12.9212 11.9493 9.59192C13.9783 6.26267 16.936 3.59903 20.4589 1.92862C23.9817 0.258214 27.9159 -0.346117 31.7777 0.18996C35.6394 0.726036 39.2603 2.37914 42.1949 4.94595L37.4138 10.4122C35.5448 8.7774 33.2387 7.72455 30.7791 7.38313C28.3196 7.0417 25.8139 7.4266 23.5703 8.49047C21.3266 9.55434 19.4428 11.2508 18.1506 13.3712C16.8584 15.4915 16.2141 17.9434 16.2969 20.4251C16.3798 22.9068 17.1862 25.3102 18.617 27.3397C20.0478 29.3691 22.0406 30.9361 24.3502 31.848C26.6599 32.7598 29.1856 32.9767 31.6169 32.4719C34.0482 31.9672 36.2789 30.7628 38.0347 29.007L43.1698 34.1421Z" fill="#00B8FF"/>
<circle cx="29.1625" cy="20.1341" r="4.375" fill="#00B8FF"/>
<mask id="path-3-inside-1_1327_860" fill="white">
<path d="M53.1471 30.7368C51.8813 30.7368 50.7237 30.5087 49.6744 30.0526C48.6251 29.5965 47.8422 29.3421 47.0761 28.5C46.3945 27.7508 45.4608 26.1579 45.0277 25C44.6113 23.8245 44.5277 22.6228 44.5277 21.2368C44.5277 19.9035 44.7526 18.6667 45.2023 17.5263C45.652 16.386 46.2766 15.386 47.0761 14.5263C47.8755 13.6667 48.8083 13 49.8743 12.5263C50.9402 12.0526 52.0978 11.8158 53.347 11.8158C54.1965 11.8158 55.0209 11.9474 55.8204 12.2105C56.6199 12.4737 57.3527 12.8421 58.019 13.3158C58.6853 13.7719 59.2432 14.307 59.6929 14.9211L57.6192 17.3158C57.1862 16.8421 56.7365 16.4474 56.2701 16.1316C55.8204 15.7982 55.3457 15.5526 54.846 15.3947C54.3631 15.2193 53.8634 15.1316 53.347 15.1316C52.5808 15.1316 51.8563 15.2807 51.1734 15.579C50.5072 15.8772 49.9242 16.2982 49.4245 16.8421C48.9415 17.386 48.5584 18.0351 48.2753 18.7895C47.9921 19.5263 47.8506 20.3509 47.8506 21.2632C47.8506 22.193 47.9838 23.0351 48.2503 23.7895C48.5334 24.5439 48.9249 25.193 49.4245 25.7368C49.9409 26.2807 50.5488 26.7018 51.2484 27C51.9646 27.2807 52.7474 27.4211 53.5968 27.4211C54.1465 27.4211 54.6794 27.3421 55.1958 27.1842C55.7122 27.0263 56.1869 26.8071 56.6199 26.5263C57.0696 26.2281 58.6612 25.386 59.0277 25L61.0277 27.4737C60.628 27.9474 58.5104 29.114 57.8441 29.5C57.1778 29.886 56.4283 30.193 55.5956 30.4211C54.7794 30.6316 53.9633 30.7368 53.1471 30.7368ZM70.3508 30.7368C69.1016 30.7368 67.9441 30.5 66.8781 30.0263C65.8121 29.5526 64.8793 28.8947 64.0799 28.0526C63.2971 27.193 62.6892 26.6579 62.256 25.5C61.823 24.3421 61.6065 22.6053 61.6065 21.2368C61.6065 19.8684 61.823 18.6053 62.256 17.4474C62.6892 16.2895 63.2971 15.2895 64.0799 14.4474C64.8793 13.5877 65.8121 12.9211 66.8781 12.4474C67.9441 11.9737 69.1016 11.7368 70.3508 11.7368C71.6167 11.7368 72.7826 11.9737 73.8485 12.4474C74.9146 12.9211 75.839 13.5877 76.6218 14.4474C77.4047 15.307 78.0126 16.3158 78.4456 17.4737C78.8787 18.614 79.0952 19.8684 79.0952 21.2368C79.0952 22.5877 78.8787 23.8421 78.4456 25C78.0126 26.1579 77.4047 27.1666 76.6218 28.0263C75.839 28.886 74.9146 29.5526 73.8485 30.0263C72.7826 30.5 71.6167 30.7368 70.3508 30.7368ZM70.3508 27.4737C71.1503 27.4737 71.8748 27.3245 72.5244 27.0263C73.1907 26.7105 73.7653 26.2719 74.2483 25.7105C74.7314 25.1316 75.1061 24.465 75.3726 23.7105C75.6558 22.9561 75.7973 22.1316 75.7973 21.2368C75.7973 20.3421 75.6558 19.5176 75.3726 18.7632C75.1061 18.0088 74.7314 17.3509 74.2483 16.7895C73.7653 16.2105 73.1907 15.7719 72.5244 15.4737C71.8748 15.1579 71.1503 15 70.3508 15C69.568 15 68.8435 15.1579 68.1772 15.4737C67.511 15.7719 66.9364 16.2018 66.4533 16.7632C65.9703 17.3246 65.5956 17.9825 65.3291 18.7368C65.0626 19.4912 64.9293 20.3246 64.9293 21.2368C64.9293 22.1316 65.0626 22.965 65.3291 23.7368C65.5956 24.4913 65.9703 25.1492 66.4533 25.7105C66.9364 26.2719 67.511 26.7105 68.1772 27.0263C68.8435 27.3245 69.568 27.4737 70.3508 27.4737ZM82.0277 30.5L82.6172 12.0526H89.6376C90.9034 12.0526 92.0444 12.2719 93.0604 12.7105C94.0931 13.1491 94.9758 13.7807 95.7087 14.6053C96.4582 15.4298 97.0245 16.4035 97.4076 17.5263C97.8074 18.6491 98.0072 19.8947 98.0072 21.2632C98.0072 22.6316 97.8074 23.886 97.4076 25.0263C97.0245 26.1492 96.4665 27.1228 95.7337 27.9474C95.0008 28.7544 94.118 29.3772 93.0854 29.8158C92.0527 30.2544 90.9034 30.4737 89.6376 30.4737L82.0277 30.5ZM85.8651 27.8158L85.6152 27.3158H89.5127C90.3288 27.3158 91.0533 27.1755 91.6863 26.8947C92.3359 26.614 92.8855 26.2105 93.3352 25.6842C93.785 25.1579 94.1263 24.5263 94.3596 23.7895C94.5927 23.0351 94.7094 22.193 94.7094 21.2632C94.7094 20.3333 94.5927 19.5 94.3596 18.7632C94.1263 18.0088 93.7766 17.3684 93.3103 16.8421C92.8606 16.3158 92.3192 15.9123 91.6863 15.6316C91.0533 15.3509 90.3288 15.2105 89.5127 15.2105H85.5403L85.8651 14.7632V27.8158ZM101.028 30.4737L101.526 12.0526H112.968V15.1579H104.724V27.3684H113.068V30.4737H101.028ZM103.025 22.579V19.5263H111.694V22.579H103.025ZM120.028 30.4737L117.028 21.2368L115.217 12.0526H118.615L121.713 22.9211C121.813 23.2544 121.904 23.6228 121.988 24.0263C122.071 24.4298 122.146 24.8334 122.212 25.2368C122.279 25.6228 122.337 25.9824 122.387 26.3158C122.437 26.6492 122.487 26.9298 122.537 27.1579L121.863 27.1316C122.063 26.3071 122.221 25.6403 122.337 25.1316C122.454 24.6228 122.554 24.2018 122.637 23.8684C122.737 23.5176 122.837 23.193 122.937 22.8947L125.885 14.9474H128.658L131.531 22.8947C131.698 23.386 131.848 23.8597 131.981 24.3158C132.114 24.7544 132.223 25.193 132.306 25.6316C132.406 26.0526 132.497 26.4913 132.581 26.9474L131.981 27.079C132.048 26.6579 132.098 26.3158 132.131 26.0526C132.164 25.7895 132.198 25.5526 132.231 25.3421C132.264 25.1316 132.298 24.9298 132.331 24.7368C132.364 24.5263 132.414 24.2807 132.481 24C132.564 23.7018 132.664 23.3245 132.781 22.8684L135.854 12.0526H139.226L134.528 30.4737H130.528L128.028 25L126.959 19.2632L127.259 19.3684L123.528 30.4737H120.028ZM149.426 30.7368C148.177 30.7368 147.018 30.5 145.953 30.0263C144.887 29.5526 143.954 28.8947 143.155 28.0526C142.372 27.193 141.764 26.3947 141.331 25.2368C140.898 24.079 140.681 22.6053 140.681 21.2368C140.681 19.8684 140.898 18.6053 141.331 17.4474C141.764 16.2895 142.372 15.2895 143.155 14.4474C143.954 13.5877 144.887 12.9211 145.953 12.4474C147.018 11.9737 148.177 11.7368 149.426 11.7368C150.691 11.7368 151.857 11.9737 152.924 12.4474C153.989 12.9211 154.913 13.5877 155.697 14.4474C156.479 15.307 157.087 16.3158 157.521 17.4737C157.953 18.614 158.17 19.8684 158.17 21.2368C158.17 22.5877 157.953 23.8421 157.521 25C157.087 26.1579 156.479 27.1666 155.697 28.0263C154.913 28.886 153.989 29.5526 152.924 30.0263C151.857 30.5 150.691 30.7368 149.426 30.7368ZM149.426 27.4737C150.225 27.4737 150.95 27.3245 151.599 27.0263C152.265 26.7105 152.84 26.2719 153.323 25.7105C153.806 25.1316 154.181 24.465 154.448 23.7105C154.73 22.9561 154.872 22.1316 154.872 21.2368C154.872 20.3421 154.73 19.5176 154.448 18.7632C154.181 18.0088 153.806 17.3509 153.323 16.7895C152.84 16.2105 152.265 15.7719 151.599 15.4737C150.95 15.1579 150.225 15 149.426 15C148.642 15 147.918 15.1579 147.252 15.4737C146.586 15.7719 146.011 16.2018 145.528 16.7632C145.045 17.3246 144.67 17.9825 144.404 18.7368C144.137 19.4912 144.004 20.3246 144.004 21.2368C144.004 22.1316 144.137 22.965 144.404 23.7368C144.67 24.4913 145.045 25.1492 145.528 25.7105C146.011 26.2719 146.586 26.7105 147.252 27.0263C147.918 27.3245 148.642 27.4737 149.426 27.4737ZM161.692 30.4737V12.0526H169.287C170.336 12.0526 171.294 12.3158 172.16 12.8421C173.027 13.3509 173.709 14.0526 174.209 14.9474C174.726 15.8246 174.983 16.8158 174.983 17.9211C174.983 18.9737 174.726 19.9474 174.209 20.8421C173.709 21.7193 173.027 22.4211 172.16 22.9474C171.311 23.4561 170.353 23.7105 169.287 23.7105H164.865V30.4737H161.692ZM171.835 30.4737L167.388 22.1579L170.736 21.5L177.028 30.4737H171.835ZM164.865 20.7368H169.312C169.795 20.7368 170.211 20.6228 170.561 20.3947C170.928 20.1491 171.211 19.8158 171.411 19.3947C171.611 18.9737 171.71 18.5088 171.71 18C171.71 17.4211 171.586 16.9211 171.336 16.5C171.086 16.079 170.736 15.7456 170.286 15.5C169.837 15.2544 169.32 15.1316 168.737 15.1316H164.865V20.7368ZM181.686 24.9737L181.186 21.579L190.181 12.0526H194.253L181.686 24.9737ZM178.028 30.5L179.113 12.0526H182.361L183.028 30.4737L178.028 30.5ZM190.58 30.4737L183.96 21.1842L186.258 19.1053L197.528 30.4737H190.58Z"/>
</mask>
<path d="M53.1471 30.7368C51.8813 30.7368 50.7237 30.5087 49.6744 30.0526C48.6251 29.5965 47.8422 29.3421 47.0761 28.5C46.3945 27.7508 45.4608 26.1579 45.0277 25C44.6113 23.8245 44.5277 22.6228 44.5277 21.2368C44.5277 19.9035 44.7526 18.6667 45.2023 17.5263C45.652 16.386 46.2766 15.386 47.0761 14.5263C47.8755 13.6667 48.8083 13 49.8743 12.5263C50.9402 12.0526 52.0978 11.8158 53.347 11.8158C54.1965 11.8158 55.0209 11.9474 55.8204 12.2105C56.6199 12.4737 57.3527 12.8421 58.019 13.3158C58.6853 13.7719 59.2432 14.307 59.6929 14.9211L57.6192 17.3158C57.1862 16.8421 56.7365 16.4474 56.2701 16.1316C55.8204 15.7982 55.3457 15.5526 54.846 15.3947C54.3631 15.2193 53.8634 15.1316 53.347 15.1316C52.5808 15.1316 51.8563 15.2807 51.1734 15.579C50.5072 15.8772 49.9242 16.2982 49.4245 16.8421C48.9415 17.386 48.5584 18.0351 48.2753 18.7895C47.9921 19.5263 47.8506 20.3509 47.8506 21.2632C47.8506 22.193 47.9838 23.0351 48.2503 23.7895C48.5334 24.5439 48.9249 25.193 49.4245 25.7368C49.9409 26.2807 50.5488 26.7018 51.2484 27C51.9646 27.2807 52.7474 27.4211 53.5968 27.4211C54.1465 27.4211 54.6794 27.3421 55.1958 27.1842C55.7122 27.0263 56.1869 26.8071 56.6199 26.5263C57.0696 26.2281 58.6612 25.386 59.0277 25L61.0277 27.4737C60.628 27.9474 58.5104 29.114 57.8441 29.5C57.1778 29.886 56.4283 30.193 55.5956 30.4211C54.7794 30.6316 53.9633 30.7368 53.1471 30.7368ZM70.3508 30.7368C69.1016 30.7368 67.9441 30.5 66.8781 30.0263C65.8121 29.5526 64.8793 28.8947 64.0799 28.0526C63.2971 27.193 62.6892 26.6579 62.256 25.5C61.823 24.3421 61.6065 22.6053 61.6065 21.2368C61.6065 19.8684 61.823 18.6053 62.256 17.4474C62.6892 16.2895 63.2971 15.2895 64.0799 14.4474C64.8793 13.5877 65.8121 12.9211 66.8781 12.4474C67.9441 11.9737 69.1016 11.7368 70.3508 11.7368C71.6167 11.7368 72.7826 11.9737 73.8485 12.4474C74.9146 12.9211 75.839 13.5877 76.6218 14.4474C77.4047 15.307 78.0126 16.3158 78.4456 17.4737C78.8787 18.614 79.0952 19.8684 79.0952 21.2368C79.0952 22.5877 78.8787 23.8421 78.4456 25C78.0126 26.1579 77.4047 27.1666 76.6218 28.0263C75.839 28.886 74.9146 29.5526 73.8485 30.0263C72.7826 30.5 71.6167 30.7368 70.3508 30.7368ZM70.3508 27.4737C71.1503 27.4737 71.8748 27.3245 72.5244 27.0263C73.1907 26.7105 73.7653 26.2719 74.2483 25.7105C74.7314 25.1316 75.1061 24.465 75.3726 23.7105C75.6558 22.9561 75.7973 22.1316 75.7973 21.2368C75.7973 20.3421 75.6558 19.5176 75.3726 18.7632C75.1061 18.0088 74.7314 17.3509 74.2483 16.7895C73.7653 16.2105 73.1907 15.7719 72.5244 15.4737C71.8748 15.1579 71.1503 15 70.3508 15C69.568 15 68.8435 15.1579 68.1772 15.4737C67.511 15.7719 66.9364 16.2018 66.4533 16.7632C65.9703 17.3246 65.5956 17.9825 65.3291 18.7368C65.0626 19.4912 64.9293 20.3246 64.9293 21.2368C64.9293 22.1316 65.0626 22.965 65.3291 23.7368C65.5956 24.4913 65.9703 25.1492 66.4533 25.7105C66.9364 26.2719 67.511 26.7105 68.1772 27.0263C68.8435 27.3245 69.568 27.4737 70.3508 27.4737ZM82.0277 30.5L82.6172 12.0526H89.6376C90.9034 12.0526 92.0444 12.2719 93.0604 12.7105C94.0931 13.1491 94.9758 13.7807 95.7087 14.6053C96.4582 15.4298 97.0245 16.4035 97.4076 17.5263C97.8074 18.6491 98.0072 19.8947 98.0072 21.2632C98.0072 22.6316 97.8074 23.886 97.4076 25.0263C97.0245 26.1492 96.4665 27.1228 95.7337 27.9474C95.0008 28.7544 94.118 29.3772 93.0854 29.8158C92.0527 30.2544 90.9034 30.4737 89.6376 30.4737L82.0277 30.5ZM85.8651 27.8158L85.6152 27.3158H89.5127C90.3288 27.3158 91.0533 27.1755 91.6863 26.8947C92.3359 26.614 92.8855 26.2105 93.3352 25.6842C93.785 25.1579 94.1263 24.5263 94.3596 23.7895C94.5927 23.0351 94.7094 22.193 94.7094 21.2632C94.7094 20.3333 94.5927 19.5 94.3596 18.7632C94.1263 18.0088 93.7766 17.3684 93.3103 16.8421C92.8606 16.3158 92.3192 15.9123 91.6863 15.6316C91.0533 15.3509 90.3288 15.2105 89.5127 15.2105H85.5403L85.8651 14.7632V27.8158ZM101.028 30.4737L101.526 12.0526H112.968V15.1579H104.724V27.3684H113.068V30.4737H101.028ZM103.025 22.579V19.5263H111.694V22.579H103.025ZM120.028 30.4737L117.028 21.2368L115.217 12.0526H118.615L121.713 22.9211C121.813 23.2544 121.904 23.6228 121.988 24.0263C122.071 24.4298 122.146 24.8334 122.212 25.2368C122.279 25.6228 122.337 25.9824 122.387 26.3158C122.437 26.6492 122.487 26.9298 122.537 27.1579L121.863 27.1316C122.063 26.3071 122.221 25.6403 122.337 25.1316C122.454 24.6228 122.554 24.2018 122.637 23.8684C122.737 23.5176 122.837 23.193 122.937 22.8947L125.885 14.9474H128.658L131.531 22.8947C131.698 23.386 131.848 23.8597 131.981 24.3158C132.114 24.7544 132.223 25.193 132.306 25.6316C132.406 26.0526 132.497 26.4913 132.581 26.9474L131.981 27.079C132.048 26.6579 132.098 26.3158 132.131 26.0526C132.164 25.7895 132.198 25.5526 132.231 25.3421C132.264 25.1316 132.298 24.9298 132.331 24.7368C132.364 24.5263 132.414 24.2807 132.481 24C132.564 23.7018 132.664 23.3245 132.781 22.8684L135.854 12.0526H139.226L134.528 30.4737H130.528L128.028 25L126.959 19.2632L127.259 19.3684L123.528 30.4737H120.028ZM149.426 30.7368C148.177 30.7368 147.018 30.5 145.953 30.0263C144.887 29.5526 143.954 28.8947 143.155 28.0526C142.372 27.193 141.764 26.3947 141.331 25.2368C140.898 24.079 140.681 22.6053 140.681 21.2368C140.681 19.8684 140.898 18.6053 141.331 17.4474C141.764 16.2895 142.372 15.2895 143.155 14.4474C143.954 13.5877 144.887 12.9211 145.953 12.4474C147.018 11.9737 148.177 11.7368 149.426 11.7368C150.691 11.7368 151.857 11.9737 152.924 12.4474C153.989 12.9211 154.913 13.5877 155.697 14.4474C156.479 15.307 157.087 16.3158 157.521 17.4737C157.953 18.614 158.17 19.8684 158.17 21.2368C158.17 22.5877 157.953 23.8421 157.521 25C157.087 26.1579 156.479 27.1666 155.697 28.0263C154.913 28.886 153.989 29.5526 152.924 30.0263C151.857 30.5 150.691 30.7368 149.426 30.7368ZM149.426 27.4737C150.225 27.4737 150.95 27.3245 151.599 27.0263C152.265 26.7105 152.84 26.2719 153.323 25.7105C153.806 25.1316 154.181 24.465 154.448 23.7105C154.73 22.9561 154.872 22.1316 154.872 21.2368C154.872 20.3421 154.73 19.5176 154.448 18.7632C154.181 18.0088 153.806 17.3509 153.323 16.7895C152.84 16.2105 152.265 15.7719 151.599 15.4737C150.95 15.1579 150.225 15 149.426 15C148.642 15 147.918 15.1579 147.252 15.4737C146.586 15.7719 146.011 16.2018 145.528 16.7632C145.045 17.3246 144.67 17.9825 144.404 18.7368C144.137 19.4912 144.004 20.3246 144.004 21.2368C144.004 22.1316 144.137 22.965 144.404 23.7368C144.67 24.4913 145.045 25.1492 145.528 25.7105C146.011 26.2719 146.586 26.7105 147.252 27.0263C147.918 27.3245 148.642 27.4737 149.426 27.4737ZM161.692 30.4737V12.0526H169.287C170.336 12.0526 171.294 12.3158 172.16 12.8421C173.027 13.3509 173.709 14.0526 174.209 14.9474C174.726 15.8246 174.983 16.8158 174.983 17.9211C174.983 18.9737 174.726 19.9474 174.209 20.8421C173.709 21.7193 173.027 22.4211 172.16 22.9474C171.311 23.4561 170.353 23.7105 169.287 23.7105H164.865V30.4737H161.692ZM171.835 30.4737L167.388 22.1579L170.736 21.5L177.028 30.4737H171.835ZM164.865 20.7368H169.312C169.795 20.7368 170.211 20.6228 170.561 20.3947C170.928 20.1491 171.211 19.8158 171.411 19.3947C171.611 18.9737 171.71 18.5088 171.71 18C171.71 17.4211 171.586 16.9211 171.336 16.5C171.086 16.079 170.736 15.7456 170.286 15.5C169.837 15.2544 169.32 15.1316 168.737 15.1316H164.865V20.7368ZM181.686 24.9737L181.186 21.579L190.181 12.0526H194.253L181.686 24.9737ZM178.028 30.5L179.113 12.0526H182.361L183.028 30.4737L178.028 30.5ZM190.58 30.4737L183.96 21.1842L186.258 19.1053L197.528 30.4737H190.58Z" stroke="url(#paint0_linear_1327_860)" stroke-width="2" mask="url(#path-3-inside-1_1327_860)"/>
<path d="M7.02768 16.5C3.98053 36.7183 27.0277 51.5 44.5277 36.5" stroke="#095FFF" stroke-width="2"/>
<path d="M52.6527 29.05C51.386 29.05 50.2277 28.8333 49.1777 28.4C48.1277 27.9667 47.2194 27.35 46.4527 26.55C45.686 25.7333 45.086 24.775 44.6527 23.675C44.236 22.5583 44.0277 21.3417 44.0277 20.025C44.0277 18.7583 44.2527 17.5833 44.7027 16.5C45.1527 15.4167 45.7777 14.4667 46.5777 13.65C47.3777 12.8333 48.311 12.2 49.3777 11.75C50.4444 11.3 51.6027 11.075 52.8527 11.075C53.7027 11.075 54.5277 11.2 55.3277 11.45C56.1277 11.7 56.861 12.05 57.5277 12.5C58.1944 12.9333 58.7527 13.4417 59.2027 14.025L57.1277 16.3C56.6944 15.85 56.2444 15.475 55.7777 15.175C55.3277 14.8583 54.8527 14.625 54.3527 14.475C53.8694 14.3083 53.3694 14.225 52.8527 14.225C52.086 14.225 51.361 14.3667 50.6777 14.65C50.011 14.9333 49.4277 15.3333 48.9277 15.85C48.4444 16.3667 48.061 16.9833 47.7777 17.7C47.4944 18.4 47.3527 19.1833 47.3527 20.05C47.3527 20.9333 47.486 21.7333 47.7527 22.45C48.036 23.1667 48.4277 23.7833 48.9277 24.3C49.4444 24.8167 50.0527 25.2167 50.7527 25.5C51.4694 25.7667 52.2527 25.9 53.1027 25.9C53.6527 25.9 54.186 25.825 54.7027 25.675C55.2194 25.525 55.6944 25.3167 56.1277 25.05C56.5777 24.7667 56.986 24.4417 57.3527 24.075L58.9527 26.65C58.5527 27.1 58.0194 27.5083 57.3527 27.875C56.686 28.2417 55.936 28.5333 55.1027 28.75C54.286 28.95 53.4694 29.05 52.6527 29.05ZM69.8675 29.05C68.6175 29.05 67.4592 28.825 66.3925 28.375C65.3259 27.925 64.3925 27.3 63.5925 26.5C62.8092 25.6833 62.2009 24.725 61.7675 23.625C61.3342 22.525 61.1175 21.325 61.1175 20.025C61.1175 18.725 61.3342 17.525 61.7675 16.425C62.2009 15.325 62.8092 14.375 63.5925 13.575C64.3925 12.7583 65.3259 12.125 66.3925 11.675C67.4592 11.225 68.6175 11 69.8675 11C71.1342 11 72.3009 11.225 73.3675 11.675C74.4342 12.125 75.3592 12.7583 76.1425 13.575C76.9259 14.3917 77.5342 15.35 77.9675 16.45C78.4009 17.5333 78.6175 18.725 78.6175 20.025C78.6175 21.3083 78.4009 22.5 77.9675 23.6C77.5342 24.7 76.9259 25.6583 76.1425 26.475C75.3592 27.2917 74.4342 27.925 73.3675 28.375C72.3009 28.825 71.1342 29.05 69.8675 29.05ZM69.8675 25.95C70.6675 25.95 71.3925 25.8083 72.0425 25.525C72.7092 25.225 73.2842 24.8083 73.7675 24.275C74.2509 23.725 74.6259 23.0917 74.8925 22.375C75.1759 21.6583 75.3175 20.875 75.3175 20.025C75.3175 19.175 75.1759 18.3917 74.8925 17.675C74.6259 16.9583 74.2509 16.3333 73.7675 15.8C73.2842 15.25 72.7092 14.8333 72.0425 14.55C71.3925 14.25 70.6675 14.1 69.8675 14.1C69.0842 14.1 68.3592 14.25 67.6925 14.55C67.0259 14.8333 66.4509 15.2417 65.9675 15.775C65.4842 16.3083 65.1092 16.9333 64.8425 17.65C64.5759 18.3667 64.4425 19.1583 64.4425 20.025C64.4425 20.875 64.5759 21.6667 64.8425 22.4C65.1092 23.1167 65.4842 23.7417 65.9675 24.275C66.4509 24.8083 67.0259 25.225 67.6925 25.525C68.3592 25.8083 69.0842 25.95 69.8675 25.95ZM82.1418 28.8V11.3H89.1668C90.4334 11.3 91.5751 11.5083 92.5918 11.925C93.6251 12.3417 94.5084 12.9417 95.2418 13.725C95.9918 14.5083 96.5584 15.4333 96.9418 16.5C97.3418 17.5667 97.5418 18.75 97.5418 20.05C97.5418 21.35 97.3418 22.5417 96.9418 23.625C96.5584 24.6917 96.0001 25.6167 95.2668 26.4C94.5334 27.1667 93.6501 27.7583 92.6168 28.175C91.5834 28.5917 90.4334 28.8 89.1668 28.8H82.1418ZM85.3918 26.275L85.1418 25.8H89.0418C89.8584 25.8 90.5834 25.6667 91.2168 25.4C91.8668 25.1333 92.4168 24.75 92.8668 24.25C93.3168 23.75 93.6584 23.15 93.8918 22.45C94.1251 21.7333 94.2418 20.9333 94.2418 20.05C94.2418 19.1667 94.1251 18.375 93.8918 17.675C93.6584 16.9583 93.3084 16.35 92.8418 15.85C92.3918 15.35 91.8501 14.9667 91.2168 14.7C90.5834 14.4333 89.8584 14.3 89.0418 14.3H85.0668L85.3918 13.875V26.275ZM101.063 28.8V11.3H112.513V14.25H104.263V25.85H112.613V28.8H101.063ZM102.563 21.3V18.4H111.238V21.3H102.563ZM120.213 28.8L114.763 11.3H118.163L121.263 21.625C121.363 21.9417 121.454 22.2917 121.538 22.675C121.621 23.0583 121.696 23.4417 121.763 23.825C121.829 24.1917 121.888 24.5333 121.938 24.85C121.988 25.1667 122.038 25.4333 122.088 25.65L121.413 25.625C121.613 24.8417 121.771 24.2083 121.888 23.725C122.004 23.2417 122.104 22.8417 122.188 22.525C122.288 22.1917 122.388 21.8833 122.488 21.6L125.438 14.05H128.213L131.088 21.6C131.254 22.0667 131.404 22.5167 131.538 22.95C131.671 23.3667 131.779 23.7833 131.863 24.2C131.963 24.6 132.054 25.0167 132.138 25.45L131.538 25.575C131.604 25.175 131.654 24.85 131.688 24.6C131.721 24.35 131.754 24.125 131.788 23.925C131.821 23.725 131.854 23.5333 131.888 23.35C131.921 23.15 131.971 22.9167 132.038 22.65C132.121 22.3667 132.221 22.0083 132.338 21.575L135.413 11.3H138.788L133.313 28.8H130.963L126.513 18.15L126.813 18.25L122.588 28.8H120.213ZM148.994 29.05C147.744 29.05 146.585 28.825 145.519 28.375C144.452 27.925 143.519 27.3 142.719 26.5C141.935 25.6833 141.327 24.725 140.894 23.625C140.46 22.525 140.244 21.325 140.244 20.025C140.244 18.725 140.46 17.525 140.894 16.425C141.327 15.325 141.935 14.375 142.719 13.575C143.519 12.7583 144.452 12.125 145.519 11.675C146.585 11.225 147.744 11 148.994 11C150.26 11 151.427 11.225 152.494 11.675C153.56 12.125 154.485 12.7583 155.269 13.575C156.052 14.3917 156.66 15.35 157.094 16.45C157.527 17.5333 157.744 18.725 157.744 20.025C157.744 21.3083 157.527 22.5 157.094 23.6C156.66 24.7 156.052 25.6583 155.269 26.475C154.485 27.2917 153.56 27.925 152.494 28.375C151.427 28.825 150.26 29.05 148.994 29.05ZM148.994 25.95C149.794 25.95 150.519 25.8083 151.169 25.525C151.835 25.225 152.41 24.8083 152.894 24.275C153.377 23.725 153.752 23.0917 154.019 22.375C154.302 21.6583 154.444 20.875 154.444 20.025C154.444 19.175 154.302 18.3917 154.019 17.675C153.752 16.9583 153.377 16.3333 152.894 15.8C152.41 15.25 151.835 14.8333 151.169 14.55C150.519 14.25 149.794 14.1 148.994 14.1C148.21 14.1 147.485 14.25 146.819 14.55C146.152 14.8333 145.577 15.2417 145.094 15.775C144.61 16.3083 144.235 16.9333 143.969 17.65C143.702 18.3667 143.569 19.1583 143.569 20.025C143.569 20.875 143.702 21.6667 143.969 22.4C144.235 23.1167 144.61 23.7417 145.094 24.275C145.577 24.8083 146.152 25.225 146.819 25.525C147.485 25.8083 148.21 25.95 148.994 25.95ZM161.268 28.8V11.3H168.868C169.918 11.3 170.876 11.55 171.743 12.05C172.61 12.5333 173.293 13.2 173.793 14.05C174.31 14.8833 174.568 15.825 174.568 16.875C174.568 17.875 174.31 18.8 173.793 19.65C173.293 20.4833 172.61 21.15 171.743 21.65C170.893 22.1333 169.935 22.375 168.868 22.375H164.443V28.8H161.268ZM171.418 28.8L166.968 20.9L170.318 20.275L175.268 28.825L171.418 28.8ZM164.443 19.55H168.893C169.376 19.55 169.793 19.4417 170.143 19.225C170.51 18.9917 170.793 18.675 170.993 18.275C171.193 17.875 171.293 17.4333 171.293 16.95C171.293 16.4 171.168 15.925 170.918 15.525C170.668 15.125 170.318 14.8083 169.868 14.575C169.418 14.3417 168.901 14.225 168.318 14.225H164.443V19.55ZM181.275 23.575L180.775 20.35L189.775 11.3H193.85L181.275 23.575ZM178.7 28.8V11.3H181.95V28.8H178.7ZM190.175 28.8L183.55 19.975L185.85 18L194.125 28.8H190.175Z" fill="#00B8FF"/>
<defs>
<linearGradient id="paint0_linear_1327_860" x1="108.986" y1="25.6842" x2="108.986" y2="30.9474" gradientUnits="userSpaceOnUse">
<stop stop-color="#D9D9D9"/>
<stop offset="0.322115" stop-color="#1F6DFE"/>
<stop offset="1" stop-color="#095FFF"/>
</linearGradient>
</defs>
</svg>
