<svg width="173" height="40" viewBox="0 0 173 40" fill="none" xmlns="http://www.w3.org/2000/svg">
<path d="M34.1421 34.1421C31.3853 36.899 27.8828 38.79 24.0654 39.5825C20.248 40.375 16.2822 40.0344 12.6558 38.6027C9.02936 37.1711 5.90048 34.7107 3.65396 31.5242C1.40744 28.3377 0.141257 24.5641 0.011141 20.6675C-0.118975 16.7709 0.892653 12.9212 2.9216 9.59192C4.95054 6.26267 7.90832 3.59903 11.4311 1.92862C14.954 0.258214 18.8882 -0.346117 22.75 0.18996C26.6117 0.726036 30.2326 2.37914 33.1672 4.94595L28.3861 10.4122C26.5171 8.7774 24.211 7.72455 21.7514 7.38313C19.2919 7.0417 16.7862 7.4266 14.5426 8.49047C12.2989 9.55434 10.4151 11.2508 9.12289 13.3712C7.83067 15.4915 7.18637 17.9434 7.26924 20.4251C7.35211 22.9068 8.15853 25.3102 9.58932 27.3397C11.0201 29.3691 13.0129 30.9361 15.3225 31.848C17.6321 32.7598 20.1579 32.9767 22.5892 32.4719C25.0205 31.9672 27.2512 30.7628 29.007 29.007L34.1421 34.1421Z" fill="#80DAFD"/>
<circle cx="20.1348" cy="20.1341" r="4.375" fill="#80DAFD"/>
<mask id="path-3-outside-1_1269_860" maskUnits="userSpaceOnUse" x="40" y="12" width="123" height="16" fill="black">
<rect fill="white" x="40" y="12" width="123" height="16"/>
<path d="M48.4 27.24C46.32 27.24 44.5333 26.5333 43.04 25.12C41.5467 23.6933 40.8 21.94 40.8 19.86C40.8 17.7667 41.4533 16.0133 42.76 14.6C44.0667 13.1733 45.74 12.46 47.78 12.46C49.38 12.46 51 12.7267 52.64 13.26L52.38 14.06C50.78 13.58 49.2467 13.34 47.78 13.34C46.0333 13.34 44.6067 13.9667 43.5 15.22C42.3933 16.4733 41.84 18.0067 41.84 19.82C41.84 21.6333 42.48 23.18 43.76 24.46C45.0533 25.7267 46.6 26.36 48.4 26.36C49.9733 26.36 51.3333 26.12 52.48 25.64L52.78 26.32C52.2733 26.6133 51.6067 26.84 50.78 27C49.9667 27.16 49.1733 27.24 48.4 27.24ZM57.3698 25.1C56.0498 23.6733 55.3898 21.92 55.3898 19.84C55.3898 17.76 56.0498 16.0133 57.3698 14.6C58.7032 13.1733 60.3832 12.46 62.4098 12.46C64.4365 12.46 66.1165 13.1733 67.4498 14.6C68.7832 16.0133 69.4498 17.76 69.4498 19.84C69.4498 21.92 68.7832 23.6733 67.4498 25.1C66.1165 26.5267 64.4365 27.24 62.4098 27.24C60.3832 27.24 58.7032 26.5267 57.3698 25.1ZM58.0898 15.22C56.9832 16.46 56.4298 18 56.4298 19.84C56.4298 21.68 56.9832 23.2267 58.0898 24.48C59.2098 25.7333 60.6498 26.36 62.4098 26.36C64.1832 26.36 65.6232 25.7333 66.7298 24.48C67.8498 23.2267 68.4098 21.68 68.4098 19.84C68.4098 18 67.8498 16.46 66.7298 15.22C65.6232 13.9667 64.1832 13.34 62.4098 13.34C60.6365 13.34 59.1965 13.9667 58.0898 15.22ZM78.4661 26.3C80.3461 26.3 81.8528 25.7933 82.9861 24.78C84.1328 23.7533 84.7061 22.2133 84.7061 20.16C84.7061 18.1067 84.0594 16.4733 82.7661 15.26C81.4861 14.0467 79.8994 13.44 78.0061 13.44C76.7928 13.44 75.7394 13.4733 74.8461 13.54V26.14C75.7128 26.2467 76.9194 26.3 78.4661 26.3ZM78.0061 12.56C80.2061 12.56 82.0461 13.2467 83.5261 14.62C85.0061 15.98 85.7461 17.8333 85.7461 20.18C85.7461 21.3667 85.5528 22.42 85.1661 23.34C84.7928 24.2467 84.2728 24.9733 83.6061 25.52C82.2328 26.6267 80.5194 27.18 78.4661 27.18C77.1194 27.18 75.5928 27.1067 73.8861 26.96V12.7C75.2461 12.6067 76.6194 12.56 78.0061 12.56ZM90.1947 27V12.7H96.8347V13.54H91.1547V18.8H96.2947V19.62H91.1547V26.16H97.0547V27H90.1947ZM104.598 23.54L108.738 12.98H109.318L112.938 23.62C113.218 24.46 113.404 25.0667 113.498 25.44C113.604 25 113.791 24.4 114.058 23.64L117.738 12.7H118.738L113.758 27.12H113.198L109.498 16.52C109.444 16.3467 109.384 16.1733 109.318 16C109.264 15.8267 109.218 15.6733 109.178 15.54C109.138 15.4067 109.098 15.2933 109.058 15.2L108.978 14.96C108.964 14.8933 108.958 14.8533 108.958 14.84C108.798 15.32 108.591 15.8733 108.338 16.5L104.158 27.12H103.598L98.5778 12.7H99.6378L103.298 23.46C103.471 23.94 103.611 24.3733 103.718 24.76C103.838 25.1467 103.904 25.36 103.918 25.4C103.984 25.0933 104.211 24.4733 104.598 23.54ZM122.682 25.1C121.362 23.6733 120.702 21.92 120.702 19.84C120.702 17.76 121.362 16.0133 122.682 14.6C124.016 13.1733 125.696 12.46 127.722 12.46C129.749 12.46 131.429 13.1733 132.762 14.6C134.096 16.0133 134.762 17.76 134.762 19.84C134.762 21.92 134.096 23.6733 132.762 25.1C131.429 26.5267 129.749 27.24 127.722 27.24C125.696 27.24 124.016 26.5267 122.682 25.1ZM123.402 15.22C122.296 16.46 121.742 18 121.742 19.84C121.742 21.68 122.296 23.2267 123.402 24.48C124.522 25.7333 125.962 26.36 127.722 26.36C129.496 26.36 130.936 25.7333 132.042 24.48C133.162 23.2267 133.722 21.68 133.722 19.84C133.722 18 133.162 16.46 132.042 15.22C130.936 13.9667 129.496 13.34 127.722 13.34C125.949 13.34 124.509 13.9667 123.402 15.22ZM139.199 27V12.76C140.465 12.6667 141.525 12.62 142.379 12.62C143.739 12.62 144.859 12.9733 145.739 13.68C146.619 14.3733 147.059 15.36 147.059 16.64C147.059 17.5067 146.805 18.3133 146.299 19.06C145.792 19.8067 145.225 20.4 144.599 20.84C145.092 21.52 145.699 22.3333 146.419 23.28C147.152 24.2133 147.625 24.8 147.839 25.04C148.652 25.9067 149.572 26.4 150.599 26.52L150.579 27.16C149.765 27.1467 149.105 27.0267 148.599 26.8C148.092 26.56 147.605 26.2 147.139 25.72C146.685 25.24 145.545 23.7467 143.719 21.24C142.412 21.24 141.225 21.2 140.159 21.12V27H139.199ZM143.139 20.44C143.725 20.44 144.352 20.0533 145.019 19.28C145.685 18.5067 146.019 17.6133 146.019 16.6C146.019 15.5733 145.672 14.8 144.979 14.28C144.299 13.7467 143.392 13.48 142.259 13.48C141.659 13.48 140.959 13.5067 140.159 13.56V20.34C141.225 20.4067 142.219 20.44 143.139 20.44ZM160.963 12.7L154.883 19.62C155.696 20.5933 156.629 21.68 157.683 22.88C158.749 24.08 159.436 24.82 159.743 25.1C160.063 25.38 160.309 25.5933 160.483 25.74C160.669 25.8733 160.949 26.0267 161.323 26.2C161.696 26.36 162.096 26.4667 162.523 26.52L162.503 27.16C161.703 27.1467 161.043 27.0267 160.523 26.8C160.003 26.56 159.549 26.2533 159.163 25.88C158.776 25.4933 157.929 24.56 156.623 23.08C155.329 21.5867 154.356 20.4467 153.703 19.66L159.843 12.7H160.963ZM153.323 12.7V27H152.363V12.7H153.323Z"/>
</mask>
<path d="M48.4 27.24C46.32 27.24 44.5333 26.5333 43.04 25.12C41.5467 23.6933 40.8 21.94 40.8 19.86C40.8 17.7667 41.4533 16.0133 42.76 14.6C44.0667 13.1733 45.74 12.46 47.78 12.46C49.38 12.46 51 12.7267 52.64 13.26L52.38 14.06C50.78 13.58 49.2467 13.34 47.78 13.34C46.0333 13.34 44.6067 13.9667 43.5 15.22C42.3933 16.4733 41.84 18.0067 41.84 19.82C41.84 21.6333 42.48 23.18 43.76 24.46C45.0533 25.7267 46.6 26.36 48.4 26.36C49.9733 26.36 51.3333 26.12 52.48 25.64L52.78 26.32C52.2733 26.6133 51.6067 26.84 50.78 27C49.9667 27.16 49.1733 27.24 48.4 27.24ZM57.3698 25.1C56.0498 23.6733 55.3898 21.92 55.3898 19.84C55.3898 17.76 56.0498 16.0133 57.3698 14.6C58.7032 13.1733 60.3832 12.46 62.4098 12.46C64.4365 12.46 66.1165 13.1733 67.4498 14.6C68.7832 16.0133 69.4498 17.76 69.4498 19.84C69.4498 21.92 68.7832 23.6733 67.4498 25.1C66.1165 26.5267 64.4365 27.24 62.4098 27.24C60.3832 27.24 58.7032 26.5267 57.3698 25.1ZM58.0898 15.22C56.9832 16.46 56.4298 18 56.4298 19.84C56.4298 21.68 56.9832 23.2267 58.0898 24.48C59.2098 25.7333 60.6498 26.36 62.4098 26.36C64.1832 26.36 65.6232 25.7333 66.7298 24.48C67.8498 23.2267 68.4098 21.68 68.4098 19.84C68.4098 18 67.8498 16.46 66.7298 15.22C65.6232 13.9667 64.1832 13.34 62.4098 13.34C60.6365 13.34 59.1965 13.9667 58.0898 15.22ZM78.4661 26.3C80.3461 26.3 81.8528 25.7933 82.9861 24.78C84.1328 23.7533 84.7061 22.2133 84.7061 20.16C84.7061 18.1067 84.0594 16.4733 82.7661 15.26C81.4861 14.0467 79.8994 13.44 78.0061 13.44C76.7928 13.44 75.7394 13.4733 74.8461 13.54V26.14C75.7128 26.2467 76.9194 26.3 78.4661 26.3ZM78.0061 12.56C80.2061 12.56 82.0461 13.2467 83.5261 14.62C85.0061 15.98 85.7461 17.8333 85.7461 20.18C85.7461 21.3667 85.5528 22.42 85.1661 23.34C84.7928 24.2467 84.2728 24.9733 83.6061 25.52C82.2328 26.6267 80.5194 27.18 78.4661 27.18C77.1194 27.18 75.5928 27.1067 73.8861 26.96V12.7C75.2461 12.6067 76.6194 12.56 78.0061 12.56ZM90.1947 27V12.7H96.8347V13.54H91.1547V18.8H96.2947V19.62H91.1547V26.16H97.0547V27H90.1947ZM104.598 23.54L108.738 12.98H109.318L112.938 23.62C113.218 24.46 113.404 25.0667 113.498 25.44C113.604 25 113.791 24.4 114.058 23.64L117.738 12.7H118.738L113.758 27.12H113.198L109.498 16.52C109.444 16.3467 109.384 16.1733 109.318 16C109.264 15.8267 109.218 15.6733 109.178 15.54C109.138 15.4067 109.098 15.2933 109.058 15.2L108.978 14.96C108.964 14.8933 108.958 14.8533 108.958 14.84C108.798 15.32 108.591 15.8733 108.338 16.5L104.158 27.12H103.598L98.5778 12.7H99.6378L103.298 23.46C103.471 23.94 103.611 24.3733 103.718 24.76C103.838 25.1467 103.904 25.36 103.918 25.4C103.984 25.0933 104.211 24.4733 104.598 23.54ZM122.682 25.1C121.362 23.6733 120.702 21.92 120.702 19.84C120.702 17.76 121.362 16.0133 122.682 14.6C124.016 13.1733 125.696 12.46 127.722 12.46C129.749 12.46 131.429 13.1733 132.762 14.6C134.096 16.0133 134.762 17.76 134.762 19.84C134.762 21.92 134.096 23.6733 132.762 25.1C131.429 26.5267 129.749 27.24 127.722 27.24C125.696 27.24 124.016 26.5267 122.682 25.1ZM123.402 15.22C122.296 16.46 121.742 18 121.742 19.84C121.742 21.68 122.296 23.2267 123.402 24.48C124.522 25.7333 125.962 26.36 127.722 26.36C129.496 26.36 130.936 25.7333 132.042 24.48C133.162 23.2267 133.722 21.68 133.722 19.84C133.722 18 133.162 16.46 132.042 15.22C130.936 13.9667 129.496 13.34 127.722 13.34C125.949 13.34 124.509 13.9667 123.402 15.22ZM139.199 27V12.76C140.465 12.6667 141.525 12.62 142.379 12.62C143.739 12.62 144.859 12.9733 145.739 13.68C146.619 14.3733 147.059 15.36 147.059 16.64C147.059 17.5067 146.805 18.3133 146.299 19.06C145.792 19.8067 145.225 20.4 144.599 20.84C145.092 21.52 145.699 22.3333 146.419 23.28C147.152 24.2133 147.625 24.8 147.839 25.04C148.652 25.9067 149.572 26.4 150.599 26.52L150.579 27.16C149.765 27.1467 149.105 27.0267 148.599 26.8C148.092 26.56 147.605 26.2 147.139 25.72C146.685 25.24 145.545 23.7467 143.719 21.24C142.412 21.24 141.225 21.2 140.159 21.12V27H139.199ZM143.139 20.44C143.725 20.44 144.352 20.0533 145.019 19.28C145.685 18.5067 146.019 17.6133 146.019 16.6C146.019 15.5733 145.672 14.8 144.979 14.28C144.299 13.7467 143.392 13.48 142.259 13.48C141.659 13.48 140.959 13.5067 140.159 13.56V20.34C141.225 20.4067 142.219 20.44 143.139 20.44ZM160.963 12.7L154.883 19.62C155.696 20.5933 156.629 21.68 157.683 22.88C158.749 24.08 159.436 24.82 159.743 25.1C160.063 25.38 160.309 25.5933 160.483 25.74C160.669 25.8733 160.949 26.0267 161.323 26.2C161.696 26.36 162.096 26.4667 162.523 26.52L162.503 27.16C161.703 27.1467 161.043 27.0267 160.523 26.8C160.003 26.56 159.549 26.2533 159.163 25.88C158.776 25.4933 157.929 24.56 156.623 23.08C155.329 21.5867 154.356 20.4467 153.703 19.66L159.843 12.7H160.963ZM153.323 12.7V27H152.363V12.7H153.323Z" fill="#80DAFD"/>
<path d="M43.04 25.12L42.8328 25.3369L42.8338 25.3379L43.04 25.12ZM42.76 14.6L42.9803 14.8037L42.9812 14.8026L42.76 14.6ZM52.64 13.26L52.9253 13.3527L53.018 13.0675L52.7328 12.9747L52.64 13.26ZM52.38 14.06L52.2938 14.3473L52.5747 14.4316L52.6653 14.1527L52.38 14.06ZM43.5 15.22L43.2751 15.0214L43.5 15.22ZM43.76 24.46L43.5479 24.6721L43.5501 24.6743L43.76 24.46ZM52.48 25.64L52.7545 25.5189L52.6357 25.2496L52.3642 25.3633L52.48 25.64ZM52.78 26.32L52.9303 26.5796L53.163 26.4449L53.0545 26.1989L52.78 26.32ZM50.78 27L50.723 26.7055L50.7221 26.7056L50.78 27ZM48.4 26.94C46.3957 26.94 44.6831 26.262 43.2462 24.9021L42.8338 25.3379C44.3835 26.8046 46.2443 27.54 48.4 27.54V26.94ZM43.2472 24.9031C41.8136 23.5335 41.1 21.8587 41.1 19.86H40.5C40.5 22.0213 41.2797 23.8532 42.8328 25.3369L43.2472 24.9031ZM41.1 19.86C41.1 17.835 41.7296 16.1565 42.9803 14.8037L42.5397 14.3963C41.1771 15.8702 40.5 17.6984 40.5 19.86H41.1ZM42.9812 14.8026C44.2277 13.4417 45.819 12.76 47.78 12.76V12.16C45.661 12.16 43.9057 12.905 42.5388 14.3974L42.9812 14.8026ZM47.78 12.76C49.3461 12.76 50.9349 13.0209 52.5472 13.5453L52.7328 12.9747C51.0651 12.4324 49.4139 12.16 47.78 12.16V12.76ZM52.3547 13.1673L52.0947 13.9673L52.6653 14.1527L52.9253 13.3527L52.3547 13.1673ZM52.4662 13.7727C50.8421 13.2854 49.2796 13.04 47.78 13.04V13.64C49.2137 13.64 50.718 13.8746 52.2938 14.3473L52.4662 13.7727ZM47.78 13.04C45.9517 13.04 44.4416 13.7004 43.2751 15.0214L43.7249 15.4186C44.7718 14.2329 46.115 13.64 47.78 13.64V13.04ZM43.2751 15.0214C42.1158 16.3344 41.54 17.9402 41.54 19.82H42.14C42.14 18.0731 42.6709 16.6123 43.7249 15.4186L43.2751 15.0214ZM41.54 19.82C41.54 21.7127 42.2115 23.3358 43.5479 24.6721L43.9721 24.2479C42.7485 23.0242 42.14 21.5539 42.14 19.82H41.54ZM43.5501 24.6743C44.8991 25.9956 46.521 26.66 48.4 26.66V26.06C46.679 26.06 45.2075 25.4578 43.9699 24.2457L43.5501 24.6743ZM48.4 26.66C50.0029 26.66 51.4041 26.4156 52.5958 25.9167L52.3642 25.3633C51.2625 25.8244 49.9437 26.06 48.4 26.06V26.66ZM52.2055 25.7611L52.5055 26.4411L53.0545 26.1989L52.7545 25.5189L52.2055 25.7611ZM52.6297 26.0604C52.1616 26.3314 51.53 26.5493 50.723 26.7055L50.837 27.2945C51.6834 27.1307 52.385 26.8953 52.9303 26.5796L52.6297 26.0604ZM50.7221 26.7056C49.9265 26.8622 49.1526 26.94 48.4 26.94V27.54C49.1941 27.54 50.0069 27.4578 50.8379 27.2944L50.7221 26.7056ZM57.3698 25.1L57.1496 25.3037L57.1507 25.3048L57.3698 25.1ZM57.3698 14.6L57.1507 14.3952L57.1506 14.3952L57.3698 14.6ZM67.4498 14.6L67.2307 14.8048L67.2316 14.8059L67.4498 14.6ZM67.4498 25.1L67.2307 24.8952L67.4498 25.1ZM58.0898 15.22L58.3137 15.4198L58.3147 15.4186L58.0898 15.22ZM58.0898 24.48L57.865 24.6786L57.8661 24.6799L58.0898 24.48ZM66.7298 24.48L66.5061 24.2801L66.505 24.2814L66.7298 24.48ZM66.7298 15.22L66.5049 15.4186L66.5072 15.4211L66.7298 15.22ZM57.59 24.8963C56.3252 23.5292 55.6898 21.8503 55.6898 19.84H55.0898C55.0898 21.9897 55.7745 23.8175 57.1496 25.3037L57.59 24.8963ZM55.6898 19.84C55.6898 17.8297 56.3251 16.1581 57.5891 14.8048L57.1506 14.3952C55.7746 15.8686 55.0898 17.6903 55.0898 19.84H55.6898ZM57.589 14.8048C58.8632 13.4414 60.4627 12.76 62.4098 12.76V12.16C60.3036 12.16 58.5431 12.9052 57.1507 14.3952L57.589 14.8048ZM62.4098 12.76C64.357 12.76 65.9564 13.4414 67.2307 14.8048L67.669 14.3952C66.2766 12.9052 64.516 12.16 62.4098 12.16V12.76ZM67.2316 14.8059C68.5085 16.1594 69.1498 17.8306 69.1498 19.84H69.7498C69.7498 17.6894 69.0578 15.8673 67.6681 14.3941L67.2316 14.8059ZM69.1498 19.84C69.1498 21.8494 68.5085 23.5279 67.2307 24.8952L67.669 25.3048C69.0579 23.8188 69.7498 21.9906 69.7498 19.84H69.1498ZM67.2307 24.8952C65.9564 26.2586 64.357 26.94 62.4098 26.94V27.54C64.516 27.54 66.2766 26.7948 67.669 25.3048L67.2307 24.8952ZM62.4098 26.94C60.4627 26.94 58.8632 26.2586 57.589 24.8952L57.1507 25.3048C58.5431 26.7948 60.3036 27.54 62.4098 27.54V26.94ZM57.866 15.0202C56.7049 16.3212 56.1298 17.9348 56.1298 19.84H56.7298C56.7298 18.0652 57.2614 16.5988 58.3137 15.4198L57.866 15.0202ZM56.1298 19.84C56.1298 21.7452 56.7049 23.3647 57.865 24.6786L58.3147 24.2814C57.2615 23.0886 56.7298 21.6148 56.7298 19.84H56.1298ZM57.8661 24.6799C59.046 26.0002 60.569 26.66 62.4098 26.66V26.06C60.7307 26.06 59.3737 25.4664 58.3135 24.2801L57.8661 24.6799ZM62.4098 26.66C64.2633 26.66 65.7873 26.0007 66.9547 24.6786L66.505 24.2814C65.459 25.466 64.103 26.06 62.4098 26.06V26.66ZM66.9535 24.6799C68.1275 23.3662 68.7098 21.7462 68.7098 19.84H68.1098C68.1098 21.6138 67.5722 23.0871 66.5061 24.2801L66.9535 24.6799ZM68.7098 19.84C68.7098 17.9338 68.1275 16.3198 66.9525 15.0189L66.5072 15.4211C67.5722 16.6002 68.1098 18.0662 68.1098 19.84H68.7098ZM66.9547 15.0214C65.7873 13.6993 64.2633 13.04 62.4098 13.04V13.64C64.103 13.64 65.459 14.234 66.505 15.4186L66.9547 15.0214ZM62.4098 13.04C60.5564 13.04 59.0324 13.6993 57.865 15.0214L58.3147 15.4186C59.3606 14.234 60.7166 13.64 62.4098 13.64V13.04ZM82.9861 24.78L83.1861 25.0036L83.1862 25.0035L82.9861 24.78ZM82.7661 15.26L82.5597 15.4777L82.5608 15.4788L82.7661 15.26ZM74.8461 13.54L74.8238 13.2408L74.5461 13.2616V13.54H74.8461ZM74.8461 26.14H74.5461V26.4053L74.8094 26.4378L74.8461 26.14ZM83.5261 14.62L83.322 14.8399L83.3231 14.8409L83.5261 14.62ZM85.1661 23.34L84.8895 23.2238L84.8887 23.2258L85.1661 23.34ZM83.6061 25.52L83.7943 25.7536L83.7963 25.752L83.6061 25.52ZM73.8861 26.96H73.5861V27.2353L73.8604 27.2589L73.8861 26.96ZM73.8861 12.7L73.8656 12.4007L73.5861 12.4199V12.7H73.8861ZM78.4661 26.6C80.4017 26.6 81.9855 26.0771 83.1861 25.0036L82.7861 24.5564C81.72 25.5096 80.2905 26 78.4661 26V26.6ZM83.1862 25.0035C84.4158 23.9026 85.0061 22.2687 85.0061 20.16H84.4061C84.4061 22.158 83.8497 23.6041 82.786 24.5565L83.1862 25.0035ZM85.0061 20.16C85.0061 18.0381 84.3348 16.3204 82.9714 15.0412L82.5608 15.4788C83.784 16.6263 84.4061 18.1752 84.4061 20.16H85.0061ZM82.9725 15.0423C81.6324 13.772 79.97 13.14 78.0061 13.14V13.74C79.8288 13.74 81.3398 14.3213 82.5597 15.4777L82.9725 15.0423ZM78.0061 13.14C76.7877 13.14 75.7266 13.1735 74.8238 13.2408L74.8684 13.8392C75.7523 13.7732 76.7978 13.74 78.0061 13.74V13.14ZM74.5461 13.54V26.14H75.1461V13.54H74.5461ZM74.8094 26.4378C75.6941 26.5466 76.915 26.6 78.4661 26.6V26C76.9239 26 75.7314 25.9467 74.8827 25.8422L74.8094 26.4378ZM78.0061 12.86C80.1378 12.86 81.9027 13.5229 83.322 14.8399L83.7302 14.4001C82.1895 12.9705 80.2744 12.26 78.0061 12.26V12.86ZM83.3231 14.8409C84.7308 16.1344 85.4461 17.9019 85.4461 20.18H86.0461C86.0461 17.7648 85.2814 15.8256 83.7291 14.3991L83.3231 14.8409ZM85.4461 20.18C85.4461 21.3342 85.2581 22.3468 84.8895 23.2238L85.4427 23.4562C85.8474 22.4932 86.0461 21.3992 86.0461 20.18H85.4461ZM84.8887 23.2258C84.5316 24.093 84.0392 24.7769 83.4159 25.288L83.7963 25.752C84.5063 25.1698 85.0539 24.4004 85.4435 23.4542L84.8887 23.2258ZM83.4179 25.2864C82.1064 26.3432 80.4627 26.88 78.4661 26.88V27.48C80.5761 27.48 82.3592 26.9101 83.7943 25.7536L83.4179 25.2864ZM78.4661 26.88C77.1299 26.88 75.6121 26.8072 73.9118 26.6611L73.8604 27.2589C75.5734 27.4061 77.1089 27.48 78.4661 27.48V26.88ZM74.1861 26.96V12.7H73.5861V26.96H74.1861ZM73.9066 12.9993C75.2597 12.9064 76.6262 12.86 78.0061 12.86V12.26C76.6127 12.26 75.2325 12.3069 73.8656 12.4007L73.9066 12.9993ZM90.1947 27H89.8947V27.3H90.1947V27ZM90.1947 12.7V12.4H89.8947V12.7H90.1947ZM96.8347 12.7H97.1347V12.4H96.8347V12.7ZM96.8347 13.54V13.84H97.1347V13.54H96.8347ZM91.1547 13.54V13.24H90.8547V13.54H91.1547ZM91.1547 18.8H90.8547V19.1H91.1547V18.8ZM96.2947 18.8H96.5947V18.5H96.2947V18.8ZM96.2947 19.62V19.92H96.5947V19.62H96.2947ZM91.1547 19.62V19.32H90.8547V19.62H91.1547ZM91.1547 26.16H90.8547V26.46H91.1547V26.16ZM97.0547 26.16H97.3547V25.86H97.0547V26.16ZM97.0547 27V27.3H97.3547V27H97.0547ZM90.4947 27V12.7H89.8947V27H90.4947ZM90.1947 13H96.8347V12.4H90.1947V13ZM96.5347 12.7V13.54H97.1347V12.7H96.5347ZM96.8347 13.24H91.1547V13.84H96.8347V13.24ZM90.8547 13.54V18.8H91.4547V13.54H90.8547ZM91.1547 19.1H96.2947V18.5H91.1547V19.1ZM95.9947 18.8V19.62H96.5947V18.8H95.9947ZM96.2947 19.32H91.1547V19.92H96.2947V19.32ZM90.8547 19.62V26.16H91.4547V19.62H90.8547ZM91.1547 26.46H97.0547V25.86H91.1547V26.46ZM96.7547 26.16V27H97.3547V26.16H96.7547ZM97.0547 26.7H90.1947V27.3H97.0547V26.7ZM104.598 23.54L104.875 23.6548L104.877 23.6495L104.598 23.54ZM108.738 12.98V12.68H108.533L108.459 12.8705L108.738 12.98ZM109.318 12.98L109.602 12.8834L109.533 12.68H109.318V12.98ZM112.938 23.62L113.222 23.5251L113.222 23.5234L112.938 23.62ZM113.498 25.44L113.207 25.5128L113.789 25.5107L113.498 25.44ZM114.058 23.64L114.341 23.7393L114.342 23.7356L114.058 23.64ZM117.738 12.7V12.4H117.522L117.453 12.6044L117.738 12.7ZM118.738 12.7L119.021 12.7979L119.159 12.4H118.738V12.7ZM113.758 27.12V27.42H113.972L114.041 27.2179L113.758 27.12ZM113.198 27.12L112.915 27.2189L112.985 27.42H113.198V27.12ZM109.498 16.52L109.211 16.6083L109.215 16.6189L109.498 16.52ZM109.318 16L109.031 16.0882L109.034 16.0981L109.038 16.1077L109.318 16ZM109.178 15.54L108.89 15.6262V15.6262L109.178 15.54ZM109.058 15.2L108.773 15.2949L108.777 15.3067L108.782 15.3182L109.058 15.2ZM108.978 14.96L108.684 15.0188L108.687 15.0371L108.693 15.0549L108.978 14.96ZM108.958 14.84H109.258L108.673 14.7451L108.958 14.84ZM108.338 16.5L108.06 16.3876L108.059 16.3901L108.338 16.5ZM104.158 27.12V27.42H104.362L104.437 27.2299L104.158 27.12ZM103.598 27.12L103.314 27.2186L103.385 27.42H103.598V27.12ZM98.5778 12.7V12.4H98.1557L98.2945 12.7986L98.5778 12.7ZM99.6378 12.7L99.9218 12.6034L99.8526 12.4H99.6378V12.7ZM103.298 23.46L103.014 23.5566L103.016 23.5619L103.298 23.46ZM103.718 24.76L103.428 24.8398L103.431 24.8489L103.718 24.76ZM103.918 25.4L103.633 25.4949L103.979 26.5317L104.211 25.4637L103.918 25.4ZM104.877 23.6495L109.017 13.0895L108.459 12.8705L104.319 23.4305L104.877 23.6495ZM108.738 13.28H109.318V12.68H108.738V13.28ZM109.034 13.0766L112.654 23.7166L113.222 23.5234L109.602 12.8834L109.034 13.0766ZM112.653 23.7149C112.933 24.5545 113.116 25.1516 113.207 25.5128L113.789 25.3672C113.692 24.9817 113.503 24.3655 113.222 23.5251L112.653 23.7149ZM113.789 25.5107C113.893 25.085 114.075 24.4959 114.341 23.7393L113.775 23.5407C113.507 24.3041 113.316 24.915 113.206 25.3693L113.789 25.5107ZM114.342 23.7356L118.022 12.7956L117.453 12.6044L113.773 23.5444L114.342 23.7356ZM117.738 13H118.738V12.4H117.738V13ZM118.454 12.6021L113.474 27.0221L114.041 27.2179L119.021 12.7979L118.454 12.6021ZM113.758 26.82H113.198V27.42H113.758V26.82ZM113.481 27.0211L109.781 16.4211L109.215 16.6189L112.915 27.2189L113.481 27.0211ZM109.785 16.4318C109.729 16.2517 109.667 16.0719 109.598 15.8923L109.038 16.1077C109.102 16.2748 109.16 16.4416 109.211 16.6082L109.785 16.4318ZM109.605 15.9118C109.551 15.7389 109.505 15.5863 109.465 15.4538L108.89 15.6262C108.931 15.7604 108.978 15.9144 109.031 16.0882L109.605 15.9118ZM109.465 15.4538C109.423 15.3133 109.379 15.1886 109.334 15.0818L108.782 15.3182C108.816 15.3981 108.853 15.5001 108.89 15.6262L109.465 15.4538ZM109.342 15.1051L109.262 14.8651L108.693 15.0549L108.773 15.2949L109.342 15.1051ZM109.272 14.9012C109.266 14.8692 109.261 14.8461 109.259 14.8307C109.257 14.8229 109.257 14.8189 109.257 14.8178C109.257 14.8173 109.257 14.8186 109.257 14.8213C109.257 14.8234 109.258 14.8303 109.258 14.84H108.658C108.658 14.8757 108.664 14.9137 108.667 14.9293C108.671 14.9539 108.677 14.9841 108.684 15.0188L109.272 14.9012ZM108.673 14.7451C108.516 15.2176 108.311 15.7649 108.06 16.3876L108.616 16.6124C108.871 15.9818 109.08 15.4224 109.242 14.9349L108.673 14.7451ZM108.059 16.3901L103.879 27.0101L104.437 27.2299L108.617 16.6099L108.059 16.3901ZM104.158 26.82H103.598V27.42H104.158V26.82ZM103.881 27.0214L98.8611 12.6014L98.2945 12.7986L103.314 27.2186L103.881 27.0214ZM98.5778 13H99.6378V12.4H98.5778V13ZM99.3538 12.7966L103.014 23.5566L103.582 23.3634L99.9218 12.6034L99.3538 12.7966ZM103.016 23.5619C103.187 24.0365 103.324 24.4623 103.429 24.8398L104.007 24.6802C103.898 24.2844 103.755 23.8435 103.58 23.3581L103.016 23.5619ZM103.431 24.8489C103.55 25.233 103.619 25.451 103.633 25.4949L104.202 25.3051C104.19 25.269 104.125 25.0603 104.004 24.6711L103.431 24.8489ZM104.211 25.4637C104.271 25.1882 104.486 24.5937 104.875 23.6548L104.321 23.4252C103.936 24.353 103.698 24.9985 103.625 25.3363L104.211 25.4637ZM122.682 25.1L122.462 25.3037L122.463 25.3048L122.682 25.1ZM122.682 14.6L122.463 14.3952L122.463 14.3952L122.682 14.6ZM132.762 14.6L132.543 14.8048L132.544 14.8059L132.762 14.6ZM132.762 25.1L132.543 24.8952L132.762 25.1ZM123.402 15.22L123.626 15.4198L123.627 15.4186L123.402 15.22ZM123.402 24.48L123.177 24.6786L123.179 24.6799L123.402 24.48ZM132.042 24.48L131.819 24.2801L131.817 24.2814L132.042 24.48ZM132.042 15.22L131.817 15.4186L131.82 15.4211L132.042 15.22ZM122.903 24.8963C121.638 23.5292 121.002 21.8503 121.002 19.84H120.402C120.402 21.9897 121.087 23.8175 122.462 25.3037L122.903 24.8963ZM121.002 19.84C121.002 17.8297 121.638 16.1581 122.902 14.8048L122.463 14.3952C121.087 15.8686 120.402 17.6903 120.402 19.84H121.002ZM122.902 14.8048C124.176 13.4414 125.775 12.76 127.722 12.76V12.16C125.616 12.16 123.856 12.9052 122.463 14.3952L122.902 14.8048ZM127.722 12.76C129.669 12.76 131.269 13.4414 132.543 14.8048L132.982 14.3952C131.589 12.9052 129.829 12.16 127.722 12.16V12.76ZM132.544 14.8059C133.821 16.1594 134.462 17.8306 134.462 19.84H135.062C135.062 17.6894 134.37 15.8673 132.981 14.3941L132.544 14.8059ZM134.462 19.84C134.462 21.8494 133.821 23.5279 132.543 24.8952L132.982 25.3048C134.37 23.8188 135.062 21.9906 135.062 19.84H134.462ZM132.543 24.8952C131.269 26.2586 129.669 26.94 127.722 26.94V27.54C129.829 27.54 131.589 26.7948 132.982 25.3048L132.543 24.8952ZM127.722 26.94C125.775 26.94 124.176 26.2586 122.902 24.8952L122.463 25.3048C123.856 26.7948 125.616 27.54 127.722 27.54V26.94ZM123.179 15.0202C122.017 16.3212 121.442 17.9348 121.442 19.84H122.042C122.042 18.0652 122.574 16.5988 123.626 15.4198L123.179 15.0202ZM121.442 19.84C121.442 21.7452 122.017 23.3647 123.177 24.6786L123.627 24.2814C122.574 23.0886 122.042 21.6148 122.042 19.84H121.442ZM123.179 24.6799C124.359 26.0002 125.881 26.66 127.722 26.66V26.06C126.043 26.06 124.686 25.4664 123.626 24.2801L123.179 24.6799ZM127.722 26.66C129.576 26.66 131.1 26.0007 132.267 24.6786L131.817 24.2814C130.772 25.466 129.416 26.06 127.722 26.06V26.66ZM132.266 24.6799C133.44 23.3662 134.022 21.7462 134.022 19.84H133.422C133.422 21.6138 132.885 23.0871 131.819 24.2801L132.266 24.6799ZM134.022 19.84C134.022 17.9338 133.44 16.3198 132.265 15.0189L131.82 15.4211C132.885 16.6002 133.422 18.0662 133.422 19.84H134.022ZM132.267 15.0214C131.1 13.6993 129.576 13.04 127.722 13.04V13.64C129.416 13.64 130.772 14.234 131.817 15.4186L132.267 15.0214ZM127.722 13.04C125.869 13.04 124.345 13.6993 123.177 15.0214L123.627 15.4186C124.673 14.234 126.029 13.64 127.722 13.64V13.04ZM139.199 27H138.899V27.3H139.199V27ZM139.199 12.76L139.177 12.4608L138.899 12.4813V12.76H139.199ZM145.739 13.68L145.551 13.9139L145.553 13.9156L145.739 13.68ZM146.299 19.06L146.05 18.8915L146.299 19.06ZM144.599 20.84L144.426 20.5945L144.177 20.7696L144.356 21.0162L144.599 20.84ZM146.419 23.28L146.18 23.4616L146.183 23.4653L146.419 23.28ZM147.839 25.04L147.614 25.2394L147.62 25.2453L147.839 25.04ZM150.599 26.52L150.898 26.5294L150.907 26.254L150.633 26.222L150.599 26.52ZM150.579 27.16L150.574 27.46L150.869 27.4648L150.878 27.1694L150.579 27.16ZM148.599 26.8L148.47 27.0712L148.476 27.0738L148.599 26.8ZM147.139 25.72L146.92 25.926L146.923 25.9291L147.139 25.72ZM143.719 21.24L143.961 21.0633L143.871 20.94H143.719V21.24ZM140.159 21.12L140.181 20.8208L139.859 20.7967V21.12H140.159ZM140.159 27V27.3H140.459V27H140.159ZM145.019 19.28L144.791 19.0841L145.019 19.28ZM144.979 14.28L144.793 14.5161L144.799 14.52L144.979 14.28ZM140.159 13.56L140.139 13.2607L139.859 13.2793V13.56H140.159ZM140.159 20.34H139.859V20.6218L140.14 20.6394L140.159 20.34ZM139.499 27V12.76H138.899V27H139.499ZM139.221 13.0592C140.483 12.9662 141.535 12.92 142.379 12.92V12.32C141.515 12.32 140.447 12.3672 139.177 12.4608L139.221 13.0592ZM142.379 12.92C143.685 12.92 144.734 13.2583 145.551 13.9139L145.926 13.4461C144.983 12.6884 143.792 12.32 142.379 12.32V12.92ZM145.553 13.9156C146.35 14.5435 146.759 15.4371 146.759 16.64H147.359C147.359 15.2829 146.887 14.2032 145.924 13.4444L145.553 13.9156ZM146.759 16.64C146.759 17.444 146.525 18.1924 146.05 18.8915L146.547 19.2284C147.086 18.4342 147.359 17.5693 147.359 16.64H146.759ZM146.05 18.8915C145.561 19.6134 145.018 20.1787 144.426 20.5945L144.771 21.0855C145.432 20.6213 146.023 19.9999 146.547 19.2284L146.05 18.8915ZM144.356 21.0162C144.851 21.6986 145.459 22.5138 146.18 23.4616L146.657 23.0984C145.938 22.1528 145.333 21.3414 144.841 20.6638L144.356 21.0162ZM146.183 23.4653C146.914 24.3964 147.394 24.9911 147.614 25.2393L148.063 24.8407C147.857 24.6089 147.39 24.0303 146.654 23.0947L146.183 23.4653ZM147.62 25.2453C148.474 26.1554 149.456 26.6885 150.564 26.818L150.633 26.222C149.687 26.1115 148.83 25.6579 148.057 24.8347L147.62 25.2453ZM150.299 26.5106L150.279 27.1506L150.878 27.1694L150.898 26.5294L150.299 26.5106ZM150.584 26.86C149.793 26.8471 149.178 26.7304 148.721 26.5262L148.476 27.0738C149.033 27.3229 149.737 27.4462 150.574 27.46L150.584 26.86ZM148.727 26.5289C148.258 26.3069 147.8 25.9701 147.354 25.5109L146.923 25.9291C147.41 26.4299 147.926 26.8131 148.47 27.0711L148.727 26.5289ZM147.357 25.514C146.92 25.0514 145.793 23.5774 143.961 21.0633L143.476 21.4167C145.297 23.9159 146.451 25.4286 146.92 25.926L147.357 25.514ZM143.719 20.94C142.418 20.94 141.239 20.9002 140.181 20.8208L140.136 21.4192C141.212 21.4998 142.406 21.54 143.719 21.54V20.94ZM139.859 21.12V27H140.459V21.12H139.859ZM140.159 26.7H139.199V27.3H140.159V26.7ZM143.139 20.74C143.859 20.74 144.562 20.2689 145.246 19.4759L144.791 19.0841C144.142 19.8378 143.591 20.14 143.139 20.14V20.74ZM145.246 19.4759C145.959 18.6485 146.319 17.6858 146.319 16.6H145.719C145.719 17.5408 145.411 18.3648 144.791 19.0841L145.246 19.4759ZM146.319 16.6C146.319 15.4986 145.942 14.6275 145.159 14.04L144.799 14.52C145.402 14.9725 145.719 15.6481 145.719 16.6H146.319ZM145.164 14.0439C144.416 13.4579 143.438 13.18 142.259 13.18V13.78C143.346 13.78 144.181 14.0355 144.793 14.5161L145.164 14.0439ZM142.259 13.18C141.65 13.18 140.943 13.207 140.139 13.2607L140.179 13.8593C140.974 13.8063 141.667 13.78 142.259 13.78V13.18ZM139.859 13.56V20.34H140.459V13.56H139.859ZM140.14 20.6394C141.212 20.7064 142.211 20.74 143.139 20.74V20.14C142.226 20.14 141.239 20.1069 140.177 20.0406L140.14 20.6394ZM160.963 12.7L161.188 12.898L161.626 12.4H160.963V12.7ZM154.883 19.62L154.657 19.422L154.488 19.6151L154.652 19.8124L154.883 19.62ZM157.683 22.88L157.457 23.0779L157.458 23.0793L157.683 22.88ZM159.743 25.1L159.54 25.3216L159.545 25.3258L159.743 25.1ZM160.483 25.74L160.289 25.969L160.298 25.977L160.308 25.9841L160.483 25.74ZM161.323 26.2L161.196 26.4722L161.204 26.4757L161.323 26.2ZM162.523 26.52L162.823 26.5294L162.831 26.2562L162.56 26.2223L162.523 26.52ZM162.503 27.16L162.498 27.46L162.793 27.4649L162.803 27.1694L162.503 27.16ZM160.523 26.8L160.397 27.0725L160.403 27.075L160.523 26.8ZM159.163 25.88L158.95 26.0922L158.954 26.0958L159.163 25.88ZM156.623 23.08L156.396 23.2764L156.398 23.2786L156.623 23.08ZM153.703 19.66L153.478 19.4615L153.308 19.6541L153.472 19.8517L153.703 19.66ZM159.843 12.7V12.4H159.707L159.618 12.5015L159.843 12.7ZM153.323 12.7H153.623V12.4H153.323V12.7ZM153.323 27V27.3H153.623V27H153.323ZM152.363 27H152.063V27.3H152.363V27ZM152.363 12.7V12.4H152.063V12.7H152.363ZM160.737 12.502L154.657 19.422L155.108 19.818L161.188 12.898L160.737 12.502ZM154.652 19.8124C155.468 20.788 156.403 21.8765 157.457 23.0779L157.908 22.6821C156.856 21.4835 155.924 20.3987 155.113 19.4276L154.652 19.8124ZM157.458 23.0793C158.521 24.2752 159.22 25.0287 159.54 25.3215L159.945 24.8785C159.652 24.6113 158.977 23.8848 157.907 22.6807L157.458 23.0793ZM159.545 25.3258C159.865 25.6061 160.114 25.8207 160.289 25.969L160.676 25.511C160.505 25.3659 160.26 25.1539 159.94 24.8742L159.545 25.3258ZM160.308 25.9841C160.517 26.1335 160.817 26.2961 161.196 26.4721L161.449 25.9279C161.081 25.7573 160.821 25.6131 160.657 25.4959L160.308 25.9841ZM161.204 26.4757C161.605 26.6474 162.033 26.7611 162.485 26.8177L162.56 26.2223C162.159 26.1723 161.787 26.0726 161.441 25.9243L161.204 26.4757ZM162.223 26.5106L162.203 27.1506L162.803 27.1694L162.823 26.5294L162.223 26.5106ZM162.508 26.86C161.732 26.8471 161.115 26.7308 160.643 26.525L160.403 27.075C160.971 27.3226 161.673 27.4462 162.498 27.46L162.508 26.86ZM160.648 26.5276C160.157 26.3008 159.732 26.0127 159.371 25.6642L158.954 26.0958C159.367 26.494 159.848 26.8192 160.397 27.0724L160.648 26.5276ZM159.375 25.6679C158.996 25.2892 158.156 24.3636 156.848 22.8814L156.398 23.2786C157.703 24.7564 158.556 25.6975 158.951 26.0921L159.375 25.6679ZM156.849 22.8836C155.556 21.3907 154.585 20.2526 153.933 19.4683L153.472 19.8517C154.127 20.6408 155.102 21.7827 156.396 23.2764L156.849 22.8836ZM153.928 19.8585L160.068 12.8985L159.618 12.5015L153.478 19.4615L153.928 19.8585ZM159.843 13H160.963V12.4H159.843V13ZM153.023 12.7V27H153.623V12.7H153.023ZM153.323 26.7H152.363V27.3H153.323V26.7ZM152.663 27V12.7H152.063V27H152.663ZM152.363 13H153.323V12.4H152.363V13Z" fill="#80DAFD" mask="url(#path-3-outside-1_1269_860)"/>
</svg>
