<svg width="125" height="50" viewBox="0 0 125 50" fill="none" xmlns="http://www.w3.org/2000/svg">
<path d="M54.2037 48.8979C52.0045 48.8979 51.7458 47.4749 51.7458 46.9574V33.3741L40.491 47.863C39.8442 48.6392 39.068 49.0273 38.1624 49.0273C37.2569 49.0273 36.4807 48.6392 35.8338 47.863L24.7084 33.3741V46.9574C24.7084 47.6043 24.4497 48.8979 22.2505 48.8979C20.0512 48.8979 19.9219 47.4749 19.9219 46.9574V27.0352C19.9219 25.7415 20.8274 24.9653 22.3798 24.9653C23.9322 24.9653 24.1909 25.3534 24.8378 26.1296L38.1624 43.4646L51.6164 26.1296C52.1339 25.4828 52.7807 24.8359 54.0744 24.8359C55.368 24.8359 56.5323 25.6121 56.5323 26.9058V46.8281C56.5323 48.1217 55.6268 48.7686 54.0744 48.7686L54.2037 48.8979Z" fill="#003B53"/>
<path d="M72.4448 48.897C70.2456 48.897 69.9869 47.474 69.9869 46.9565V28.9747H61.7075C59.6376 28.9747 59.3789 27.5517 59.3789 27.0342C59.3789 25.7406 60.2845 25.0938 61.7075 25.0938H82.9234C84.3465 25.0938 85.252 25.8699 85.252 27.0342C85.252 28.1985 84.9933 28.9747 82.9234 28.9747H74.7734V46.9565C74.7734 47.6034 74.5147 48.897 72.4448 48.897Z" fill="#003B53"/>
<path d="M122.512 48.8979C120.313 48.8979 120.054 47.4749 120.054 46.9574V33.3741L108.8 47.863C108.153 48.6392 107.377 49.0273 106.471 49.0273C105.565 49.0273 104.789 48.6392 104.142 47.863L93.017 33.3741V46.9574C93.017 47.6043 92.7583 48.8979 90.559 48.8979C88.3598 48.8979 88.2305 47.4749 88.2305 46.9574V27.0352C88.2305 25.7415 89.136 24.9653 90.6884 24.9653C92.2408 24.9653 92.4995 25.3534 93.1464 26.1296L106.471 43.4646L119.925 26.1296C120.442 25.4828 121.089 24.8359 122.383 24.8359C123.677 24.8359 124.841 25.6121 124.841 26.9058V46.8281C124.841 48.1217 123.935 48.7686 122.383 48.7686L122.512 48.8979Z" fill="#003B53"/>
<path d="M10.8667 10.0938L5.43335 19.4081L0 10.0938H10.8667Z" fill="#8E3C97"/>
<path d="M16.3003 19.4081H5.43359L10.8669 10.0938L16.3003 19.4081Z" fill="#AF7EB8"/>
<path d="M10.8669 28.8499L5.43359 19.4062H16.3003L10.8669 28.8499Z" fill="#414190"/>
<path d="M0 28.8499L5.43335 19.4062L10.8667 28.8499H0Z" fill="#615CA0"/>
<path d="M17.207 18.7596L22.6404 9.44531L28.0737 18.7596H17.207Z" fill="#BCCE39"/>
<path d="M11.7734 9.44531H22.6401L17.2068 18.7596L11.7734 9.44531Z" fill="#CED976"/>
<path d="M17.2068 0L22.6401 9.44368H11.7734L17.2068 0Z" fill="#EF812A"/>
<path d="M28.0737 0L22.6404 9.44368L17.207 0H28.0737Z" fill="#F6AC73"/>
</svg>
