<svg width="62" height="62" viewBox="0 0 62 62" fill="none" xmlns="http://www.w3.org/2000/svg">
<path d="M60.0625 4.84375H1.9375C0.868 4.84375 0 5.71175 0 6.78125V55.2188C0 56.2882 0.868 57.1562 1.9375 57.1562H60.0625C61.132 57.1562 62 56.2882 62 55.2188V6.78125C62 5.71175 61.132 4.84375 60.0625 4.84375ZM58.125 8.71875V16.4688H3.875V8.71875H58.125ZM3.875 53.2812V20.3438H58.125V53.2812H3.875Z" fill="#60A5FA"/>
<path d="M9.6875 14.5312C10.1913 14.5312 10.695 14.3278 11.0534 13.9597C11.4216 13.6012 11.625 13.0975 11.625 12.5937C11.625 12.09 11.4216 11.5862 11.0534 11.2181C10.3366 10.5012 9.03844 10.5012 8.31187 11.2278C7.95344 11.5862 7.75 12.0803 7.75 12.5937C7.75 13.1072 7.95344 13.6012 8.32156 13.9693C8.68 14.3278 9.18278 14.5312 9.6875 14.5312Z" fill="#60A5FA"/>
<path d="M15.5 14.5312C16.0038 14.5312 16.5075 14.3278 16.8756 13.9597C17.2341 13.6012 17.4375 13.0975 17.4375 12.5937C17.4375 12.09 17.2341 11.5862 16.8659 11.2181C16.1491 10.5012 14.8509 10.5012 14.1244 11.2278C13.7659 11.5862 13.5625 12.09 13.5625 12.5937C13.5625 13.0975 13.7659 13.6012 14.1341 13.9693C14.4925 14.3278 14.9953 14.5312 15.5 14.5312Z" fill="#60A5FA"/>
<path d="M21.3125 14.5312C21.8259 14.5312 22.32 14.3278 22.6784 13.9597C23.0466 13.6012 23.25 13.1072 23.25 12.5937C23.25 12.09 23.0466 11.5862 22.6784 11.2181C21.9616 10.5012 20.6634 10.5012 19.9369 11.2278C19.5784 11.5862 19.375 12.09 19.375 12.5937C19.375 13.1072 19.5784 13.6012 19.9466 13.9597C20.305 14.3278 20.8078 14.5312 21.3125 14.5312Z" fill="#60A5FA"/>
<path d="M30.0312 24.2188H9.6875C8.618 24.2188 7.75 25.0868 7.75 26.1562C7.75 27.2257 8.618 28.0938 9.6875 28.0938H30.0312C31.1007 28.0938 31.9688 27.2257 31.9688 26.1562C31.9688 25.0868 31.1007 24.2188 30.0312 24.2188Z" fill="#60A5FA"/>
<path d="M30.0312 31.9688H9.6875C8.618 31.9688 7.75 32.8368 7.75 33.9062C7.75 34.9757 8.618 35.8438 9.6875 35.8438H30.0312C31.1007 35.8438 31.9688 34.9757 31.9688 33.9062C31.9688 32.8368 31.1007 31.9688 30.0312 31.9688Z" fill="#60A5FA"/>
<path d="M30.0312 39.7188H9.6875C8.618 39.7188 7.75 40.5868 7.75 41.6562C7.75 42.7257 8.618 43.5938 9.6875 43.5938H30.0312C31.1007 43.5938 31.9688 42.7257 31.9688 41.6562C31.9688 40.5868 31.1007 39.7188 30.0312 39.7188Z" fill="#60A5FA"/>
<path d="M52.3125 24.2188H37.7812C36.7118 24.2188 35.8438 25.0868 35.8438 26.1562V41.6562C35.8438 42.7257 36.7118 43.5938 37.7812 43.5938H52.3125C53.382 43.5938 54.25 42.7257 54.25 41.6562V26.1562C54.25 25.0868 53.382 24.2188 52.3125 24.2188ZM50.375 39.7188H39.7188V28.0938H50.375V39.7188Z" fill="#60A5FA"/>
</svg>
