<svg width="393" height="150" viewBox="0 0 393 150" fill="none" xmlns="http://www.w3.org/2000/svg">
<g clip-path="url(#clip0_1394_1160)">
<mask id="mask0_1394_1160" style="mask-type:luminance" maskUnits="userSpaceOnUse" x="0" y="0" width="393" height="150">
<path d="M393 0H0V150H393V0Z" fill="white"/>
</mask>
<g mask="url(#mask0_1394_1160)">
<path d="M113.268 48.99C112.891 48.5006 112.406 48.105 111.851 47.8344C111.296 47.5637 110.686 47.4253 110.068 47.43H104.388V26.29C104.391 25.2218 103.972 24.1956 103.224 23.4337C102.475 22.6719 101.456 22.2358 100.388 22.22H87.0882V14.64C87.0882 13.5623 86.6608 12.5286 85.8997 11.7656C85.1385 11.0026 84.1058 10.5726 83.0281 10.57H69.7781V4.07C69.7781 2.9923 69.3507 1.95859 68.5895 1.19561C67.8284 0.432619 66.7958 0.00264791 65.7181 0H48.4081C47.3304 0.00264791 46.2977 0.432619 45.5366 1.19561C44.7755 1.95859 44.3481 2.9923 44.3481 4.07V10.57H31.0981C30.03 10.5858 29.0112 11.0219 28.2624 11.7837C27.5137 12.5456 27.0953 13.5718 27.0981 14.64V22.2H13.7881C13.2549 22.2013 12.7272 22.3076 12.2352 22.5129C11.7431 22.7181 11.2962 23.0183 10.9202 23.3962C10.5441 23.7741 10.2461 24.2225 10.0433 24.7155C9.84053 25.2086 9.73682 25.7368 9.73813 26.27V47.43H4.05814C3.44585 47.4315 2.84182 47.5714 2.29126 47.8393C1.7407 48.1072 1.25787 48.4962 0.878905 48.9771C0.49994 49.4581 0.234657 50.0185 0.102911 50.6164C-0.0288348 51.2143 -0.0236315 51.8344 0.118132 52.43C2.76813 63.18 13.5281 112.23 16.2681 123.29C17.3195 127.711 19.8352 131.646 23.4062 134.457C26.9773 137.267 31.3938 138.787 35.9381 138.77H78.1381C82.6817 138.793 87.0997 137.28 90.6743 134.475C94.2489 131.67 96.7701 127.739 97.8281 123.32C100.538 112.32 111.308 63.32 113.988 52.47C114.137 51.8718 114.148 51.2476 114.02 50.6446C113.891 50.0417 113.628 49.4758 113.248 48.99H113.268ZM96.2682 30.36V47.43H93.9381C93.1618 47.4239 92.4006 47.6437 91.7472 48.0628C91.0937 48.4818 90.5763 49.082 90.2581 49.79C89.4537 51.5215 88.399 53.1253 87.1281 54.55V30.36H96.2682ZM78.9381 18.7V60.89C76.0289 62.4564 72.944 63.6716 69.7481 64.51V18.7H78.9381ZM61.6581 8.13V65.95C60.1448 66.09 58.6148 66.16 57.0681 66.16C55.5081 66.16 53.9781 66.09 52.4681 65.95V8.13H61.6581ZM44.3481 18.7V64.51C41.1522 63.6716 38.0672 62.4564 35.1581 60.89V18.7H44.3481ZM17.8481 30.36H27.0481V54.55C25.7842 53.124 24.7364 51.5202 23.9381 49.79C23.6198 49.082 23.1025 48.4818 22.449 48.0628C21.7956 47.6437 21.0343 47.4239 20.2581 47.43H17.8481V30.36ZM89.9781 121.36C89.3569 124.02 87.8471 126.388 85.698 128.073C83.5489 129.759 80.8891 130.661 78.1581 130.63H35.9381C33.2071 130.661 30.5473 129.759 28.3982 128.073C26.2491 126.388 24.7393 124.02 24.1181 121.36C21.4181 110.41 11.4681 65.11 9.18813 55.55H17.7681C24.4181 66.85 39.7681 74.28 57.0481 74.28C74.3281 74.28 89.6681 66.85 96.3181 55.55H104.938C102.638 65.2 92.6881 110.55 90.0081 121.36H89.9781Z" fill="#83C76F"/>
<path d="M57.0679 88.9C54.145 88.892 51.2854 89.7516 48.8512 91.3697C46.4171 92.9878 44.5177 95.2918 43.3937 97.99C42.2696 100.688 41.9714 103.659 42.5368 106.527C43.1022 109.395 44.5057 112.03 46.5698 114.1C48.6338 116.169 51.2655 117.58 54.1316 118.153C56.9978 118.726 59.9696 118.436 62.6708 117.319C65.372 116.203 67.6812 114.31 69.3059 111.88C70.9306 109.45 71.7979 106.593 71.7979 103.67C71.7979 99.7596 70.2473 96.0089 67.486 93.2401C64.7247 90.4713 60.9782 88.9105 57.0679 88.9ZM57.0679 110.31C55.7538 110.314 54.468 109.928 53.3735 109.201C52.2789 108.473 51.4247 107.438 50.9191 106.225C50.4134 105.012 50.2791 103.676 50.533 102.387C50.787 101.098 51.4178 99.9125 52.3456 98.9819C53.2734 98.0513 54.4565 97.4169 55.7451 97.159C57.0337 96.9012 58.3698 97.0315 59.5843 97.5335C60.7987 98.0355 61.8369 98.8865 62.5674 99.9789C63.2979 101.071 63.6879 102.356 63.6879 103.67C63.6879 105.428 62.9911 107.113 61.7501 108.358C60.5092 109.603 58.8254 110.305 57.0679 110.31Z" fill="#83C76F"/>
<path d="M148.686 78.3142C148.686 80.5375 148.272 82.4883 147.444 84.1667C146.616 85.845 145.493 87.2509 144.076 88.3844C142.66 89.496 141.003 90.3352 139.107 90.9019C137.21 91.4686 135.183 91.752 133.025 91.752C131.565 91.752 130.203 91.6321 128.938 91.3923C127.696 91.1526 126.595 90.8692 125.636 90.5423C124.677 90.1935 123.871 89.8339 123.217 89.4633C122.585 89.0928 122.127 88.7658 121.843 88.4825C121.56 88.1991 121.353 87.7959 121.222 87.2727C121.113 86.7278 121.059 85.954 121.059 84.9514C121.059 84.2757 121.081 83.7089 121.124 83.2512C121.168 82.7935 121.233 82.4229 121.32 82.1396C121.429 81.8562 121.56 81.66 121.713 81.5511C121.887 81.4203 122.083 81.3549 122.301 81.3549C122.606 81.3549 123.031 81.5402 123.576 81.9107C124.143 82.2595 124.862 82.6518 125.734 83.0877C126.606 83.5237 127.641 83.9269 128.84 84.2975C130.061 84.6462 131.467 84.8206 133.058 84.8206C134.104 84.8206 135.041 84.7007 135.87 84.4609C136.698 84.1994 137.396 83.8397 137.962 83.382C138.551 82.9243 138.998 82.3575 139.303 81.6818C139.608 81.0061 139.761 80.2541 139.761 79.4259C139.761 78.4668 139.499 77.6494 138.976 76.9737C138.453 76.2762 137.766 75.6659 136.916 75.1428C136.088 74.5979 135.14 74.0965 134.072 73.6388C133.003 73.1593 131.903 72.6579 130.769 72.1348C129.636 71.6117 128.535 71.0232 127.467 70.3693C126.399 69.6936 125.44 68.898 124.59 67.9825C123.762 67.0452 123.086 65.9445 122.563 64.6803C122.04 63.4161 121.778 61.9012 121.778 60.1356C121.778 58.1085 122.149 56.3321 122.89 54.8063C123.653 53.2587 124.666 51.9836 125.93 50.9809C127.216 49.9565 128.72 49.1936 130.442 48.6923C132.186 48.1909 134.028 47.9403 135.968 47.9403C136.971 47.9403 137.973 48.0166 138.976 48.1691C139.978 48.3217 140.916 48.5288 141.788 48.7904C142.66 49.0519 143.433 49.3462 144.109 49.6731C144.785 50.0001 145.232 50.2725 145.45 50.4905C145.667 50.7085 145.809 50.8938 145.875 51.0463C145.962 51.1989 146.027 51.406 146.071 51.6675C146.136 51.9073 146.18 52.2234 146.201 52.6157C146.223 52.9863 146.234 53.4549 146.234 54.0216C146.234 54.6537 146.212 55.1877 146.169 55.6237C146.147 56.0596 146.093 56.4193 146.005 56.7026C145.94 56.986 145.831 57.193 145.678 57.3238C145.548 57.4546 145.362 57.52 145.123 57.52C144.883 57.52 144.501 57.3674 143.978 57.0623C143.455 56.7571 142.812 56.4302 142.049 56.0814C141.286 55.7109 140.404 55.3839 139.401 55.1005C138.398 54.7954 137.297 54.6428 136.099 54.6428C135.161 54.6428 134.344 54.7627 133.646 55.0025C132.949 55.2204 132.36 55.5365 131.881 55.9506C131.423 56.343 131.074 56.8225 130.835 57.3892C130.617 57.9559 130.508 58.5554 130.508 59.1875C130.508 60.1247 130.758 60.9421 131.26 61.6396C131.783 62.3153 132.469 62.9256 133.32 63.4705C134.191 63.9937 135.172 64.495 136.262 64.9745C137.352 65.4323 138.464 65.9227 139.597 66.4458C140.73 66.9689 141.842 67.5684 142.932 68.2441C144.022 68.898 144.992 69.6936 145.842 70.6308C146.692 71.5463 147.379 72.6361 147.902 73.9004C148.425 75.1428 148.686 76.6141 148.686 78.3142ZM172.031 87.0112C172.031 87.9702 171.965 88.7113 171.835 89.2345C171.726 89.7358 171.573 90.0954 171.377 90.3134C171.181 90.5096 170.886 90.6948 170.494 90.8692C170.124 91.0218 169.677 91.1526 169.154 91.2616C168.652 91.3923 168.096 91.4904 167.486 91.5558C166.898 91.6212 166.298 91.6539 165.688 91.6539C164.053 91.6539 162.636 91.4468 161.438 91.0327C160.239 90.6186 159.247 89.9864 158.462 89.1364C157.678 88.2645 157.1 87.1746 156.729 85.8668C156.359 84.559 156.174 83.0114 156.174 81.2241V66.2823H152.675C152.261 66.2823 151.945 66.0317 151.727 65.5304C151.509 65.0072 151.4 64.1463 151.4 62.9474C151.4 62.3153 151.422 61.7813 151.465 61.3454C151.531 60.9094 151.618 60.5716 151.727 60.3318C151.836 60.0702 151.967 59.885 152.119 59.776C152.294 59.667 152.49 59.6125 152.708 59.6125H156.174V53.1061C156.174 52.8882 156.228 52.692 156.337 52.5176C156.468 52.3432 156.686 52.2016 156.991 52.0926C157.318 51.9618 157.743 51.8746 158.266 51.831C158.811 51.7656 159.476 51.7329 160.26 51.7329C161.067 51.7329 161.732 51.7656 162.255 51.831C162.8 51.8746 163.225 51.9618 163.53 52.0926C163.835 52.2016 164.053 52.3432 164.184 52.5176C164.315 52.692 164.38 52.8882 164.38 53.1061V59.6125H170.723C170.941 59.6125 171.126 59.667 171.279 59.776C171.453 59.885 171.595 60.0702 171.704 60.3318C171.813 60.5716 171.889 60.9094 171.933 61.3454C171.998 61.7813 172.031 62.3153 172.031 62.9474C172.031 64.1463 171.922 65.0072 171.704 65.5304C171.486 66.0317 171.17 66.2823 170.756 66.2823H164.38V79.9817C164.38 81.5729 164.631 82.7717 165.132 83.5782C165.633 84.3629 166.527 84.7552 167.813 84.7552C168.249 84.7552 168.641 84.7225 168.99 84.6571C169.339 84.5699 169.644 84.4827 169.906 84.3955C170.189 84.2866 170.418 84.1994 170.592 84.134C170.788 84.0468 170.963 84.0032 171.115 84.0032C171.246 84.0032 171.366 84.0468 171.475 84.134C171.606 84.1994 171.704 84.352 171.769 84.5917C171.835 84.8097 171.889 85.1148 171.933 85.5072C171.998 85.8995 172.031 86.4009 172.031 87.0112ZM206.819 75.012C206.819 77.4968 206.492 79.7637 205.838 81.8126C205.184 83.8615 204.192 85.6271 202.862 87.1093C201.533 88.5914 199.865 89.7358 197.86 90.5423C195.855 91.3487 193.512 91.752 190.831 91.752C188.237 91.752 185.981 91.3923 184.063 90.673C182.145 89.9538 180.553 88.9075 179.289 87.5343C178.025 86.1611 177.088 84.4718 176.477 82.4665C175.867 80.4612 175.562 78.1725 175.562 75.6005C175.562 73.1157 175.889 70.8488 176.543 68.7999C177.218 66.7292 178.221 64.9636 179.551 63.5032C180.88 62.0211 182.537 60.8767 184.52 60.0702C186.526 59.2638 188.869 58.8605 191.55 58.8605C194.166 58.8605 196.432 59.2202 198.351 59.9395C200.269 60.637 201.849 61.6723 203.091 63.0455C204.356 64.4187 205.293 66.108 205.903 68.1133C206.513 70.1186 206.819 72.4182 206.819 75.012ZM198.351 75.3389C198.351 73.9004 198.231 72.5816 197.991 71.3828C197.773 70.1622 197.391 69.105 196.847 68.2114C196.302 67.3177 195.571 66.6202 194.656 66.1189C193.762 65.6175 192.629 65.3669 191.256 65.3669C190.035 65.3669 188.967 65.5957 188.051 66.0535C187.136 66.4894 186.384 67.1433 185.796 68.0152C185.207 68.8653 184.76 69.9006 184.455 71.1213C184.172 72.3201 184.03 73.6933 184.03 75.2409C184.03 76.6795 184.15 78.0091 184.39 79.2297C184.629 80.4285 185.011 81.4748 185.534 82.3684C186.079 83.2621 186.809 83.9596 187.725 84.4609C188.64 84.9405 189.773 85.1802 191.125 85.1802C192.367 85.1802 193.446 84.9623 194.362 84.5263C195.277 84.0686 196.029 83.4147 196.618 82.5646C197.206 81.7145 197.642 80.6901 197.925 79.4913C198.209 78.2706 198.351 76.8865 198.351 75.3389ZM232.092 63.4379C232.092 64.2225 232.07 64.8655 232.027 65.3669C231.983 65.8682 231.918 66.2605 231.831 66.5439C231.743 66.8273 231.623 67.0234 231.471 67.1324C231.34 67.2414 231.166 67.2959 230.948 67.2959C230.773 67.2959 230.577 67.2632 230.359 67.1978C230.141 67.1106 229.891 67.0234 229.607 66.9363C229.346 66.8491 229.051 66.7728 228.724 66.7074C228.398 66.6202 228.038 66.5766 227.646 66.5766C227.188 66.5766 226.73 66.6747 226.272 66.8709C225.815 67.0452 225.335 67.3286 224.834 67.7209C224.354 68.1133 223.842 68.6364 223.297 69.2903C222.774 69.9442 222.207 70.7507 221.597 71.7098V89.8884C221.597 90.1063 221.531 90.3025 221.401 90.4769C221.27 90.6295 221.041 90.7602 220.714 90.8692C220.409 90.9782 219.995 91.0545 219.472 91.0981C218.949 91.1635 218.284 91.1962 217.477 91.1962C216.671 91.1962 216.006 91.1635 215.483 91.0981C214.96 91.0545 214.535 90.9782 214.208 90.8692C213.903 90.7602 213.685 90.6295 213.554 90.4769C213.423 90.3025 213.358 90.1063 213.358 89.8884V60.7241C213.358 60.5062 213.412 60.3209 213.521 60.1683C213.63 59.9939 213.826 59.8523 214.11 59.7433C214.393 59.6343 214.753 59.558 215.189 59.5144C215.646 59.449 216.213 59.4163 216.889 59.4163C217.586 59.4163 218.164 59.449 218.622 59.5144C219.079 59.558 219.428 59.6343 219.668 59.7433C219.929 59.8523 220.115 59.9939 220.224 60.1683C220.333 60.3209 220.387 60.5062 220.387 60.7241V64.3533C221.15 63.2635 221.869 62.3698 222.545 61.6723C223.221 60.953 223.864 60.3863 224.474 59.9721C225.084 59.558 225.695 59.2746 226.305 59.1221C226.915 58.9477 227.526 58.8605 228.136 58.8605C228.419 58.8605 228.724 58.8823 229.051 58.9259C229.378 58.9477 229.716 59.0022 230.065 59.0894C230.414 59.1548 230.719 59.242 230.98 59.3509C231.242 59.4381 231.427 59.5362 231.536 59.6452C231.667 59.7542 231.754 59.8741 231.798 60.0048C231.863 60.1356 231.918 60.3209 231.961 60.5607C232.005 60.7786 232.038 61.1165 232.059 61.5742C232.081 62.032 232.092 62.6532 232.092 63.4379ZM263.316 74.4562C263.316 75.4588 263.087 76.1999 262.63 76.6795C262.194 77.159 261.583 77.3988 260.799 77.3988H243.045C243.045 78.6412 243.187 79.7746 243.47 80.7991C243.775 81.8017 244.244 82.6627 244.876 83.382C245.53 84.0795 246.358 84.6135 247.361 84.9841C248.385 85.3546 249.606 85.5399 251.023 85.5399C252.461 85.5399 253.725 85.4418 254.815 85.2456C255.905 85.0277 256.842 84.7988 257.627 84.559C258.434 84.2975 259.098 84.0686 259.622 83.8724C260.145 83.6545 260.57 83.5455 260.897 83.5455C261.093 83.5455 261.256 83.5891 261.387 83.6763C261.518 83.7416 261.627 83.8724 261.714 84.0686C261.801 84.2648 261.856 84.5481 261.878 84.9187C261.921 85.2674 261.943 85.7143 261.943 86.2592C261.943 86.7387 261.932 87.1529 261.91 87.5016C261.888 87.8286 261.856 88.1119 261.812 88.3517C261.769 88.5914 261.703 88.7985 261.616 88.9729C261.529 89.1255 261.409 89.278 261.256 89.4306C261.126 89.5832 260.744 89.7903 260.112 90.0518C259.48 90.3134 258.673 90.575 257.693 90.8365C256.712 91.0763 255.589 91.2834 254.325 91.4577C253.061 91.6539 251.709 91.752 250.271 91.752C247.677 91.752 245.399 91.425 243.437 90.7711C241.497 90.1172 239.874 89.1255 238.566 87.7959C237.258 86.4663 236.277 84.7879 235.623 82.7608C234.991 80.7337 234.675 78.3578 234.675 75.6332C234.675 73.0394 235.013 70.7071 235.689 68.6364C236.364 66.5439 237.345 64.7784 238.631 63.3398C239.917 61.8794 241.476 60.7677 243.307 60.0048C245.159 59.242 247.241 58.8605 249.551 58.8605C251.993 58.8605 254.074 59.2202 255.796 59.9395C257.54 60.6588 258.968 61.6614 260.079 62.9474C261.191 64.2116 262.008 65.7156 262.531 67.4594C263.055 69.2031 263.316 71.0995 263.316 73.1484V74.4562ZM255.338 72.1021C255.404 69.7916 254.935 67.9825 253.933 66.6747C252.952 65.3451 251.426 64.6803 249.355 64.6803C248.309 64.6803 247.393 64.8764 246.609 65.2688C245.846 65.6611 245.203 66.1952 244.68 66.8709C244.178 67.5248 243.786 68.3095 243.503 69.2249C243.241 70.1186 243.089 71.0777 243.045 72.1021H255.338ZM287.184 49.6077C287.184 50.2398 287.162 50.7521 287.118 51.1444C287.075 51.515 287.009 51.8092 286.922 52.0272C286.835 52.2234 286.737 52.365 286.628 52.4522C286.519 52.5176 286.399 52.5503 286.268 52.5503C286.116 52.5503 285.941 52.5176 285.745 52.4522C285.571 52.365 285.342 52.2779 285.058 52.1907C284.797 52.1035 284.481 52.0272 284.11 51.9618C283.74 51.8746 283.304 51.831 282.803 51.831C282.214 51.831 281.702 51.9291 281.266 52.1253C280.852 52.2996 280.503 52.5939 280.22 53.008C279.936 53.4004 279.729 53.9235 279.598 54.5774C279.468 55.2095 279.402 55.9942 279.402 56.9315V59.6125H284.732C284.928 59.6125 285.102 59.667 285.255 59.776C285.429 59.885 285.571 60.0702 285.68 60.3318C285.789 60.5716 285.865 60.9094 285.909 61.3454C285.974 61.7813 286.007 62.3153 286.007 62.9474C286.007 64.1463 285.898 65.0072 285.68 65.5304C285.462 66.0317 285.146 66.2823 284.732 66.2823H279.402V89.8884C279.402 90.1063 279.337 90.3025 279.206 90.4769C279.075 90.6295 278.857 90.7602 278.552 90.8692C278.247 90.9782 277.822 91.0545 277.277 91.0981C276.732 91.1635 276.067 91.1962 275.283 91.1962C274.498 91.1962 273.833 91.1635 273.288 91.0981C272.765 91.0545 272.34 90.9782 272.013 90.8692C271.708 90.7602 271.49 90.6295 271.359 90.4769C271.25 90.3025 271.196 90.1063 271.196 89.8884V66.2823H267.534C267.12 66.2823 266.804 66.0317 266.586 65.5304C266.389 65.0072 266.291 64.1463 266.291 62.9474C266.291 62.3153 266.313 61.7813 266.357 61.3454C266.422 60.9094 266.498 60.5716 266.586 60.3318C266.695 60.0702 266.825 59.885 266.978 59.776C267.152 59.667 267.349 59.6125 267.567 59.6125H271.196V57.1604C271.196 55.1768 271.392 53.444 271.784 51.9618C272.177 50.4578 272.787 49.2154 273.615 48.2345C274.465 47.2319 275.533 46.4799 276.819 45.9786C278.127 45.4772 279.664 45.2266 281.429 45.2266C282.279 45.2266 283.086 45.3029 283.849 45.4554C284.612 45.5862 285.211 45.7388 285.647 45.9132C286.083 46.0657 286.377 46.2183 286.53 46.3709C286.682 46.5017 286.802 46.7088 286.889 46.9921C286.998 47.2537 287.075 47.6024 287.118 48.0384C287.162 48.4525 287.184 48.9756 287.184 49.6077ZM309.515 63.4379C309.515 64.2225 309.493 64.8655 309.449 65.3669C309.406 65.8682 309.34 66.2605 309.253 66.5439C309.166 66.8273 309.046 67.0234 308.893 67.1324C308.763 67.2414 308.588 67.2959 308.37 67.2959C308.196 67.2959 308 67.2632 307.782 67.1978C307.564 67.1106 307.313 67.0234 307.03 66.9363C306.768 66.8491 306.474 66.7728 306.147 66.7074C305.82 66.6202 305.46 66.5766 305.068 66.5766C304.61 66.5766 304.153 66.6747 303.695 66.8709C303.237 67.0452 302.758 67.3286 302.256 67.7209C301.777 68.1133 301.264 68.6364 300.72 69.2903C300.196 69.9442 299.63 70.7507 299.019 71.7098V89.8884C299.019 90.1063 298.954 90.3025 298.823 90.4769C298.692 90.6295 298.464 90.7602 298.137 90.8692C297.831 90.9782 297.417 91.0545 296.894 91.0981C296.371 91.1635 295.706 91.1962 294.9 91.1962C294.093 91.1962 293.428 91.1635 292.905 91.0981C292.382 91.0545 291.957 90.9782 291.63 90.8692C291.325 90.7602 291.107 90.6295 290.976 90.4769C290.846 90.3025 290.78 90.1063 290.78 89.8884V60.7241C290.78 60.5062 290.835 60.3209 290.944 60.1683C291.053 59.9939 291.249 59.8523 291.532 59.7433C291.816 59.6343 292.175 59.558 292.611 59.5144C293.069 59.449 293.636 59.4163 294.311 59.4163C295.009 59.4163 295.586 59.449 296.044 59.5144C296.502 59.558 296.851 59.6343 297.09 59.7433C297.352 59.8523 297.537 59.9939 297.646 60.1683C297.755 60.3209 297.81 60.5062 297.81 60.7241V64.3533C298.573 63.2635 299.292 62.3698 299.968 61.6723C300.643 60.953 301.286 60.3863 301.897 59.9721C302.507 59.558 303.117 59.2746 303.728 59.1221C304.338 58.9477 304.948 58.8605 305.558 58.8605C305.842 58.8605 306.147 58.8823 306.474 58.9259C306.801 58.9477 307.139 59.0022 307.487 59.0894C307.836 59.1548 308.141 59.242 308.403 59.3509C308.665 59.4381 308.85 59.5362 308.959 59.6452C309.09 59.7542 309.177 59.8741 309.22 60.0048C309.286 60.1356 309.34 60.3209 309.384 60.5607C309.427 60.7786 309.46 61.1165 309.482 61.5742C309.504 62.032 309.515 62.6532 309.515 63.4379ZM322.822 89.8884C322.822 90.1063 322.756 90.3025 322.625 90.4769C322.495 90.6295 322.266 90.7602 321.939 90.8692C321.634 90.9782 321.22 91.0545 320.696 91.0981C320.173 91.1635 319.508 91.1962 318.702 91.1962C317.895 91.1962 317.231 91.1635 316.708 91.0981C316.184 91.0545 315.759 90.9782 315.432 90.8692C315.127 90.7602 314.909 90.6295 314.779 90.4769C314.648 90.3025 314.582 90.1063 314.582 89.8884V60.7895C314.582 60.5716 314.648 60.3863 314.779 60.2337C314.909 60.0593 315.127 59.9177 315.432 59.8087C315.759 59.6779 316.184 59.5798 316.708 59.5144C317.231 59.449 317.895 59.4163 318.702 59.4163C319.508 59.4163 320.173 59.449 320.696 59.5144C321.22 59.5798 321.634 59.6779 321.939 59.8087C322.266 59.9177 322.495 60.0593 322.625 60.2337C322.756 60.3863 322.822 60.5716 322.822 60.7895V89.8884ZM323.443 50.8502C323.443 52.5067 323.105 53.6511 322.429 54.2832C321.754 54.9153 320.5 55.2313 318.669 55.2313C316.817 55.2313 315.563 54.9262 314.909 54.3159C314.277 53.7055 313.961 52.6048 313.961 51.0136C313.961 49.3571 314.288 48.2127 314.942 47.5806C315.618 46.9267 316.882 46.5998 318.735 46.5998C320.566 46.5998 321.808 46.9158 322.462 47.5479C323.116 48.1582 323.443 49.259 323.443 50.8502ZM358.002 74.4562C358.002 75.4588 357.773 76.1999 357.315 76.6795C356.879 77.159 356.269 77.3988 355.484 77.3988H337.731C337.731 78.6412 337.872 79.7746 338.156 80.7991C338.461 81.8017 338.929 82.6627 339.562 83.382C340.215 84.0795 341.044 84.6135 342.046 84.9841C343.071 85.3546 344.291 85.5399 345.708 85.5399C347.147 85.5399 348.411 85.4418 349.501 85.2456C350.591 85.0277 351.528 84.7988 352.313 84.559C353.119 84.2975 353.784 84.0686 354.307 83.8724C354.83 83.6545 355.255 83.5455 355.582 83.5455C355.778 83.5455 355.942 83.5891 356.073 83.6763C356.203 83.7416 356.312 83.8724 356.4 84.0686C356.487 84.2648 356.541 84.5481 356.563 84.9187C356.607 85.2674 356.629 85.7143 356.629 86.2592C356.629 86.7387 356.618 87.1529 356.596 87.5016C356.574 87.8286 356.541 88.1119 356.498 88.3517C356.454 88.5914 356.389 88.7985 356.302 88.9729C356.214 89.1255 356.095 89.278 355.942 89.4306C355.811 89.5832 355.43 89.7903 354.798 90.0518C354.165 90.3134 353.359 90.575 352.378 90.8365C351.397 91.0763 350.275 91.2834 349.011 91.4577C347.746 91.6539 346.395 91.752 344.956 91.752C342.362 91.752 340.085 91.425 338.123 90.7711C336.183 90.1172 334.559 89.1255 333.251 87.7959C331.944 86.4663 330.963 84.7879 330.309 82.7608C329.677 80.7337 329.361 78.3578 329.361 75.6332C329.361 73.0394 329.698 70.7071 330.374 68.6364C331.05 66.5439 332.031 64.7784 333.317 63.3398C334.603 61.8794 336.161 60.7677 337.992 60.0048C339.845 59.242 341.927 58.8605 344.237 58.8605C346.678 58.8605 348.76 59.2202 350.482 59.9395C352.226 60.6588 353.653 61.6614 354.765 62.9474C355.877 64.2116 356.694 65.7156 357.217 67.4594C357.74 69.2031 358.002 71.0995 358.002 73.1484V74.4562ZM350.024 72.1021C350.089 69.7916 349.621 67.9825 348.618 66.6747C347.637 65.3451 346.112 64.6803 344.041 64.6803C342.995 64.6803 342.079 64.8764 341.294 65.2688C340.532 65.6611 339.889 66.1952 339.365 66.8709C338.864 67.5248 338.472 68.3095 338.188 69.2249C337.927 70.1186 337.774 71.0777 337.731 72.1021H350.024ZM385.335 81.6491C385.335 83.3057 385.019 84.7661 384.387 86.0303C383.777 87.2945 382.905 88.3517 381.771 89.2018C380.638 90.0518 379.297 90.6839 377.75 91.0981C376.202 91.534 374.524 91.752 372.715 91.752C371.625 91.752 370.579 91.6648 369.576 91.4904C368.595 91.3379 367.712 91.1417 366.928 90.9019C366.143 90.6404 365.489 90.3788 364.966 90.1172C364.443 89.8557 364.061 89.6159 363.821 89.3979C363.582 89.1582 363.396 88.7985 363.266 88.319C363.135 87.8177 363.07 87.0875 363.07 86.1284C363.07 85.4963 363.091 84.995 363.135 84.6244C363.178 84.2321 363.244 83.9269 363.331 83.7089C363.418 83.4692 363.527 83.3166 363.658 83.2512C363.789 83.164 363.952 83.1204 364.148 83.1204C364.388 83.1204 364.737 83.2621 365.195 83.5455C365.674 83.807 366.263 84.1013 366.96 84.4282C367.658 84.7552 368.464 85.0604 369.38 85.3437C370.317 85.6271 371.374 85.7688 372.551 85.7688C373.292 85.7688 373.946 85.6925 374.513 85.5399C375.101 85.3873 375.603 85.1693 376.017 84.886C376.453 84.6026 376.78 84.243 376.998 83.807C377.216 83.3711 377.325 82.8698 377.325 82.303C377.325 81.6491 377.118 81.0933 376.703 80.6356C376.311 80.1561 375.777 79.7419 375.101 79.3932C374.447 79.0444 373.695 78.7175 372.845 78.4123C372.017 78.1071 371.156 77.7693 370.262 77.3988C369.391 77.0282 368.53 76.6032 367.68 76.1236C366.851 75.6441 366.099 75.0556 365.424 74.3581C364.77 73.6606 364.236 72.8214 363.821 71.8405C363.429 70.8597 363.233 69.6827 363.233 68.3095C363.233 66.9145 363.505 65.6393 364.05 64.4841C364.595 63.3071 365.38 62.3044 366.404 61.4761C367.429 60.6479 368.671 60.0048 370.132 59.5471C371.614 59.0894 373.27 58.8605 375.101 58.8605C376.017 58.8605 376.9 58.9259 377.75 59.0567C378.622 59.1875 379.406 59.3509 380.104 59.5471C380.801 59.7433 381.39 59.9613 381.869 60.201C382.349 60.419 382.687 60.6152 382.883 60.7895C383.101 60.9421 383.253 61.1056 383.341 61.28C383.428 61.4325 383.493 61.6287 383.537 61.8685C383.58 62.0864 383.613 62.3698 383.635 62.7186C383.678 63.0455 383.7 63.4596 383.7 63.961C383.7 64.5495 383.678 65.029 383.635 65.3996C383.613 65.7701 383.559 66.0644 383.471 66.2823C383.406 66.5003 383.308 66.6529 383.177 66.7401C383.046 66.8055 382.894 66.8382 382.719 66.8382C382.523 66.8382 382.218 66.7292 381.804 66.5112C381.39 66.2714 380.867 66.0208 380.235 65.7592C379.624 65.4977 378.905 65.2579 378.077 65.0399C377.27 64.8002 376.344 64.6803 375.298 64.6803C374.556 64.6803 373.913 64.7566 373.369 64.9091C372.824 65.0617 372.377 65.2797 372.028 65.563C371.679 65.8464 371.418 66.1843 371.243 66.5766C371.069 66.9471 370.982 67.3504 370.982 67.7863C370.982 68.462 371.189 69.0288 371.603 69.4865C372.017 69.9442 372.562 70.3475 373.238 70.6962C373.913 71.045 374.676 71.3719 375.526 71.6771C376.398 71.9822 377.27 72.3201 378.142 72.6906C379.036 73.0394 379.908 73.4535 380.758 73.933C381.63 74.4126 382.403 75.0011 383.079 75.6986C383.755 76.3961 384.3 77.2353 384.714 78.2161C385.128 79.1752 385.335 80.3195 385.335 81.6491Z" fill="#265983"/>
<path d="M133.963 128.836C132.252 129.802 130.352 130.285 128.261 130.285C125.83 130.285 123.862 129.501 122.358 127.933C120.861 126.365 120.113 124.291 120.113 121.709C120.113 119.072 120.944 116.91 122.607 115.223C124.278 113.529 126.392 112.681 128.95 112.681C130.803 112.681 132.359 112.982 133.618 113.584V115.794C132.24 114.923 130.609 114.487 128.724 114.487C126.816 114.487 125.252 115.144 124.032 116.459C122.813 117.773 122.203 119.476 122.203 121.566C122.203 123.72 122.769 125.415 123.902 126.65C125.034 127.878 126.57 128.491 128.51 128.491C129.841 128.491 130.993 128.226 131.967 127.696V122.921H128.237V121.115H133.963V128.836ZM147.444 124.405H138.856C138.888 125.759 139.252 126.805 139.949 127.541C140.646 128.278 141.604 128.646 142.824 128.646C144.194 128.646 145.453 128.195 146.601 127.292V129.121C145.532 129.897 144.119 130.285 142.361 130.285C140.642 130.285 139.292 129.735 138.31 128.634C137.328 127.525 136.837 125.969 136.837 123.966C136.837 122.073 137.372 120.533 138.441 119.345C139.518 118.149 140.852 117.552 142.444 117.552C144.035 117.552 145.267 118.066 146.138 119.096C147.009 120.125 147.444 121.555 147.444 123.384V124.405ZM145.449 122.754C145.441 121.63 145.168 120.755 144.629 120.129C144.099 119.504 143.358 119.191 142.408 119.191C141.489 119.191 140.709 119.519 140.068 120.177C139.427 120.834 139.031 121.693 138.88 122.754H145.449ZM155.486 130.285C153.688 130.285 152.251 129.719 151.174 128.586C150.105 127.446 149.571 125.938 149.571 124.061C149.571 122.018 150.129 120.422 151.245 119.274C152.362 118.126 153.871 117.552 155.771 117.552C157.585 117.552 158.998 118.11 160.012 119.226C161.033 120.343 161.544 121.891 161.544 123.871C161.544 125.811 160.994 127.367 159.893 128.539C158.8 129.703 157.331 130.285 155.486 130.285ZM155.629 119.191C154.377 119.191 153.388 119.618 152.659 120.474C151.93 121.321 151.566 122.493 151.566 123.99C151.566 125.431 151.934 126.567 152.671 127.399C153.407 128.23 154.393 128.646 155.629 128.646C156.888 128.646 157.854 128.238 158.527 127.422C159.208 126.607 159.548 125.447 159.548 123.942C159.548 122.422 159.208 121.25 158.527 120.426C157.854 119.603 156.888 119.191 155.629 119.191ZM163.92 129.561V127.47C164.981 128.254 166.149 128.646 167.424 128.646C169.134 128.646 169.989 128.076 169.989 126.935C169.989 126.611 169.914 126.338 169.764 126.116C169.621 125.886 169.423 125.684 169.17 125.51C168.924 125.336 168.631 125.181 168.291 125.047C167.958 124.904 167.598 124.758 167.21 124.607C166.671 124.393 166.196 124.18 165.784 123.966C165.381 123.744 165.04 123.499 164.763 123.229C164.494 122.952 164.288 122.639 164.145 122.291C164.011 121.943 163.943 121.535 163.943 121.068C163.943 120.497 164.074 119.995 164.335 119.559C164.597 119.116 164.945 118.747 165.381 118.454C165.816 118.153 166.311 117.928 166.865 117.777C167.428 117.627 168.006 117.552 168.6 117.552C169.653 117.552 170.595 117.734 171.427 118.098V120.07C170.532 119.484 169.502 119.191 168.338 119.191C167.974 119.191 167.645 119.234 167.352 119.321C167.059 119.401 166.806 119.515 166.592 119.666C166.386 119.816 166.224 119.999 166.105 120.212C165.994 120.418 165.939 120.648 165.939 120.901C165.939 121.218 165.994 121.483 166.105 121.697C166.224 121.911 166.394 122.101 166.616 122.267C166.838 122.434 167.107 122.584 167.424 122.719C167.74 122.853 168.101 123 168.505 123.158C169.043 123.364 169.526 123.578 169.954 123.8C170.381 124.013 170.746 124.259 171.047 124.536C171.347 124.805 171.577 125.118 171.735 125.474C171.902 125.831 171.985 126.254 171.985 126.745C171.985 127.347 171.85 127.87 171.581 128.313C171.32 128.757 170.967 129.125 170.524 129.418C170.08 129.711 169.57 129.929 168.992 130.071C168.414 130.214 167.808 130.285 167.174 130.285C165.923 130.285 164.838 130.044 163.92 129.561ZM180.074 130.285C178.276 130.285 176.839 129.719 175.762 128.586C174.693 127.446 174.159 125.938 174.159 124.061C174.159 122.018 174.717 120.422 175.833 119.274C176.95 118.126 178.459 117.552 180.359 117.552C182.173 117.552 183.586 118.11 184.6 119.226C185.621 120.343 186.132 121.891 186.132 123.871C186.132 125.811 185.582 127.367 184.481 128.539C183.388 129.703 181.919 130.285 180.074 130.285ZM180.217 119.191C178.965 119.191 177.976 119.618 177.247 120.474C176.518 121.321 176.154 122.493 176.154 123.99C176.154 125.431 176.522 126.567 177.259 127.399C177.995 128.23 178.981 128.646 180.217 128.646C181.476 128.646 182.442 128.238 183.115 127.422C183.796 126.607 184.136 125.447 184.136 123.942C184.136 122.422 183.796 121.25 183.115 120.426C182.442 119.603 181.476 119.191 180.217 119.191ZM197.535 129.442C196.601 130.004 195.492 130.285 194.209 130.285C192.475 130.285 191.073 129.723 190.004 128.598C188.943 127.466 188.413 126.001 188.413 124.203C188.413 122.2 188.987 120.592 190.135 119.381C191.283 118.161 192.815 117.552 194.732 117.552C195.801 117.552 196.743 117.75 197.559 118.145V120.141C196.656 119.508 195.69 119.191 194.661 119.191C193.417 119.191 192.396 119.638 191.596 120.533C190.804 121.42 190.408 122.588 190.408 124.037C190.408 125.463 190.78 126.587 191.525 127.411C192.277 128.234 193.283 128.646 194.542 128.646C195.603 128.646 196.601 128.293 197.535 127.589V129.442ZM201.479 114.748C201.13 114.748 200.833 114.63 200.588 114.392C200.342 114.154 200.22 113.853 200.22 113.489C200.22 113.125 200.342 112.824 200.588 112.586C200.833 112.341 201.13 112.218 201.479 112.218C201.835 112.218 202.136 112.341 202.381 112.586C202.635 112.824 202.762 113.125 202.762 113.489C202.762 113.838 202.635 114.135 202.381 114.38C202.136 114.626 201.835 114.748 201.479 114.748ZM202.429 130H200.481V117.837H202.429V130ZM215.079 130H213.131V128.099H213.084C212.236 129.557 210.989 130.285 209.342 130.285C208.13 130.285 207.18 129.964 206.491 129.323C205.81 128.682 205.47 127.83 205.47 126.769C205.47 124.496 206.808 123.174 209.485 122.802L213.131 122.291C213.131 120.224 212.296 119.191 210.625 119.191C209.16 119.191 207.837 119.69 206.658 120.687V118.692C207.853 117.932 209.231 117.552 210.791 117.552C213.65 117.552 215.079 119.064 215.079 122.089V130ZM213.131 123.847L210.197 124.251C209.295 124.378 208.614 124.603 208.154 124.928C207.695 125.245 207.465 125.811 207.465 126.627C207.465 127.22 207.675 127.707 208.095 128.088C208.522 128.46 209.089 128.646 209.793 128.646C210.76 128.646 211.555 128.309 212.181 127.636C212.814 126.955 213.131 126.096 213.131 125.059V123.847ZM220.698 130H218.75V111.993H220.698V130ZM233.312 128.242H233.265V135.595H231.317V117.837H233.265V119.975H233.312C234.271 118.359 235.672 117.552 237.517 117.552C239.085 117.552 240.309 118.098 241.188 119.191C242.067 120.276 242.506 121.733 242.506 123.562C242.506 125.597 242.011 127.228 241.021 128.456C240.032 129.675 238.677 130.285 236.959 130.285C235.383 130.285 234.168 129.604 233.312 128.242ZM233.265 123.336V125.035C233.265 126.041 233.59 126.896 234.239 127.601C234.896 128.297 235.728 128.646 236.733 128.646C237.913 128.646 238.836 128.195 239.501 127.292C240.174 126.389 240.511 125.134 240.511 123.526C240.511 122.172 240.198 121.111 239.572 120.343C238.947 119.575 238.099 119.191 237.03 119.191C235.898 119.191 234.987 119.587 234.298 120.379C233.609 121.163 233.265 122.148 233.265 123.336ZM251.961 119.808C251.621 119.547 251.13 119.416 250.488 119.416C249.657 119.416 248.96 119.808 248.398 120.592C247.843 121.376 247.566 122.445 247.566 123.8V130H245.618V117.837H247.566V120.343H247.614C247.891 119.488 248.315 118.823 248.885 118.347C249.455 117.864 250.092 117.623 250.797 117.623C251.304 117.623 251.692 117.678 251.961 117.789V119.808ZM259.159 130.285C257.362 130.285 255.925 129.719 254.848 128.586C253.779 127.446 253.244 125.938 253.244 124.061C253.244 122.018 253.802 120.422 254.919 119.274C256.036 118.126 257.544 117.552 259.445 117.552C261.258 117.552 262.671 118.11 263.685 119.226C264.707 120.343 265.217 121.891 265.217 123.871C265.217 125.811 264.667 127.367 263.566 128.539C262.474 129.703 261.005 130.285 259.159 130.285ZM259.302 119.191C258.051 119.191 257.061 119.618 256.332 120.474C255.604 121.321 255.24 122.493 255.24 123.99C255.24 125.431 255.608 126.567 256.344 127.399C257.081 128.23 258.067 128.646 259.302 128.646C260.561 128.646 261.527 128.238 262.2 127.422C262.881 126.607 263.222 125.447 263.222 123.942C263.222 122.422 262.881 121.25 262.2 120.426C261.527 119.603 260.561 119.191 259.302 119.191ZM285.601 130H283.652V123.016C283.652 121.669 283.443 120.695 283.023 120.094C282.611 119.492 281.914 119.191 280.932 119.191C280.101 119.191 279.392 119.571 278.806 120.331C278.228 121.091 277.939 122.002 277.939 123.063V130H275.991V122.778C275.991 120.387 275.068 119.191 273.223 119.191C272.368 119.191 271.663 119.551 271.109 120.272C270.555 120.984 270.278 121.915 270.278 123.063V130H268.33V117.837H270.278V119.761H270.325C271.188 118.288 272.447 117.552 274.102 117.552C274.934 117.552 275.658 117.785 276.276 118.252C276.894 118.712 277.317 119.317 277.547 120.07C278.45 118.391 279.796 117.552 281.586 117.552C284.262 117.552 285.601 119.203 285.601 122.505V130ZM294.367 130.285C292.569 130.285 291.132 129.719 290.055 128.586C288.986 127.446 288.451 125.938 288.451 124.061C288.451 122.018 289.01 120.422 290.126 119.274C291.243 118.126 292.751 117.552 294.652 117.552C296.465 117.552 297.879 118.11 298.892 119.226C299.914 120.343 300.425 121.891 300.425 123.871C300.425 125.811 299.874 127.367 298.773 128.539C297.681 129.703 296.212 130.285 294.367 130.285ZM294.509 119.191C293.258 119.191 292.268 119.618 291.54 120.474C290.811 121.321 290.447 122.493 290.447 123.99C290.447 125.431 290.815 126.567 291.552 127.399C292.288 128.23 293.274 128.646 294.509 128.646C295.768 128.646 296.734 128.238 297.407 127.422C298.089 126.607 298.429 125.447 298.429 123.942C298.429 122.422 298.089 121.25 297.407 120.426C296.734 119.603 295.768 119.191 294.509 119.191ZM309.179 129.881C308.72 130.135 308.114 130.261 307.361 130.261C305.231 130.261 304.166 129.073 304.166 126.698V119.5H302.076V117.837H304.166V114.867L306.114 114.238V117.837H309.179V119.5H306.114V126.353C306.114 127.169 306.253 127.751 306.53 128.099C306.807 128.448 307.266 128.622 307.908 128.622C308.399 128.622 308.823 128.488 309.179 128.218V129.881ZM321.556 124.405H312.968C313 125.759 313.364 126.805 314.061 127.541C314.758 128.278 315.716 128.646 316.935 128.646C318.305 128.646 319.564 128.195 320.713 127.292V129.121C319.644 129.897 318.23 130.285 316.472 130.285C314.754 130.285 313.404 129.735 312.422 128.634C311.44 127.525 310.949 125.969 310.949 123.966C310.949 122.073 311.483 120.533 312.552 119.345C313.629 118.149 314.964 117.552 316.555 117.552C318.147 117.552 319.378 118.066 320.249 119.096C321.12 120.125 321.556 121.555 321.556 123.384V124.405ZM319.56 122.754C319.553 121.63 319.279 120.755 318.741 120.129C318.21 119.504 317.47 119.191 316.52 119.191C315.601 119.191 314.821 119.519 314.18 120.177C313.538 120.834 313.142 121.693 312.992 122.754H319.56Z" fill="#265983"/>
</g>
</g>
<defs>
<clipPath id="clip0_1394_1160">
<rect width="393" height="150" fill="white"/>
</clipPath>
</defs>
</svg>
