<svg width="62" height="62" viewBox="0 0 62 62" fill="none" xmlns="http://www.w3.org/2000/svg">
<g clip-path="url(#clip0_301_431)">
<path d="M34.875 32.9375L39.7188 37.7812" stroke="#4ADE80" stroke-width="2" stroke-miterlimit="10"/>
<path d="M55.22 59.0935L61.0322 53.2812L42.6262 34.8752L36.8139 40.6875L55.22 59.0935Z" stroke="#4ADE80" stroke-width="2" stroke-miterlimit="10"/>
<path d="M11.625 15.5L17.4375 9.6875L7.75 3.875L5.8125 5.8125L11.625 15.5Z" stroke="#4ADE80" stroke-width="2" stroke-miterlimit="10"/>
<path d="M27.125 25.1875L14.5312 12.5938" stroke="#4ADE80" stroke-width="2" stroke-miterlimit="10"/>
<path d="M56.1875 12.1089L48.4375 15.7417L44.5625 11.7456L47.9531 3.93555C38.2656 3.93458 35.8438 8.71827 35.8438 13.562V17.437L3.39062 50.3745L1.69531 56.187L3.75391 58.1245L9.62647 56.6714L42.625 24.2183H46.5C51.3438 24.2183 56.1875 21.7964 56.1875 12.1089Z" stroke="#4ADE80" stroke-width="2" stroke-miterlimit="10"/>
</g>
<defs>
<clipPath id="clip0_301_431">
<rect width="62" height="62" fill="white"/>
</clipPath>
</defs>
</svg>
