<svg width="287" height="179" viewBox="0 0 287 179" fill="none" xmlns="http://www.w3.org/2000/svg">
<g filter="url(#filter0_dd_2870_1623)">
<mask id="path-1-outside-1_2870_1623" maskUnits="userSpaceOnUse" x="30" y="30" width="227" height="119" fill="black">
<rect fill="white" x="30" y="30" width="227" height="119"/>
<path d="M30 62C30 44.3269 44.3269 30 62 30H222.4C240.074 30 254.4 44.3269 254.4 62V115C254.4 132.673 240.074 147 222.4 147H62C44.3269 147 30 132.673 30 115V62Z"/>
</mask>
<path d="M30 62C30 44.3269 44.3269 30 62 30H222.4C240.074 30 254.4 44.3269 254.4 62V115C254.4 132.673 240.074 147 222.4 147H62C44.3269 147 30 132.673 30 115V62Z" fill="white"/>
<path d="M30 30H254.4H30ZM256.4 115C256.4 133.778 241.178 149 222.4 149H64C45.2223 149 30 133.778 30 115C30 131.569 44.3269 145 62 145H222.4C238.969 145 252.4 131.569 252.4 115H256.4ZM30 147V30V147ZM222.4 30C241.178 30 256.4 45.2223 256.4 64V115C256.4 133.778 241.178 149 222.4 149V145C238.969 145 252.4 131.569 252.4 115V62C252.4 44.3269 238.969 30 222.4 30Z" fill="url(#paint0_linear_2870_1623)" mask="url(#path-1-outside-1_2870_1623)"/>
</g>
<path d="M136.963 96.7408C136.963 99.9284 136.248 102.747 134.817 105.196C133.425 107.606 131.53 109.491 129.132 110.852C126.773 112.212 124.124 112.893 121.185 112.893C118.246 112.893 115.578 112.212 113.181 110.852C110.822 109.491 108.927 107.606 107.496 105.196C106.104 102.747 105.408 99.9284 105.408 96.7408C105.408 93.5532 106.104 90.7543 107.496 88.3442C108.927 85.8952 110.822 83.9904 113.181 82.6298C115.578 81.2304 118.246 80.5307 121.185 80.5307C124.124 80.5307 126.773 81.2304 129.132 82.6298C131.53 83.9904 133.425 85.8952 134.817 88.3442C136.248 90.7543 136.963 93.5532 136.963 96.7408ZM130.002 96.7408C130.002 94.7583 129.596 93.0479 128.784 91.6096C128.011 90.1324 126.947 88.9856 125.594 88.1693C124.279 87.3529 122.81 86.9448 121.185 86.9448C119.561 86.9448 118.072 87.3529 116.719 88.1693C115.404 88.9856 114.341 90.1324 113.529 91.6096C112.755 93.0479 112.368 94.7583 112.368 96.7408C112.368 98.6845 112.755 100.395 113.529 101.872C114.341 103.31 115.404 104.438 116.719 105.254C118.072 106.07 119.561 106.479 121.185 106.479C122.81 106.479 124.279 106.07 125.594 105.254C126.947 104.438 128.011 103.31 128.784 101.872C129.596 100.395 130.002 98.6845 130.002 96.7408ZM144.164 81.1138C144.899 81.1138 145.575 81.3081 146.194 81.6969C146.813 82.0467 147.277 82.591 147.586 83.3296L156.113 102.922L154.837 103.505L163.538 83.3879C164.195 81.8329 165.22 81.0943 166.612 81.1721C167.579 81.1721 168.352 81.4831 168.933 82.105C169.551 82.6881 169.861 83.4267 169.861 84.3208C169.861 84.5929 169.803 84.8845 169.687 85.1955C169.609 85.5065 169.513 85.798 169.397 86.0701L158.549 110.094C157.931 111.493 156.945 112.232 155.591 112.31C154.856 112.426 154.141 112.29 153.445 111.901C152.788 111.513 152.285 110.91 151.937 110.094L141.148 86.0701C141.07 85.8758 140.974 85.6231 140.858 85.3121C140.78 85.0011 140.742 84.6318 140.742 84.2042C140.742 83.5045 141.051 82.8242 141.67 82.1634C142.288 81.4636 143.12 81.1138 144.164 81.1138ZM181.898 108.753C181.898 109.763 181.57 110.619 180.912 111.318C180.255 111.979 179.423 112.31 178.418 112.31C177.413 112.31 176.581 111.979 175.924 111.318C175.266 110.619 174.938 109.763 174.938 108.753V84.6707C174.938 83.66 175.266 82.8242 175.924 82.1634C176.581 81.4636 177.413 81.1138 178.418 81.1138C179.423 81.1138 180.255 81.4636 180.912 82.1634C181.57 82.8242 181.898 83.66 181.898 84.6707V108.753ZM178.36 77.3236C177.045 77.3236 176.117 77.1098 175.576 76.6822C175.034 76.2546 174.764 75.4966 174.764 74.4081V73.3003C174.764 72.1729 175.054 71.4149 175.634 71.0262C176.252 70.5986 177.181 70.3848 178.418 70.3848C179.771 70.3848 180.719 70.5986 181.26 71.0262C181.802 71.4538 182.072 72.2118 182.072 73.3003V74.4081C182.072 75.5355 181.782 76.3129 181.202 76.7405C180.622 77.1293 179.675 77.3236 178.36 77.3236ZM219.157 96.7408C219.157 99.9284 218.442 102.747 217.011 105.196C215.619 107.606 213.724 109.491 211.326 110.852C208.967 112.212 206.318 112.893 203.379 112.893C200.44 112.893 197.772 112.212 195.375 110.852C193.016 109.491 191.121 107.606 189.69 105.196C188.298 102.747 187.602 99.9284 187.602 96.7408C187.602 93.5532 188.298 90.7543 189.69 88.3442C191.121 85.8952 193.016 83.9904 195.375 82.6298C197.772 81.2304 200.44 80.5307 203.379 80.5307C206.318 80.5307 208.967 81.2304 211.326 82.6298C213.724 83.9904 215.619 85.8952 217.011 88.3442C218.442 90.7543 219.157 93.5532 219.157 96.7408ZM212.196 96.7408C212.196 94.7583 211.79 93.0479 210.978 91.6096C210.205 90.1324 209.141 88.9856 207.788 88.1693C206.473 87.3529 205.004 86.9448 203.379 86.9448C201.755 86.9448 200.266 87.3529 198.913 88.1693C197.598 88.9856 196.535 90.1324 195.723 91.6096C194.949 93.0479 194.563 94.7583 194.563 96.7408C194.563 98.6845 194.949 100.395 195.723 101.872C196.535 103.31 197.598 104.438 198.913 105.254C200.266 106.07 201.755 106.479 203.379 106.479C205.004 106.479 206.473 106.07 207.788 105.254C209.141 104.438 210.205 103.31 210.978 101.872C211.79 100.395 212.196 98.6845 212.196 96.7408Z" fill="#3F3A57"/>
<path d="M62 75.137C62 73.3926 63.4067 71.9785 65.142 71.9785H74.356C76.8166 71.9785 78.8846 73.8367 79.1595 76.2947L82.2541 103.958C82.4191 105.433 83.6599 106.548 85.1362 106.548H98.301C99.6314 106.548 100.791 107.458 101.114 108.755L102.121 112.795H81.9634C78.9956 112.795 76.5066 110.544 76.1949 107.577L73.4834 81.7744C73.2756 79.7966 71.6162 78.2954 69.6378 78.2954H65.142C63.4067 78.2954 62 76.8814 62 75.137Z" fill="#FF448C"/>
<path d="M80.6104 89.4727L82.2511 103.963C82.4179 105.436 83.658 106.549 85.1328 106.549H98.3011C99.6315 106.549 100.791 107.459 101.115 108.756L102.121 112.797H81.9654C78.9968 112.797 76.5074 110.544 76.1967 107.576L75.1611 97.6864C74.9415 95.5901 75.7767 93.5218 77.3876 92.1724L80.6104 89.4727Z" fill="url(#paint1_linear_2870_1623)"/>
<path d="M93.9015 119.524C93.9015 121.134 95.2001 122.439 96.8018 122.439C98.4036 122.439 99.7021 121.134 99.7021 119.524C99.7021 117.914 98.4036 116.608 96.8018 116.608C95.2001 116.608 93.9015 117.914 93.9015 119.524Z" fill="url(#paint2_linear_2870_1623)"/>
<path d="M79.402 119.674C79.402 121.285 80.7005 122.59 82.3023 122.59C83.9041 122.59 85.2026 121.285 85.2026 119.674C85.2026 118.064 83.9041 116.759 82.3023 116.759C80.7005 116.759 79.402 118.064 79.402 119.674Z" fill="url(#paint3_linear_2870_1623)"/>
<defs>
<filter id="filter0_dd_2870_1623" x="0" y="0" width="286.4" height="179" filterUnits="userSpaceOnUse" color-interpolation-filters="sRGB">
<feFlood flood-opacity="0" result="BackgroundImageFix"/>
<feColorMatrix in="SourceAlpha" type="matrix" values="0 0 0 0 0 0 0 0 0 0 0 0 0 0 0 0 0 0 127 0" result="hardAlpha"/>
<feOffset dx="20" dy="20"/>
<feGaussianBlur stdDeviation="5"/>
<feComposite in2="hardAlpha" operator="out"/>
<feColorMatrix type="matrix" values="0 0 0 0 0.919444 0 0 0 0 0.919444 0 0 0 0 0.919444 0 0 0 0.15 0"/>
<feBlend mode="normal" in2="BackgroundImageFix" result="effect1_dropShadow_2870_1623"/>
<feColorMatrix in="SourceAlpha" type="matrix" values="0 0 0 0 0 0 0 0 0 0 0 0 0 0 0 0 0 0 127 0" result="hardAlpha"/>
<feOffset dx="-20" dy="-20"/>
<feGaussianBlur stdDeviation="5"/>
<feComposite in2="hardAlpha" operator="out"/>
<feColorMatrix type="matrix" values="0 0 0 0 0.849957 0 0 0 0 0.849957 0 0 0 0 0.849957 0 0 0 0.1 0"/>
<feBlend mode="normal" in2="effect1_dropShadow_2870_1623" result="effect2_dropShadow_2870_1623"/>
<feBlend mode="normal" in="SourceGraphic" in2="effect2_dropShadow_2870_1623" result="shape"/>
</filter>
<linearGradient id="paint0_linear_2870_1623" x1="132.266" y1="30" x2="132.266" y2="147" gradientUnits="userSpaceOnUse">
<stop stop-color="#C5BAFF"/>
<stop offset="1" stop-color="#80DAFD"/>
</linearGradient>
<linearGradient id="paint1_linear_2870_1623" x1="76.2599" y1="93.6029" x2="95.4533" y2="112.696" gradientUnits="userSpaceOnUse">
<stop stop-color="#F9659E"/>
<stop offset="1" stop-color="#0578FF"/>
</linearGradient>
<linearGradient id="paint2_linear_2870_1623" x1="96.8018" y1="122.439" x2="96.8018" y2="116.608" gradientUnits="userSpaceOnUse">
<stop stop-color="#1877F8"/>
<stop offset="1" stop-color="#FF448C"/>
</linearGradient>
<linearGradient id="paint3_linear_2870_1623" x1="82.3023" y1="122.59" x2="82.3023" y2="116.759" gradientUnits="userSpaceOnUse">
<stop stop-color="#1877F8"/>
<stop offset="1" stop-color="#FF448C"/>
</linearGradient>
</defs>
</svg>
