<svg width="300" height="174" viewBox="0 0 300 174" fill="none" xmlns="http://www.w3.org/2000/svg">
<g filter="url(#filter0_dd_805_462)">
<mask id="path-1-outside-1_805_462" maskUnits="userSpaceOnUse" x="30" y="30" width="240" height="114" fill="black">
<rect fill="white" x="30" y="30" width="240" height="114"/>
<path d="M30 62C30 44.3269 44.3269 30 62 30H236C253.673 30 268 44.3269 268 62V110C268 127.673 253.673 142 236 142H62C44.3269 142 30 127.673 30 110V62Z"/>
</mask>
<path d="M30 62C30 44.3269 44.3269 30 62 30H236C253.673 30 268 44.3269 268 62V110C268 127.673 253.673 142 236 142H62C44.3269 142 30 127.673 30 110V62Z" fill="white"/>
<path d="M30 30H268H30ZM270 110C270 128.778 254.778 144 236 144H64C45.2223 144 30 128.778 30 110C30 126.569 44.3269 140 62 140H236C252.569 140 266 126.569 266 110H270ZM30 142V30V142ZM236 30C254.778 30 270 45.2223 270 64V110C270 128.778 254.778 144 236 144V140C252.569 140 266 126.569 266 110V62C266 44.3269 252.569 30 236 30Z" fill="url(#paint0_linear_805_462)" mask="url(#path-1-outside-1_805_462)"/>
</g>
<path d="M138.687 99.5981C136.996 99.5981 136.797 98.5039 136.797 98.106V87.6611L128.142 98.8023C127.645 99.3991 127.048 99.6976 126.352 99.6976C125.655 99.6976 125.059 99.3991 124.561 98.8023L116.006 87.6611V98.106C116.006 98.6033 115.807 99.5981 114.116 99.5981C112.425 99.5981 112.326 98.5039 112.326 98.106V82.7868C112.326 81.792 113.022 81.1952 114.216 81.1952C115.409 81.1952 115.608 81.4936 116.106 82.0905L126.352 95.4201L136.697 82.0905C137.095 81.5931 137.592 81.0957 138.587 81.0957C139.582 81.0957 140.477 81.6926 140.477 82.6873V98.0065C140.477 99.0012 139.781 99.4986 138.587 99.4986L138.687 99.5981Z" fill="#003B53"/>
<path d="M152.712 99.5984C151.021 99.5984 150.822 98.5041 150.822 98.1062V84.2792H144.456C142.864 84.2792 142.665 83.185 142.665 82.7871C142.665 81.7923 143.361 81.2949 144.456 81.2949H160.77C161.864 81.2949 162.56 81.8918 162.56 82.7871C162.56 83.6823 162.361 84.2792 160.77 84.2792H154.503V98.1062C154.503 98.6036 154.304 99.5984 152.712 99.5984Z" fill="#003B53"/>
<path d="M191.212 99.5981C189.52 99.5981 189.321 98.5039 189.321 98.106V87.6611L180.667 98.8023C180.17 99.3991 179.573 99.6976 178.877 99.6976C178.18 99.6976 177.583 99.3991 177.086 98.8023L168.531 87.6611V98.106C168.531 98.6033 168.332 99.5981 166.641 99.5981C164.95 99.5981 164.851 98.5039 164.851 98.106V82.7868C164.851 81.792 165.547 81.1952 166.741 81.1952C167.934 81.1952 168.133 81.4936 168.631 82.0905L178.877 95.4201L189.222 82.0905C189.62 81.5931 190.117 81.0957 191.112 81.0957C192.107 81.0957 193.002 81.6926 193.002 82.6873V98.0065C193.002 99.0012 192.306 99.4986 191.112 99.4986L191.212 99.5981Z" fill="#003B53"/>
<path d="M105.356 69.7578L101.178 76.92L97 69.7578H105.356Z" fill="#8E3C97"/>
<path d="M109.535 76.92H101.179L105.357 69.7578L109.535 76.92Z" fill="#AF7EB8"/>
<path d="M105.357 84.1875L101.179 76.9258H109.535L105.357 84.1875Z" fill="#414190"/>
<path d="M97 84.1875L101.178 76.9258L105.356 84.1875H97Z" fill="#615CA0"/>
<path d="M110.229 76.4259L114.406 69.2637L118.584 76.4259H110.229Z" fill="#BCCE39"/>
<path d="M106.054 69.2637H114.41L110.232 76.4259L106.054 69.2637Z" fill="#CED976"/>
<path d="M110.232 62L114.41 69.2617H106.054L110.232 62Z" fill="#EF812A"/>
<path d="M118.584 62L114.406 69.2617L110.229 62H118.584Z" fill="#F6AC73"/>
<defs>
<filter id="filter0_dd_805_462" x="0" y="0" width="300" height="174" filterUnits="userSpaceOnUse" color-interpolation-filters="sRGB">
<feFlood flood-opacity="0" result="BackgroundImageFix"/>
<feColorMatrix in="SourceAlpha" type="matrix" values="0 0 0 0 0 0 0 0 0 0 0 0 0 0 0 0 0 0 127 0" result="hardAlpha"/>
<feOffset dx="20" dy="20"/>
<feGaussianBlur stdDeviation="5"/>
<feComposite in2="hardAlpha" operator="out"/>
<feColorMatrix type="matrix" values="0 0 0 0 0.919444 0 0 0 0 0.919444 0 0 0 0 0.919444 0 0 0 0.15 0"/>
<feBlend mode="normal" in2="BackgroundImageFix" result="effect1_dropShadow_805_462"/>
<feColorMatrix in="SourceAlpha" type="matrix" values="0 0 0 0 0 0 0 0 0 0 0 0 0 0 0 0 0 0 127 0" result="hardAlpha"/>
<feOffset dx="-20" dy="-20"/>
<feGaussianBlur stdDeviation="5"/>
<feComposite in2="hardAlpha" operator="out"/>
<feColorMatrix type="matrix" values="0 0 0 0 0.849957 0 0 0 0 0.849957 0 0 0 0 0.849957 0 0 0 0.1 0"/>
<feBlend mode="normal" in2="effect1_dropShadow_805_462" result="effect2_dropShadow_805_462"/>
<feBlend mode="normal" in="SourceGraphic" in2="effect2_dropShadow_805_462" result="shape"/>
</filter>
<linearGradient id="paint0_linear_805_462" x1="138.464" y1="30" x2="138.464" y2="142" gradientUnits="userSpaceOnUse">
<stop stop-color="#C5BAFF"/>
<stop offset="1" stop-color="#80DAFD"/>
</linearGradient>
</defs>
</svg>
