<svg width="85" height="85" viewBox="0 0 85 85" fill="none" xmlns="http://www.w3.org/2000/svg">
<g clip-path="url(#clip0_789_441)">
<path d="M42.5002 77.9173C22.9395 77.9173 7.0835 62.0613 7.0835 42.5006C7.0835 22.94 22.9395 7.08398 42.5002 7.08398C62.0608 7.08398 77.9168 22.94 77.9168 42.5006C77.9168 62.0613 62.0608 77.9173 42.5002 77.9173ZM38.9585 56.6673V63.7506H46.0418V56.6673H49.5835C51.2278 56.6673 52.8397 56.2094 54.2384 55.345C55.6372 54.4805 56.7675 53.2436 57.5029 51.7729C58.2383 50.3021 58.5496 48.6557 58.4019 47.018C58.2542 45.3803 57.6534 43.8161 56.6668 42.5006C57.6534 41.1852 58.2542 39.621 58.4019 37.9833C58.5496 36.3456 58.2383 34.6992 57.5029 33.2284C56.7675 31.7577 55.6372 30.5208 54.2384 29.6563C52.8397 28.7919 51.2278 28.334 49.5835 28.334H46.0418V21.2507H38.9585V28.334H28.3335V56.6673H38.9585ZM35.4168 46.0423H49.5835C50.0532 46.0423 50.5036 46.2289 50.8357 46.561C51.1678 46.8931 51.3543 47.3435 51.3543 47.8131C51.3543 48.2828 51.1678 48.7332 50.8357 49.0653C50.5036 49.3974 50.0532 49.584 49.5835 49.584H35.4168V46.0423ZM35.4168 35.4173H49.5835C50.0532 35.4173 50.5036 35.6039 50.8357 35.936C51.1678 36.2681 51.3543 36.7185 51.3543 37.1882C51.3543 37.6578 51.1678 38.1082 50.8357 38.4403C50.5036 38.7724 50.0532 38.959 49.5835 38.959H35.4168V35.4173Z" fill="url(#paint0_linear_789_441)"/>
</g>
<defs>
<linearGradient id="paint0_linear_789_441" x1="39.3643" y1="7.08398" x2="39.3643" y2="77.9173" gradientUnits="userSpaceOnUse">
<stop stop-color="#C5BAFF"/>
<stop offset="1" stop-color="#80DAFD"/>
</linearGradient>
<clipPath id="clip0_789_441">
<rect width="85" height="85" fill="white"/>
</clipPath>
</defs>
</svg>
