<svg width="85" height="85" viewBox="0 0 85 85" fill="none" xmlns="http://www.w3.org/2000/svg">
<path d="M74.0557 39.3847V23.8368C74.0557 20.9327 71.8599 17.6389 69.1328 16.541L49.4057 8.46602C44.9786 6.65977 39.9849 6.65977 35.5578 8.46602L15.8309 16.541C13.1392 17.6389 10.9434 20.9327 10.9434 23.8368V39.3847C10.9434 56.7035 23.5163 72.9243 40.6932 77.6701C41.862 77.9889 43.137 77.9889 44.3057 77.6701C61.4828 72.9243 74.0557 56.7035 74.0557 39.3847ZM45.1557 45.5826V54.8972C45.1557 56.3493 43.9515 57.5535 42.4995 57.5535C41.0474 57.5535 39.8432 56.3493 39.8432 54.8972V45.5826C36.2661 44.4493 33.6454 41.1202 33.6454 37.1889C33.6454 32.3014 37.612 28.3348 42.4995 28.3348C47.387 28.3348 51.3536 32.3014 51.3536 37.1889C51.3536 41.1556 48.7328 44.4493 45.1557 45.5826Z" fill="url(#paint0_linear_853_61)"/>
<defs>
<linearGradient id="paint0_linear_853_61" x1="39.7055" y1="7.11133" x2="39.7055" y2="77.9092" gradientUnits="userSpaceOnUse">
<stop stop-color="#C5BAFF"/>
<stop offset="1" stop-color="#80DAFD"/>
</linearGradient>
</defs>
</svg>
