<svg width="73" height="69" viewBox="0 0 73 69" fill="none" xmlns="http://www.w3.org/2000/svg">
<path d="M69.8871 66.4064C70.4748 66.4064 71.0309 66.1417 71.401 65.6849C71.7711 65.2283 71.9154 64.6294 71.794 64.0545L70.5667 58.2465C71.2656 57.5703 71.705 56.6262 71.705 55.5766C71.705 54.4716 71.2129 53.4914 70.449 52.8105V32.6411L65.5291 35.6857V52.8105C64.7652 53.4914 64.2729 54.4716 64.2729 55.5766C64.2729 56.6264 64.7124 57.5705 65.4114 58.2465L64.1839 64.0545C64.0625 64.6295 64.207 65.2284 64.5769 65.6849C64.9471 66.1414 65.5031 66.4064 66.0908 66.4064H69.8871ZM71.5547 20.8715L39.5483 1.05865C38.611 0.481256 37.5543 0.191406 36.4976 0.191406C35.4409 0.191406 34.3835 0.481014 33.4518 1.05865L1.44501 20.8715C0.59036 21.4004 0.0712891 22.3344 0.0712891 23.3396C0.0712891 24.3451 0.59036 25.2794 1.44501 25.8091L33.4517 45.6221C34.3834 46.2001 35.4408 46.4894 36.4975 46.4894C37.5542 46.4894 38.611 46.1998 39.5482 45.6221L71.5547 25.8091C72.4094 25.2796 72.9284 24.3451 72.9284 23.3396C72.9284 22.3344 72.4094 21.4001 71.5547 20.8715ZM36.4975 51.4089C34.5037 51.4089 32.5579 50.8552 30.8617 49.8054L12.1921 38.2474V58.1493C12.1921 64.0395 23.0791 68.8077 36.4975 68.8077C49.9206 68.8077 60.8068 64.0394 60.8068 58.1493V38.2474L42.1379 49.8054C40.4417 50.8552 38.4912 51.4089 36.4975 51.4089Z" fill="url(#paint0_linear_789_449)"/>
<defs>
<linearGradient id="paint0_linear_789_449" x1="33.2744" y1="0.191404" x2="33.2744" y2="68.8077" gradientUnits="userSpaceOnUse">
<stop stop-color="#C5BAFF"/>
<stop offset="1" stop-color="#80DAFD"/>
</linearGradient>
</defs>
</svg>
