<svg width="85" height="85" viewBox="0 0 85 85" fill="none" xmlns="http://www.w3.org/2000/svg">
<path d="M77.9168 75.2598H7.0835C5.63141 75.2598 4.42725 76.4639 4.42725 77.916C4.42725 79.3681 5.63141 80.5723 7.0835 80.5723H77.9168C79.3689 80.5723 80.5731 79.3681 80.5731 77.916C80.5731 76.4639 79.3689 75.2598 77.9168 75.2598Z" fill="url(#paint0_linear_789_445)"/>
<path d="M60.2083 7.08398H24.7917C14.1667 7.08398 10.625 13.4236 10.625 21.2507V77.9173H31.875V56.4548C31.875 54.6131 33.3625 53.1256 35.2042 53.1256H49.8312C51.6375 53.1256 53.1604 54.6131 53.1604 56.4548V77.9173H74.4104V21.2507C74.375 13.4236 70.8333 7.08398 60.2083 7.08398ZM51.3542 32.7611H45.1562V38.959C45.1562 40.4111 43.9521 41.6152 42.5 41.6152C41.0479 41.6152 39.8438 40.4111 39.8438 38.959V32.7611H33.6458C32.1938 32.7611 30.9896 31.5569 30.9896 30.1048C30.9896 28.6527 32.1938 27.4486 33.6458 27.4486H39.8438V21.2507C39.8438 19.7986 41.0479 18.5944 42.5 18.5944C43.9521 18.5944 45.1562 19.7986 45.1562 21.2507V27.4486H51.3542C52.8063 27.4486 54.0104 28.6527 54.0104 30.1048C54.0104 31.5569 52.8063 32.7611 51.3542 32.7611Z" fill="url(#paint1_linear_789_445)"/>
<defs>
<linearGradient id="paint0_linear_789_445" x1="39.1291" y1="75.2598" x2="39.1291" y2="80.5723" gradientUnits="userSpaceOnUse">
<stop stop-color="#C5BAFF"/>
<stop offset="1" stop-color="#80DAFD"/>
</linearGradient>
<linearGradient id="paint1_linear_789_445" x1="39.6939" y1="7.08398" x2="39.6939" y2="77.9173" gradientUnits="userSpaceOnUse">
<stop stop-color="#C5BAFF"/>
<stop offset="1" stop-color="#80DAFD"/>
</linearGradient>
</defs>
</svg>
