<svg width="81" height="43" viewBox="0 0 81 43" fill="none" xmlns="http://www.w3.org/2000/svg">
<path d="M72.7071 0.25C71.52 0.250383 70.3493 0.527511 69.288 1.05938C68.2267 1.59125 67.304 2.36321 66.5932 3.31398C65.8824 4.26475 65.403 5.36814 65.1931 6.53655C64.9833 7.70496 65.0487 8.90621 65.3841 10.0449L53.5356 21.8918C51.973 21.3713 50.2838 21.3713 48.7211 21.8918L39.9373 13.1079C40.2263 11.98 40.2536 10.801 40.0171 9.66092C39.7806 8.52085 39.2866 7.44996 38.5727 6.53012C37.8589 5.61028 36.9442 4.86584 35.8985 4.35372C34.8529 3.8416 33.7039 3.57537 32.5396 3.57537C31.3753 3.57537 30.2264 3.8416 29.1807 4.35372C28.135 4.86584 27.2203 5.61028 26.5065 6.53012C25.7926 7.44996 25.2986 8.52085 25.0621 9.66092C24.8256 10.801 24.8529 11.98 25.1419 13.1079L10.4512 27.7887C8.82023 27.3059 7.07486 27.3804 5.49097 28.0005C3.90709 28.6206 2.57504 29.7509 1.70538 31.2128C0.835718 32.6746 0.478046 34.3845 0.688899 36.0724C0.899751 37.7602 1.6671 39.3296 2.86966 40.5325C4.07222 41.7355 5.64139 42.5033 7.32915 42.7147C9.01691 42.9261 10.727 42.569 12.1891 41.6998C13.6512 40.8306 14.7819 39.4989 15.4025 37.9153C16.0231 36.3316 16.0982 34.5862 15.616 32.9551L30.1208 18.452C31.6833 18.9728 33.3727 18.9728 34.9352 18.452L43.7208 27.2375C43.4317 28.3654 43.4044 29.5444 43.6409 30.6845C43.8774 31.8246 44.3714 32.8954 45.0853 33.8153C45.7991 34.7351 46.7138 35.4796 47.7595 35.9917C48.8052 36.5038 49.9541 36.77 51.1184 36.77C52.2827 36.77 53.4317 36.5038 54.4773 35.9917C55.523 35.4796 56.4377 34.7351 57.1515 33.8153C57.8654 32.8954 58.3594 31.8246 58.5959 30.6845C58.8324 29.5444 58.8051 28.3654 58.5161 27.2375L70.5489 15.2113C71.5994 15.5212 72.7042 15.6016 73.7885 15.4469C74.8727 15.2922 75.911 14.9061 76.8329 14.3147C77.7548 13.7234 78.5387 12.9407 79.1315 12.0197C79.7242 11.0988 80.1119 10.0611 80.2683 8.97705C80.4247 7.89303 80.346 6.78806 80.0377 5.73711C79.7294 4.68615 79.1987 3.71381 78.4815 2.88605C77.7643 2.05828 76.8775 1.39447 75.8812 0.939638C74.8848 0.48481 73.8023 0.249611 72.7071 0.25Z" fill="url(#paint0_linear_789_440)"/>
<defs>
<linearGradient id="paint0_linear_789_440" x1="36.9591" y1="0.249999" x2="36.9591" y2="42.7741" gradientUnits="userSpaceOnUse">
<stop stop-color="#C5BAFF"/>
<stop offset="1" stop-color="#80DAFD"/>
</linearGradient>
</defs>
</svg>
