<svg width="42" height="42" viewBox="0 0 42 42" fill="none" xmlns="http://www.w3.org/2000/svg">
<mask id="mask0_729_855" style="mask-type:alpha" maskUnits="userSpaceOnUse" x="0" y="0" width="42" height="42">
<rect width="42" height="42" fill="#D9D9D9"/>
</mask>
<g mask="url(#mask0_729_855)">
<path d="M22.1817 20.998L16.8005 26.3793L19.2505 28.873L27.1255 20.998L19.2505 13.123L16.8005 15.6168L22.1817 20.998ZM21.0005 38.498C18.5797 38.498 16.3047 38.0387 14.1755 37.1199C12.0463 36.2012 10.1942 34.9543 8.61924 33.3793C7.04424 31.8043 5.79736 29.9522 4.87861 27.823C3.95986 25.6939 3.50049 23.4189 3.50049 20.998C3.50049 18.5772 3.95986 16.3022 4.87861 14.173C5.79736 12.0439 7.04424 10.1918 8.61924 8.6168C10.1942 7.0418 12.0463 5.79492 14.1755 4.87617C16.3047 3.95742 18.5797 3.49805 21.0005 3.49805C23.4213 3.49805 25.6963 3.95742 27.8255 4.87617C29.9547 5.79492 31.8067 7.0418 33.3817 8.6168C34.9567 10.1918 36.2036 12.0439 37.1224 14.173C38.0411 16.3022 38.5005 18.5772 38.5005 20.998C38.5005 23.4189 38.0411 25.6939 37.1224 27.823C36.2036 29.9522 34.9567 31.8043 33.3817 33.3793C31.8067 34.9543 29.9547 36.2012 27.8255 37.1199C25.6963 38.0387 23.4213 38.498 21.0005 38.498Z" fill="url(#paint0_linear_729_855)"/>
</g>
<defs>
<linearGradient id="paint0_linear_729_855" x1="21.0005" y1="3.49805" x2="21.0005" y2="38.498" gradientUnits="userSpaceOnUse">
<stop stop-color="#4BC8F9"/>
<stop offset="1" stop-color="#3262D3"/>
</linearGradient>
</defs>
</svg>
