<svg width="32" height="32" viewBox="0 0 32 32" fill="none" xmlns="http://www.w3.org/2000/svg">
<circle cx="16" cy="16" r="16" fill="url(#paint0_linear_2107_896)"/>
<path d="M18 17H19.3333C19.3333 16.1159 18.9821 15.2681 18.357 14.643C17.7319 14.0179 16.8841 13.6667 16 13.6667V15C16.5304 15 17.0391 15.2107 17.4142 15.5858C17.7893 15.9609 18 16.4696 18 17ZM20.6667 17H22C22 13.6667 19.3133 11 16 11V12.3333C18.5733 12.3333 20.6667 14.42 20.6667 17ZM21.3333 19.3333C20.5 19.3333 19.7 19.2 18.9533 18.9533C18.72 18.88 18.46 18.9333 18.2733 19.12L16.8067 20.5867C14.92 19.6267 13.3733 18.08 12.4133 16.1933L13.88 14.7267C14.0667 14.54 14.12 14.28 14.0467 14.0467C13.8 13.3 13.6667 12.5 13.6667 11.6667C13.6667 11.4899 13.5964 11.3203 13.4714 11.1953C13.3464 11.0702 13.1768 11 13 11H10.6667C10.4899 11 10.3203 11.0702 10.1953 11.1953C10.0702 11.3203 10 11.4899 10 11.6667C10 14.6725 11.194 17.5551 13.3195 19.6805C15.4449 21.806 18.3275 23 21.3333 23C21.5101 23 21.6797 22.9298 21.8047 22.8047C21.9298 22.6797 22 22.5101 22 22.3333V20C22 19.8232 21.9298 19.6536 21.8047 19.5286C21.6797 19.4036 21.5101 19.3333 21.3333 19.3333Z" fill="white"/>
<defs>
<linearGradient id="paint0_linear_2107_896" x1="14.5833" y1="-9.74784e-07" x2="14.5833" y2="32" gradientUnits="userSpaceOnUse">
<stop stop-color="#9A87FF"/>
<stop offset="1" stop-color="#4ECCFD"/>
</linearGradient>
</defs>
</svg>
