<svg width="42" height="42" viewBox="0 0 42 42" fill="none" xmlns="http://www.w3.org/2000/svg">
<circle cx="21" cy="21" r="21" fill="url(#paint0_linear_2107_925)"/>
<path d="M25.3312 15.7749C24.7812 15.7749 24.3687 16.1874 24.3687 16.7374C24.3687 17.2874 24.7812 17.6999 25.3312 17.6999C25.8812 17.6999 26.2937 17.2874 26.2937 16.7374C26.2937 16.1874 25.8812 15.7749 25.3312 15.7749Z" fill="white"/>
<path d="M21.0001 17.0127C18.7313 17.0127 16.9438 18.8689 16.9438 21.0689C16.9438 23.2689 18.8001 25.1252 21.0001 25.1252C23.2001 25.1252 25.0563 23.2689 25.0563 21.0689C25.0563 18.8689 23.2688 17.0127 21.0001 17.0127ZM21.0001 23.6814C19.5563 23.6814 18.3876 22.5127 18.3876 21.0689C18.3876 19.6252 19.5563 18.4564 21.0001 18.4564C22.4438 18.4564 23.6126 19.6252 23.6126 21.0689C23.6126 22.5127 22.4438 23.6814 21.0001 23.6814Z" fill="white"/>
<path d="M24.3 12.75H17.7688C14.95 12.75 12.75 14.95 12.75 17.7V24.2313C12.75 26.9813 14.95 29.1813 17.7 29.1813H24.2313C26.9813 29.1813 29.1812 26.9813 29.1812 24.2313V17.7C29.25 14.95 27.05 12.75 24.3 12.75ZM27.6688 24.3C27.6688 26.1563 26.1563 27.7375 24.2313 27.7375H17.7C15.8437 27.7375 14.2625 26.225 14.2625 24.3V17.7688C14.2625 15.9125 15.775 14.3313 17.7 14.3313H24.2313C26.0875 14.3313 27.6688 15.8438 27.6688 17.7688V24.3Z" fill="white"/>
<defs>
<linearGradient id="paint0_linear_2107_925" x1="19.1406" y1="-1.2794e-06" x2="19.1406" y2="42" gradientUnits="userSpaceOnUse">
<stop stop-color="#9A87FF"/>
<stop offset="1" stop-color="#4ECCFD"/>
</linearGradient>
</defs>
</svg>
