<svg width="42" height="42" viewBox="0 0 42 42" fill="none" xmlns="http://www.w3.org/2000/svg">
<circle cx="21" cy="21" r="21" fill="url(#paint0_linear_2107_932)"/>
<g clip-path="url(#clip0_2107_932)">
<path fill-rule="evenodd" clip-rule="evenodd" d="M29 29H25.8V23.4008C25.8 21.8648 25.1224 21.0078 23.9072 21.0078C22.5848 21.0078 21.8 21.9008 21.8 23.4008V29H18.6V18.6H21.8V19.7695C21.8 19.7695 22.804 18.0078 25.0664 18.0078C27.3296 18.0078 29 19.3889 29 22.2465V29ZM14.9536 16.9367C13.8744 16.9367 13 16.0552 13 14.968C13 13.8816 13.8744 13 14.9536 13C16.032 13 16.9064 13.8816 16.9064 14.968C16.9072 16.0552 16.032 16.9367 14.9536 16.9367ZM13 29H17V18.6H13V29Z" fill="white"/>
</g>
<defs>
<linearGradient id="paint0_linear_2107_932" x1="19.1406" y1="-1.2794e-06" x2="19.1406" y2="42" gradientUnits="userSpaceOnUse">
<stop stop-color="#9A87FF"/>
<stop offset="1" stop-color="#4ECCFD"/>
</linearGradient>
<clipPath id="clip0_2107_932">
<rect width="16" height="16" fill="white" transform="translate(13 13)"/>
</clipPath>
</defs>
</svg>
