<svg width="32" height="32" viewBox="0 0 32 32" fill="none" xmlns="http://www.w3.org/2000/svg">
<circle cx="16" cy="16" r="16" fill="url(#paint0_linear_2107_899)"/>
<path d="M21.3335 13.3332L16.0002 16.6665L10.6668 13.3332V11.9998L16.0002 15.3332L21.3335 11.9998V13.3332ZM21.3335 10.6665H10.6668C9.92683 10.6665 9.3335 11.2598 9.3335 11.9998V19.9998C9.3335 20.3535 9.47397 20.6926 9.72402 20.9426C9.97407 21.1927 10.3132 21.3332 10.6668 21.3332H21.3335C21.6871 21.3332 22.0263 21.1927 22.2763 20.9426C22.5264 20.6926 22.6668 20.3535 22.6668 19.9998V11.9998C22.6668 11.2598 22.0668 10.6665 21.3335 10.6665Z" fill="white"/>
<defs>
<linearGradient id="paint0_linear_2107_899" x1="14.5833" y1="-9.74784e-07" x2="14.5833" y2="32" gradientUnits="userSpaceOnUse">
<stop stop-color="#9A87FF"/>
<stop offset="1" stop-color="#4ECCFD"/>
</linearGradient>
</defs>
</svg>
